<svg xmlns="http://www.w3.org/2000/svg" width="411.945" height="272.984" viewBox="0 0 411.945 272.984">
  <g id="Path_247" data-name="Path 247" transform="translate(374.843 231.957) rotate(-161)" fill="#fff" opacity="0.46">
    <path d="M 141.2693328857422 113.4615707397461 C 125.079833984375 113.4615707397461 107.8396301269531 109.6488723754883 90.02758026123047 102.1293716430664 C 82.10668182373047 98.7855224609375 74.10368347167969 94.70936584472656 66.24082946777344 90.01412200927734 C 58.92203140258789 85.64372253417969 51.72158050537109 80.73741912841797 44.83958053588867 75.43157196044922 C 38.38072967529297 70.45191955566406 32.27598190307617 65.18001556396484 26.69493103027344 59.7622184753418 C 21.36673164367676 54.58992004394531 16.65073204040527 49.41872024536133 12.67798137664795 44.39226913452148 C 8.788031578063965 39.47061920166016 5.754531383514404 34.87216949462891 3.661831378936768 30.72471809387207 C 1.563781499862671 26.56666946411133 0.4999814629554749 23.03996849060059 0.4999814629554749 20.24246978759766 C 0.4999814629554749 16.64441871643066 1.990481495857239 13.64276885986328 5.056581497192383 11.06601905822754 C 7.946481704711914 8.63731861114502 12.2623815536499 6.565369129180908 18.25088119506836 4.731668949127197 C 29.72568130493164 1.218018889427185 46.44552993774414 -1.106731057167053 65.80543518066406 -3.798581123352051 C 101.1790313720703 -8.716980934143066 145.20263671875 -14.83808135986328 190.9233245849609 -31.69258117675781 C 211.0797271728516 -39.12308120727539 232.215087890625 -42.89063262939453 253.7423248291016 -42.89063262939453 C 270.4999389648438 -42.89063262939453 287.2738952636719 -40.61873245239258 303.5983276367188 -36.13803100585938 C 311.0015869140625 -34.10597991943359 318.2870178222656 -31.61773109436035 325.2522888183594 -28.74248123168945 C 331.8429260253906 -26.02183151245117 338.1722717285156 -22.94538116455078 344.0644836425781 -19.59858131408691 C 355.1932678222656 -13.27733135223389 364.5690307617188 -6.112831115722656 371.1780700683594 1.120418906211853 C 374.3585205078125 4.601219177246094 376.817138671875 8.01271915435791 378.4856262207031 11.26011848449707 C 380.1545715332031 14.50841903686523 381.0007934570312 17.53051948547363 381.0007934570312 20.24246978759766 C 381.0007934570312 23.55941963195801 379.4898376464844 26.54231834411621 376.381591796875 29.36161804199219 C 373.4769287109375 31.99626922607422 369.1770935058594 34.48226928710938 363.2363891601562 36.96171951293945 C 351.9286193847656 41.68127059936523 336.0100402832031 45.82271957397461 317.5779418945312 50.61816787719727 C 279.030029296875 60.64706802368164 231.0559387207031 73.12837219238281 190.4796295166016 99.26551818847656 C 182.957275390625 104.1110153198242 174.8453369140625 107.7643203735352 166.3690795898438 110.1240158081055 C 158.4137268066406 112.3386154174805 149.9689788818359 113.4615707397461 141.2693328857422 113.4615707397461 Z" stroke="none"/>
    <path d="M 253.7422332763672 -42.39067840576172 C 232.2742309570312 -42.39067840576172 211.1970825195312 -38.63348388671875 191.0962829589844 -31.22348022460938 C 145.3249359130859 -14.35033416748047 101.2716674804688 -8.225082397460938 65.874267578125 -3.303329467773438 C 46.53549194335938 -0.6144332885742188 29.833984375 1.707771301269531 18.397216796875 5.209770202636719 C 12.47427368164062 7.023368835449219 8.215728759765625 9.064170837402344 5.3782958984375 11.44876861572266 C 2.43212890625 13.92472076416016 0.999969482421875 16.80111694335938 0.999969482421875 20.24246978759766 C 0.999969482421875 22.96096801757812 2.045745849609375 26.41191864013672 4.108245849609375 30.49946975708008 C 6.185821533203125 34.61697006225586 9.201080322265625 39.18687057495117 13.07022094726562 44.08221817016602 C 17.02947998046875 49.09151840209961 21.73068237304688 54.24631881713867 27.04318237304688 59.40346908569336 C 32.61068725585938 64.80806732177734 38.70098876953125 70.06746673583984 45.14486694335938 75.03556823730469 C 52.01129150390625 80.32942199707031 59.19522094726562 85.22447204589844 66.49713134765625 89.58477020263672 C 74.34017944335938 94.26821899414062 82.3223876953125 98.33381652832031 90.22198486328125 101.6687164306641 C 107.97216796875 109.1620712280273 125.14697265625 112.9615173339844 141.269287109375 112.9615173339844 C 149.9236297607422 112.9615173339844 158.3232879638672 111.8447723388672 166.2349853515625 109.6422729492188 C 174.6627807617188 107.2960662841797 182.7287750244141 103.6634216308594 190.2088775634766 98.84511566162109 C 230.8525390625 72.66461944580078 278.8695678710938 60.17216873168945 317.4519653320312 50.13426971435547 C 335.8658447265625 45.34362030029297 351.7685852050781 41.20621871948242 363.0438232421875 36.50032043457031 C 368.9309692382812 34.04316711425781 373.1839294433594 31.58696746826172 376.0456848144531 28.99126815795898 C 379.0434875488281 26.27211761474609 380.5007934570312 23.41036987304688 380.5007934570312 20.24246978759766 C 380.5007934570312 17.6107177734375 379.6731262207031 14.66551971435547 378.0408935546875 11.48861694335938 C 376.3926696777344 8.280616760253906 373.95947265625 4.905715942382812 370.8089904785156 1.457672119140625 C 364.2347717285156 -5.737380981445312 354.9012756347656 -12.86817932128906 343.8174743652344 -19.16383361816406 C 337.9433288574219 -22.50038146972656 331.6328735351562 -25.56758117675781 325.0614318847656 -28.28033447265625 C 318.1151733398438 -31.14778137207031 310.849365234375 -33.62928009033203 303.4658813476562 -35.6558837890625 C 287.1845703125 -40.12477874755859 270.4551391601562 -42.39067840576172 253.7422332763672 -42.39067840576172 M 253.7422485351562 -43.39067077636719 C 324.9151916503906 -43.39067077636719 381.5007934570312 -2.315513610839844 381.5007934570312 20.24246978759766 C 381.5007934570312 49.18446731567383 270.6133422851562 48.24231719970703 190.7503814697266 99.68582153320312 C 175.0936584472656 109.7710647583008 158.2415313720703 113.9615325927734 141.2693023681641 113.9615325927734 C 71.66836547851562 113.9615325927734 -3.0517578125e-05 43.51053619384766 -3.0517578125e-05 20.24246978759766 C -3.0517578125e-05 -8.699577331542969 93.1722412109375 3.809516906738281 190.7503814697266 -32.16178131103516 C 212.2742614746094 -40.09635925292969 233.5997924804688 -43.39067077636719 253.7422485351562 -43.39067077636719 Z" stroke="none" fill="#707070"/>
  </g>
</svg>
