<svg xmlns="http://www.w3.org/2000/svg" viewBox="0 0 172.84 121.01"><defs><style>.cls-1{fill:#fff;}</style></defs><g id="Layer_2" data-name="Layer 2"><g id="Ñëîé_1" data-name="Ñëîé 1"><path class="cls-1" d="M5.57,60.41a1.85,1.85,0,0,1,1.74-1.94c2.15,0,3.13-1,4.48-2.38s3.33-3.39,6.83-3.39h0c3.5,0,5.34,1.88,6.82,3.39s2.33,2.37,4.47,2.38,3.12-1,4.47-2.38,3.33-3.39,6.82-3.39h0c3.5,0,5.34,1.88,6.82,3.39s2.33,2.37,4.47,2.38,3.12-1,4.46-2.38,3.33-3.39,6.82-3.39h0c3.49,0,5.33,1.88,6.82,3.39C72,57.47,73,58.46,75.14,58.47s3.11-1,4.46-2.38,3.32-3.39,6.82-3.39h0c3.5,0,5.34,1.88,6.82,3.39s2.32,2.37,4.46,2.38,3.11-1,4.46-2.38,3.32-3.39,6.82-3.39h0c3.49,0,5.33,1.88,6.81,3.39s2.33,2.37,4.47,2.38,3.11-1,4.46-2.38,3.32-3.39,6.82-3.39h0c3.5,0,5.34,1.88,6.82,3.39s2.32,2.37,4.46,2.38,3.12-1,4.46-2.38,3.32-3.39,6.82-3.39h0c3.49,0,5.33,1.88,6.81,3.39s2.33,2.38,4.48,2.38a2,2,0,0,1,0,3.89c-3.49,0-5.34-1.88-6.82-3.39s-2.32-2.37-4.47-2.37-3.13,1-4.48,2.37-3.32,3.39-6.82,3.39h0c-3.5,0-5.34-1.88-6.82-3.39s-2.32-2.37-4.46-2.37-3.12,1-4.47,2.37-3.32,3.39-6.82,3.39h0c-3.5,0-5.34-1.88-6.82-3.39S111.17,56.6,109,56.6s-3.12,1-4.47,2.37-3.32,3.39-6.81,3.39h0c-3.49,0-5.33-1.88-6.81-3.39s-2.33-2.37-4.46-2.37S83.32,57.6,82,59s-3.32,3.39-6.82,3.39h0c-3.5,0-5.34-1.88-6.82-3.39S66,56.6,63.84,56.6s-3.12,1-4.47,2.37-3.32,3.39-6.82,3.39h0c-3.5,0-5.35-1.88-6.83-3.39s-2.32-2.37-4.46-2.37-3.12,1-4.47,2.37S33.45,62.36,30,62.36h0c-3.5,0-5.34-1.88-6.82-3.39s-2.33-2.37-4.48-2.37-3.14,1-4.49,2.37-3.32,3.39-6.82,3.39A1.85,1.85,0,0,1,5.57,60.41ZM7.31,89.85c3.5,0,5.34-1.87,6.82-3.38s2.33-2.38,4.49-2.38,3.13,1,4.48,2.38,3.32,3.38,6.82,3.38h0c3.5,0,5.34-1.87,6.82-3.38s2.33-2.38,4.47-2.38,3.12,1,4.46,2.37C47.18,88,49,89.85,52.53,89.85h0c3.5,0,5.34-1.87,6.82-3.38s2.33-2.38,4.47-2.38,3.11,1,4.46,2.37,3.32,3.39,6.82,3.39h0c3.5,0,5.34-1.88,6.82-3.39s2.33-2.37,4.47-2.37,3.11,1,4.46,2.37c1.48,1.52,3.32,3.39,6.81,3.39h0c3.49,0,5.33-1.87,6.81-3.39,1.35-1.37,2.33-2.37,4.47-2.37s3.11,1,4.46,2.37,3.32,3.39,6.82,3.39h0c3.5,0,5.34-1.87,6.82-3.38s2.33-2.38,4.47-2.38,3.11,1,4.46,2.37,3.32,3.39,6.82,3.39h0c3.5,0,5.34-1.88,6.82-3.39s2.33-2.37,4.48-2.37,3.12,1,4.47,2.37,3.33,3.39,6.82,3.39a2,2,0,0,0,0-3.89c-2.15,0-3.13-1-4.48-2.38s-3.32-3.39-6.81-3.39h0c-3.5,0-5.34,1.88-6.82,3.39S145.06,86,142.92,86s-3.11-1-4.46-2.38-3.32-3.39-6.82-3.39h0c-3.5,0-5.34,1.88-6.82,3.39S122.47,86,120.33,86s-3.12-1-4.47-2.38-3.32-3.39-6.81-3.39h0c-3.5,0-5.34,1.88-6.82,3.39S99.87,86,97.73,86s-3.12-1-4.46-2.38S90,80.19,86.45,80.19h0c-3.5,0-5.34,1.88-6.82,3.39S77.28,86,75.14,86,72,85,70.68,83.58c-1.49-1.51-3.33-3.39-6.82-3.39h0c-3.49,0-5.33,1.88-6.82,3.39S54.68,86,52.54,86s-3.12-1-4.47-2.38-3.32-3.39-6.82-3.39h0c-3.49,0-5.34,1.88-6.82,3.39S32.08,86,29.93,86s-3.12-1-4.47-2.38-3.32-3.39-6.82-3.39h0c-3.5,0-5.35,1.88-6.83,3.39S9.46,86,7.31,86a2,2,0,0,0,0,3.89Zm159-25.74H6.51A6.67,6.67,0,0,0,0,70.91V72a6.67,6.67,0,0,0,6.51,6.81H166.33A6.67,6.67,0,0,0,172.84,72V70.91A6.67,6.67,0,0,0,166.33,64.11Zm-1,27.28H146.87L133.61,109.2,120,91.39H99.69L86.43,109.2,72.77,91.39H52L38.74,109.2,25.08,91.39H7.46A1.9,1.9,0,0,0,5.6,93.33v4.11c0,13,10.12,23.57,22.56,23.57H144.69c12.44,0,22.56-10.57,22.56-23.57V93.33A1.91,1.91,0,0,0,165.38,91.39Zm1.1-40.77a1.8,1.8,0,0,1-1.4.67H7.76a1.81,1.81,0,0,1-1.4-.67,2,2,0,0,1-.44-1.54C9.51,21.1,44.12,0,86.42,0s76.91,21.1,80.51,49.08A2,2,0,0,1,166.48,50.62ZM35.9,35.22a7.57,7.57,0,1,0-7.57,7.58A7.58,7.58,0,0,0,35.9,35.22ZM55.2,24.6A7.59,7.59,0,1,0,47.63,17,7.57,7.57,0,0,0,55.2,24.6Zm11,16.11a5.48,5.48,0,1,0-5.47,5.49A5.48,5.48,0,0,0,66.15,40.71ZM80.94,18a5.49,5.49,0,1,0-5.47-5.48A5.48,5.48,0,0,0,80.94,18ZM94.19,35.22a7.57,7.57,0,1,0-7.57,7.58A7.58,7.58,0,0,0,94.19,35.22Zm17-10.62A7.59,7.59,0,1,0,103.66,17,7.57,7.57,0,0,0,111.23,24.6Zm14.92,16.11a5.48,5.48,0,1,0-5.48,5.49A5.48,5.48,0,0,0,126.15,40.71ZM151,35.22a7.57,7.57,0,1,0-7.57,7.58A7.58,7.58,0,0,0,151,35.22Z"/></g></g></svg>