<svg xmlns="http://www.w3.org/2000/svg" width="788.111" height="506.953" viewBox="0 0 788.111 506.953">
  <g id="Group_4" data-name="Group 4" transform="translate(-574.468 -128)">
    <g id="Ellipse_3" data-name="Ellipse 3" transform="matrix(0.951, -0.309, 0.309, 0.951, 1108.552, 488.921)" fill="none" stroke="#fff" stroke-width="14" stroke-dasharray="19">
      <circle cx="41.048" cy="41.048" r="41.048" stroke="none"/>
      <circle cx="41.048" cy="41.048" r="34.048" fill="none"/>
    </g>
    <path id="Path_237" data-name="Path 237" d="M345.463-23.054C522.185-88.2,690.927,19.437,690.927,71.854S490.1,122.564,345.463,215.732,0,124.27,0,71.854,168.742,42.092,345.463-23.054Z" transform="translate(1241.879 593.926) rotate(-161)" fill="#fff" opacity="0.46"/>
    <g id="Ellipse_2" data-name="Ellipse 2" transform="matrix(0.951, -0.309, 0.309, 0.951, 1061.421, 229.276)" fill="none" stroke="#9fc1f4" stroke-width="80" stroke-dasharray="7">
      <circle cx="119.5" cy="119.5" r="119.5" stroke="none"/>
      <circle cx="119.5" cy="119.5" r="79.5" fill="none"/>
    </g>
    <g id="Ellipse_5" data-name="Ellipse 5" transform="translate(947 128)" fill="none" stroke="#2a43ed" stroke-width="20" opacity="0.52">
      <circle cx="70" cy="70" r="70" stroke="none"/>
      <circle cx="70" cy="70" r="60" fill="none"/>
    </g>
    <g id="Layer_2" data-name="Layer 2" transform="translate(579.311 268)">
      <g id="_Layer_" data-name="&lt;Layer&gt;" transform="translate(0 0)">
        <path id="Path_1" data-name="Path 1" d="M705.253,112.021v1.764a132.118,132.118,0,0,1-4.064,30.688c-.378,1.521-.785,3.036-1.211,4.545-6.86,24.16-19.727,46.184-34.566,58.95l-.468.4-76.594-.074-80.757-.078-448.606-.422a147.089,147.089,0,0,1-10.725-20.5q-.3-.69-.6-1.4h0c-.8-1.878-1.585-3.844-2.353-5.889q-.8-2.11-1.553-4.332c-.076-.211-.15-.447-.226-.675q-.268-.8-.528-1.61c-.061-.177-.116-.357-.175-.538h0c-.844-2.625-1.606-5.34-2.291-8.124q-.758-3.051-1.355-6.206a89.606,89.606,0,0,1-1.547-22.44q.116-1.77.323-3.539a59.424,59.424,0,0,1,11.922-29.992A68.792,68.792,0,0,1,68.591,86.089a73.149,73.149,0,0,1,26.55-9.757C119.694,71.985,145.36,76,181.652,49.87q3.631-2.619,7.41-5.646a448.687,448.687,0,0,1,48.182-34.1l.578-.354c45.52-27.173,79.2,10.776,113.621,12.293,59.454,2.621,60.843-34.138,170.811,7.37h.013q3.317,1.253,6.771,2.6a112.475,112.475,0,0,0,24.673,6.482q2.454.361,4.9.591a79.4,79.4,0,0,0,21.8-.886c44.31-8.128,74.629-2.73,94.289,10.352q.949.633,1.865,1.291a64.112,64.112,0,0,1,10.174,9.027A67.9,67.9,0,0,1,701.2,84.586a82.973,82.973,0,0,1,2.211,8.676q.715,3.619,1.15,7.33a104.426,104.426,0,0,1,.682,10.55C705.246,111.443,705.248,111.73,705.253,112.021Z" transform="translate(-29.564 0)" fill="#e9f3fe"/>
        <path id="Path_2" data-name="Path 2" d="M434.965,532H380.256l-.574-4.18a.879.879,0,0,0-.076-.264c.354-6.419,1.8-11.677,2.057-15.416.593-2.024.211-3.193-.34-3.859l.454.07c-2.281-2.011-3.406-15.629-3.5-16.8a4.6,4.6,0,0,0-.08-.576c-.2-1.283-.827-4.353-2.321-5.573l-6.256.445s-2.414,1.15-4.2,6.45h0a3.987,3.987,0,0,0-.844,2,3.277,3.277,0,0,0,1.213,3.294c-.013-.093-.019-.186-.023-.279.211,2.73.895,6.1,2.148,6.237,0,0,.521.023,1.287-.027a10.81,10.81,0,0,1-.378,3.055l-.409.076h0a1.912,1.912,0,0,0-.251.053h-.023a1.624,1.624,0,0,0-.2.053c-.384.1-.806.262-1.169.384,0,0-4.034,1.1-9.888,10.713h-.869c-.112-.049-.224-.1-.333-.154a3.449,3.449,0,0,0-.323-.137l.042-.964.12-2.724.057-1.3h.181l-.116-.882h-4.1l-.169.882h.181l.08,1.3.171,2.724.034.538a1.247,1.247,0,0,0-.658.245.572.572,0,0,0-.148.473h-1.967l.055-1.255.118-2.724.059-1.3h.179l-.116-.878h-4.1l-.169.882h.179l.082,1.3.169,2.724.078,1.226-.534-.076a8.133,8.133,0,0,1-1.152-.456c-.994-.5-3.648-.829-4.22-.3s.6,2.686,3.017,2.743a15.3,15.3,0,0,1,1.956.163,59.4,59.4,0,0,0,6.393,2.5c1.169.371,2.391.717,3.557.979a18.231,18.231,0,0,0,3.028.454,17.229,17.229,0,0,0,3.1-1.711c.591.23,1.226.468,1.886.7l-.3,3.5c-.11.791-.158,3.1-.175,5.667H310.5c-.306-2.154-.8-4.8-.895-5.891a40.584,40.584,0,0,1,.034-5.8c1.612-.538,3.144-1.139,4.307-1.62a17.867,17.867,0,0,0,3.471,1.973c.118,0,.236-.013.359-.023h.015l.35-.034h.049l.327-.04.093-.013.289-.042.144-.023.245-.04.192-.036.2-.038.236-.046.162-.034.272-.059.095-.019h.021c.274-.061.553-.127.844-.2l.048-.011c.276-.072.557-.146.844-.224l.061-.015c.276-.078.555-.158.831-.24l.061-.019c.291-.086.58-.175.865-.266a59.409,59.409,0,0,0,6.393-2.5,15.3,15.3,0,0,1,1.954-.163c2.422-.065,3.587-2.222,3.019-2.754s-3.218-.2-4.22.3a8.041,8.041,0,0,1-1.152.456c-3.458.5-6.13.633-7.9.8a.8.8,0,0,0-.067-.844c-.519-.49-2.7-.293-3.969.112-6.191-8.474-10.5-11.166-10.5-11.166a1.861,1.861,0,0,0-.228-.1c2.846-2.049-1.042-2.127-.2-8.991.409-3.342-.633-8.689-7.3-7.835s-8.771,7.41-7.427,10.324-1.935,3.617-2.967,6.752c-.884,2.692-1.192,6.035-2.625,7.535-3.975,4.155,2.142,10.227,7.4,10.86a16.559,16.559,0,0,1-.051,1.661,5.82,5.82,0,0,1-.1.665c-.369,1.9-1.6,5.144-2.386,7.636h-3.741a2.422,2.422,0,0,0-2.416,2.416v54.124a2.422,2.422,0,0,0,2.416,2.416h147a2.422,2.422,0,0,0,2.416-2.416V534.414A2.422,2.422,0,0,0,434.965,532ZM309.933,516.173c.025-.338.046-.669.067-.99.285.314.572.612.857.9Z" transform="translate(-225.298 -382.979)" fill="#9fc1f4" opacity="0.4"/>
        <path id="Path_3" data-name="Path 3" d="M1239.7,532h-38.75l-.574-4.18a.959.959,0,0,0-.076-.264c.354-6.419,1.8-11.677,2.057-15.416.593-2.024.211-3.193-.34-3.859l.454.07c-2.281-2.011-3.406-15.629-3.5-16.8a4.578,4.578,0,0,0-.08-.576c-.211-1.283-.827-4.353-2.321-5.573l-6.267.445s-2.408,1.158-4.186,6.45h0a4.007,4.007,0,0,0-.844,2,3.277,3.277,0,0,0,1.213,3.294c-.012-.093-.019-.186-.023-.279.211,2.73.895,6.1,2.148,6.237,0,0,.521.023,1.287-.027a10.815,10.815,0,0,1-.378,3.055l-.409.076h0a1.909,1.909,0,0,0-.251.053h-.021a1.542,1.542,0,0,0-.2.053c-.384.1-.808.262-1.169.384,0,0-4.035,1.1-9.888,10.713h-.869c-.112-.049-.224-.1-.333-.154a3.441,3.441,0,0,0-.323-.137l.042-.964.12-2.724.057-1.3h.182l-.116-.882h-4.1l-.169.882h.181l.08,1.3.171,2.724.034.538a1.248,1.248,0,0,0-.659.245.573.573,0,0,0-.148.473h-1.966l.055-1.255.118-2.724.057-1.3h.181l-.114-.882h-4.1l-.169.882h.179l.076,1.2a4.791,4.791,0,0,0-1.042.34,8.014,8.014,0,0,1-1.15.456c-3.458.5-6.132.633-7.9.8a.8.8,0,0,0-.068-.844c-.519-.49-2.7-.293-3.969.112-6.18-8.465-10.493-11.158-10.493-11.158a1.672,1.672,0,0,0-.228-.095c2.846-2.049-1.04-2.127-.211-8.991.409-3.342-.633-8.689-7.3-7.834s-8.765,7.408-7.421,10.324-1.937,3.617-2.966,6.752c-.886,2.692-1.194,6.035-2.627,7.535-3.965,4.155,2.152,10.229,7.415,10.867a16.462,16.462,0,0,1-.053,1.661,5.779,5.779,0,0,1-.1.665c-.369,1.9-1.6,5.144-2.386,7.636h-22.385a2.338,2.338,0,0,0-2.331,2.321V588.61a2.338,2.338,0,0,0,2.331,2.321H1239.69a2.338,2.338,0,0,0,2.321-2.321V534.327A2.338,2.338,0,0,0,1239.7,532Zm-95.913-15.825c.023-.338.046-.669.066-.99.287.314.572.612.859.9Zm.566,15.825c-.306-2.154-.793-4.8-.895-5.891a40.318,40.318,0,0,1,.036-5.8c1.61-.538,3.142-1.139,4.307-1.62a17.8,17.8,0,0,0,3.471,1.973c.116,0,.234-.013.357-.023h.015l.352-.034h.047l.318-.044.093-.013.289-.042.146-.023.243-.04.194-.036.2-.038.236-.046.162-.034.272-.059.095-.019h.021c.274-.061.553-.127.844-.2l.049-.011c.278-.072.557-.146.844-.224l.061-.015q.418-.117.831-.241a.547.547,0,0,0,.062-.019q.437-.131.867-.266c.95-.3,1.884-.633,2.743-.962a3.48,3.48,0,0,0,2.838,1.477,15.268,15.268,0,0,1,1.954.163,59.471,59.471,0,0,0,6.37,2.5c1.171.371,2.393.717,3.56.979a18.243,18.243,0,0,0,3.026.454,17.194,17.194,0,0,0,3.091-1.711c.591.23,1.226.468,1.884.7l-.3,3.5c-.11.791-.158,3.1-.175,5.667Zm21.851-15.439h.021v.036l.078,1.226-.536-.076a8.114,8.114,0,0,1-1.15-.456,4.562,4.562,0,0,0-.928-.312l.557-.253A15.322,15.322,0,0,1,1166.2,516.559Z" transform="translate(-868.56 -382.979)" fill="#9fc1f4" opacity="0.4"/>
        <path id="Path_4" data-name="Path 4" d="M2823.919,479.92c0-.253-.211-3-4.383-3.14,0,0,2.053.245,2.41,1.148,0,0-1.4-1.114-2.532-.755s-1.808,2.353-1.815,3.009.633,2.773,1.348,2.954a2.226,2.226,0,0,0,.876,0,10,10,0,0,0-.561,1c-1.667,3.42.053,6.765,1.464,6.4.906-.238,1.161,1.306,1.161,1.306l8.792-7.117S2827.443,478.04,2823.919,479.92Z" transform="translate(-2223.079 -376.178)" fill="#2c3a64"/>
        <path id="Path_5" data-name="Path 5" d="M2947.579,677.414s2.557-.1,2.985.329.211,2.559-.586,3.254-2.988-1.92-2.988-1.92Z" transform="translate(-2325.168 -534.471)" fill="#ed985f"/>
        <path id="Path_6" data-name="Path 6" d="M2857.465,585.82a6.091,6.091,0,0,0-2.838,5.8c.192,4.239,5.942,11.668,8.829,13.432,2.288,1.4,10.989,1.779,10.989,1.779l.253-1.715s-8.13-3.3-9.284-4.572C2862.972,597.819,2859.731,584.885,2857.465,585.82Z" transform="translate(-2252.287 -462.172)" fill="#ed985f"/>
        <path id="Path_7" data-name="Path 7" d="M2787.921,579.625c-.042.116-.09.232-.144.346-1.487,3.2-6.081,8.537-6.29,12.2a16.731,16.731,0,0,0,.605,4.938c2.551,10.263-17.617,1.519-16.477-1.137,2.268-5.275,5.433-12.818,5.433-12.818,0-.038-.029-5.345,0-7.432v-.437c0-.633,0-1.106-.013-1.228.576-2.1,1.688-5.6,1.688-5.6a11.109,11.109,0,0,1,4.376-.26c.1,0,.717.057,1.207.112a23.462,23.462,0,0,1,6.168,1.861l1.11.462q.614.264,1.082.5a8.4,8.4,0,0,1,1.758,1.083C2786.9,573.2,2789.094,576.517,2787.921,579.625Z" transform="translate(-2182.028 -448.215)" fill="#739cf3"/>
        <path id="Path_8" data-name="Path 8" d="M2776.545,686.744l-1.971.517v-.019c-3.414.907-12.538-2.532-12.538-2.532s-3.306,2.908-2.874,9.877c.211,3.4-.616,3.842.384,3.682,2.882-.462,13.028,0,13.053,0l.118-.5c.272-.032.5-.061.648-.084.511-.087,1.007-.152,1.477-.2a25.769,25.769,0,0,1,3.144-.133.29.29,0,0,0,.293-.315C2777.467,688.535,2776.545,686.744,2776.545,686.744Z" transform="translate(-2176.875 -540.234)" fill="#35488b"/>
        <path id="Path_9" data-name="Path 9" d="M2832.383,549.107a5.51,5.51,0,0,0-.291,2.3,3.1,3.1,0,0,1-2.11,1.125c-2,.2-4.052-2.986-4.052-2.986.72-.373,2.009-2.2,2.756-5.246l.251.118,4.237,1.992S2832.716,547.786,2832.383,549.107Z" transform="translate(-2229.652 -429.451)" fill="#ffb27d"/>
        <path id="Path_10" data-name="Path 10" d="M2781.908,578.076c-.011-.1-.264-.253-.684-.422.122-1.122.276-3.121.314-6.25q-.468-.234-1.082-.5a22.019,22.019,0,0,1-.549,6.271c-1.644-.538-3.948-1.158-5.526-1.566a66.8,66.8,0,0,0-1.688-7.083l-1.2-.108a23.653,23.653,0,0,1,1.446,6.83l-.27-.063c-.779-.167-1.11,3.1-1.176,3.285-1.177,3.285-4.2,2.884-5.228,3.007s-7.128,12.7-7.185,14.924,14.462,3.564,18.057,3.351S2781.962,578.69,2781.908,578.076Z" transform="translate(-2176.907 -448.482)" fill="#2c3a64"/>
        <path id="Path_11" data-name="Path 11" d="M2844.387,546.852s-.452,1.376-.783,2.7c-2.475-.69-3.228-3.294-3.454-4.688Z" transform="translate(-2240.871 -429.893)" fill="#ed985f"/>
        <path id="Path_12" data-name="Path 12" d="M2843.6,520.927s-5.922-1.372-5.013-5.047.76-6.33,4.578-5.606,4.206,2.3,4.2,3.6S2845.162,521.189,2843.6,520.927Z" transform="translate(-2239.562 -402.511)" fill="#ffb27d"/>
        <path id="Path_13" data-name="Path 13" d="M2842.126,509.288c-.633-1.333-1.386-1.266-1.855-1.025a4.247,4.247,0,0,0-5.511-.471,7.226,7.226,0,0,1-3.33,3.574s.912.933,3.547.911a4.283,4.283,0,0,0,2.353-.886,14.136,14.136,0,0,1-3.087,2.3c3.3-.633,5.513-4.454,5.741-4.853a4.808,4.808,0,0,1,.859,2.034c.062,1.009-.285,2.969.293,3.043C2841.136,513.913,2843.081,511.286,2842.126,509.288Z" transform="translate(-2233.991 -400.008)" fill="#2c3a64"/>
        <path id="Path_14" data-name="Path 14" d="M2811.262,595.221l-.5,1.815s-.759-.135-1.928-.369h-.021l-.125-.023c-.734-.15-1.618-.338-2.57-.555-3.047-.7-6.777-1.715-8.513-2.815-3.2-2.03-7.736-13.409-7.951-18.159,0-.251-.014-.492,0-.719.034-4.091,2.07-4.642,2.07-4.642.819-.34,1.77,1.08,2.743,3.279,2.057,4.61,4.243,12.66,5.634,15.057.584,1.013,3.886,3.066,6.752,4.712,1,.576,1.949,1.1,2.709,1.519C2810.581,594.862,2811.262,595.221,2811.262,595.221Z" transform="translate(-2201.026 -449.494)" fill="#ffb27d"/>
        <path id="Path_15" data-name="Path 15" d="M2794.439,572.981a5.314,5.314,0,0,0-4.819,1.374c.036-4.091,2.072-4.642,2.072-4.642C2792.51,569.362,2793.46,570.786,2794.439,572.981Z" transform="translate(-2201.003 -449.46)" fill="#739cf3"/>
        <path id="Path_16" data-name="Path 16" d="M2870.266,587.66s1.426,2.488,1.639,3.129a2.97,2.97,0,0,0-2.6,1.35S2869.374,588.017,2870.266,587.66Z" transform="translate(-2263.878 -463.662)" fill="#739cf3"/>
        <path id="Path_17" data-name="Path 17" d="M2897.341,683.9a8.493,8.493,0,0,0,8.493-8.493H2888.85A8.49,8.49,0,0,0,2897.341,683.9Z" transform="translate(-2279.296 -532.897)" fill="#b84c42"/>
        <path id="Path_18" data-name="Path 18" d="M2900.911,682.958a7.583,7.583,0,0,1-9.042-7.438h2.927A7.576,7.576,0,0,0,2900.911,682.958Z" transform="translate(-2281.678 -532.984)" fill="#d66c67"/>
        <path id="Path_19" data-name="Path 19" d="M2903.7,659.736s-2.11-3.165-3.049-2.954,1.656,1.633,2.593,2.809Z" transform="translate(-2288.444 -518.192)" fill="#d8dfeb"/>
        <path id="Path_20" data-name="Path 20" d="M2907.365,666.9H2891.51a3.979,3.979,0,0,1,2.954-.9,6.086,6.086,0,0,0,2.475-.817,4.872,4.872,0,0,1,4.874.192c1.416,1.106,3,.817,3.866.96A3.051,3.051,0,0,1,2907.365,666.9Z" transform="translate(-2281.395 -524.389)" fill="#f0d170"/>
        <path id="Path_21" data-name="Path 21" d="M2888.289,688.956c-.907.376-2.188,1.707-4.22.907a29.589,29.589,0,0,0-4.064-1.222h-.021l-.124-.023h0l.8-2.348.07.017a14.454,14.454,0,0,0,4.467.422c1.386-.321,3.733,1.361,3.733,1.361S2889.194,688.578,2888.289,688.956Z" transform="translate(-2272.202 -541.465)" fill="#ffb27d"/>
        <path id="Path_22" data-name="Path 22" d="M2878.679,683.33c-.907.376-2.188,1.707-4.22.907a29.566,29.566,0,0,0-4.064-1.222h-.021l-.125-.023c-.734-.15-1.618-.338-2.57-.555a5.089,5.089,0,0,0,.724-3.3c1,.576,1.949,1.1,2.709,1.519a14.467,14.467,0,0,0,4.467.422c1.386-.321,3.732,1.361,3.732,1.361S2879.584,682.953,2878.679,683.33Z" transform="translate(-2262.592 -535.84)" fill="#739cf3"/>
        <path id="Path_23" data-name="Path 23" d="M2625.751,706.177a2.263,2.263,0,0,0-2.171,2.321v54.3a2.251,2.251,0,0,0,2.171,2.321h80.09a85.607,85.607,0,0,0,11.485-12.2q2.173-2.769,4.22-5.786c.293-.422.583-.861.872-1.3,2.279-3.437,4.431-7.081,6.463-10.894q.881-1.665,1.728-3.376,2.228-4.494,4.186-9.242a.8.8,0,0,0,.034-.084q1.4-3.393,2.642-6.9,1.606-4.522,2.931-9.185Z" transform="translate(-2069.998 -557.159)" fill="#9fc1f4"/>
        <path id="Path_24" data-name="Path 24" d="M2273.85,500.06s.393-.8,2.346-.582a3.089,3.089,0,0,1,2.6,3.148c.072.941.81,9.9,2.279,14.441a1.493,1.493,0,0,1-1.644,1.929l-4.431-.667Z" transform="translate(-1794.062 -394.057)" fill="#163560"/>
        <path id="Path_25" data-name="Path 25" d="M2271.17,502.134s2.087-.7,3.187.34a2.205,2.205,0,0,1,.475,2.424Z" transform="translate(-1791.947 -396)" fill="#c65447"/>
        <path id="Path_26" data-name="Path 26" d="M2240,507.141s.038-4.6,7.442-4.07a3.625,3.625,0,0,1,2.975,1.933c.832,1.629,1.194,4.492-1.5,9.086Z" transform="translate(-1767.355 -396.889)" fill="#163560"/>
        <path id="Path_27" data-name="Path 27" d="M2251.137,562.04l-1.669,6.52-4.819.236-2.4-3.587c2.243-1.7,2.56-4.68,2.532-6.448v-.053a10.4,10.4,0,0,0-.114-1.382l3.42-1.042,2.6-.793a19.766,19.766,0,0,0-.114,4.431A4.679,4.679,0,0,0,2251.137,562.04Z" transform="translate(-1769.13 -438.28)" fill="#e49963"/>
        <path id="Path_28" data-name="Path 28" d="M2242.028,618.583l-17.488-.021s2.175-11.728.969-15.57.059-9.457.059-9.457c1.756-4.174,2.2-8.079,2.985-8.284.422-.112.777-.344,1.2-.422a22.465,22.465,0,0,1,12.449,1.127c1.542,3.872-1.76,6.782-1.92,15.525A83.051,83.051,0,0,0,2242.028,618.583Z" transform="translate(-1755.157 -461.104)" fill="#e49963"/>
        <path id="Path_29" data-name="Path 29" d="M2174.381,587.106c-.844-1.551-5.429-1.576-5.429-1.576a8.582,8.582,0,0,1-5.7,2.188c-2.918-.017-1.574-2.074-1.574-2.074a1.709,1.709,0,0,0-.314.07,2.762,2.762,0,0,0-1.356,1.032c.019-.382.03-.608.03-.608s-4.273,1.167-10.407,11.576c-.182.308-.7.257-1.9.023-1.532-.3-4.661-.26-9.381-.952,0,0-.162.116-.211.633a7.675,7.675,0,0,1-.211,1.477,58.945,58.945,0,0,0,6.415,2.511c1.169.371,2.393.717,3.56.979a18.231,18.231,0,0,0,3.026.454,20.117,20.117,0,0,0,5.292-3.4c-.234,1.658-.35,2.846-.34,2.979a32.877,32.877,0,0,1-.057,3.927s12.39,3.376,16.036,1.642a1.523,1.523,0,0,0,1-1.312c.356-6.752,1.939-12.238,2.095-16.015A6.853,6.853,0,0,0,2174.381,587.106Z" transform="translate(-1686.821 -461.982)" fill="#f4be61"/>
        <path id="Path_30" data-name="Path 30" d="M2282.792,627.44a3.31,3.31,0,0,1,4.287,3.376c-.15,2.281-.331,4.942-.536,8.816a1.523,1.523,0,0,1-1,1.312L2282,633.579l.8-6.142Z" transform="translate(-1800.493 -494.931)" fill="#f2a83d"/>
        <path id="Path_31" data-name="Path 31" d="M2240.119,619.423l-1.688-12.287a.987.987,0,0,0-.211-.483c-2.11-2.671-2.34-11.016-2.344-14.2a1.23,1.23,0,0,0-1.2-1.243c.046-.143,1.327-4.062,2.321-5.13l-.439-.07c-.245-.038-.679-.08-.679-.08a21.04,21.04,0,0,0-2.629,5.288h-.052a36.6,36.6,0,0,1-8.939,0h.285s1.314-3.99,2.321-5.189a11.714,11.714,0,0,0-1.327.422,17.062,17.062,0,0,0-2.38,4.625.968.968,0,0,0-.882.893l-.5,5.773-.677,7.906c-.245,1.749-.183,10.9-.156,13.926a.966.966,0,0,0,.955.971h17.279a.973.973,0,0,0,.937-1.122Z" transform="translate(-1752.301 -462.297)" fill="#ee9849"/>
        <path id="Path_32" data-name="Path 32" d="M2259.756,559.881a14.372,14.372,0,0,0-5.794-1.161h-.072l.069-.053c.344-.251,1.88-1.384,3.306-2.424l2.6-.793A19.781,19.781,0,0,0,2259.756,559.881Z" transform="translate(-1778.314 -438.249)" fill="#d68d5d"/>
        <path id="Path_33" data-name="Path 33" d="M2239.854,525.332s7.347.336,7.486-4.243,1.18-7.619-3.5-8.018-5.651,1.312-6.069,2.83S2237.946,525.127,2239.854,525.332Z" transform="translate(-1765.493 -404.765)" fill="#e49963"/>
        <path id="Path_34" data-name="Path 34" d="M2236.314,511.833s-3.273,1.964-2.923,4.5a3.273,3.273,0,0,1-1.213-3.294,4.759,4.759,0,0,1,4.684-3.88,23.032,23.032,0,0,1,3.513.257Z" transform="translate(-1761.154 -401.725)" fill="#163560"/>
        <path id="Path_35" data-name="Path 35" d="M2248.24,512.519c-1.3.692,4.085,1.266,4.414,3.469s2.9,3.036,2.9,3.036S2258.822,506.919,2248.24,512.519Z" transform="translate(-1773.696 -403.209)" fill="#163560"/>
        <path id="Path_36" data-name="Path 36" d="M2244,559.033s.053.466,1.186.53c0,0,.953.053.983-.447A3.118,3.118,0,0,0,2244,559.033Z" transform="translate(-1770.51 -440.958)" fill="#fff"/>
        <path id="Path_37" data-name="Path 37" d="M2197.75,602.872a51.849,51.849,0,0,0,9.385,3.572,19.594,19.594,0,0,0,3.495.561,17.734,17.734,0,0,0,8.273-6.452c6.91-9.679,1.576-10.723,1.576-10.723s-4.617,2.88-11.137,12.048c-.228.321-.8.249-2.283-.051-1.584-.321-4.737-.283-9.09-.922a2.417,2.417,0,0,0-.118.679C2197.743,602.724,2197.75,602.872,2197.75,602.872Z" transform="translate(-1734.019 -465.375)" fill="#f4be61"/>
        <path id="Path_38" data-name="Path 38" d="M2128.692,635.841c-1.517-.3-4.741-.319-9.385-.99a8.054,8.054,0,0,1-1.152-.458c-1-.5-3.649-.829-4.22-.3s.6,2.686,3.018,2.743a15.832,15.832,0,0,1,1.954.16,58.365,58.365,0,0,0,6.393,2.5c1.169.372,2.393.718,3.56.979A8.581,8.581,0,0,0,2128.692,635.841Z" transform="translate(-1667.776 -500.086)" fill="#a86337"/>
        <path id="Path_39" data-name="Path 39" d="M2174.659,614.14l-.057,1.3-.118,2.724-.055,1.255h-3.46l-.078-1.255-.169-2.724-.082-1.3Z" transform="translate(-1712.63 -484.555)" fill="#c65447"/>
        <path id="Path_40" data-name="Path 40" d="M2174.048,609.96h-4.1l-.169.882h4.382Z" transform="translate(-1711.951 -481.257)" fill="#dce3f1"/>
        <path id="Path_41" data-name="Path 41" d="M2174.91,620.32l-.118,2.724H2171.2l-.169-2.724Z" transform="translate(-1712.937 -489.431)" fill="#e57970"/>
        <path id="Path_42" data-name="Path 42" d="M2144.919,614.14l-.057,1.3-.12,2.724-.052,1.255h-3.461l-.078-1.255-.171-2.724-.08-1.3Z" transform="translate(-1689.165 -484.555)" fill="#c65447"/>
        <path id="Path_43" data-name="Path 43" d="M2144.306,609.96h-4.1l-.169.882h4.383Z" transform="translate(-1688.486 -481.257)" fill="#dce3f1"/>
        <path id="Path_44" data-name="Path 44" d="M2145.162,620.32l-.12,2.724h-3.592l-.171-2.724Z" transform="translate(-1689.464 -489.431)" fill="#e57970"/>
        <path id="Path_45" data-name="Path 45" d="M2140.718,640.094h-16.43a.458.458,0,0,1-.458-.456h0a.458.458,0,0,1,.458-.458h16.437a.458.458,0,0,1,.458.458h0a.458.458,0,0,1-.464.456Z" transform="translate(-1675.697 -504.311)" fill="#1c468a"/>
        <path id="Path_46" data-name="Path 46" d="M2183.8,642.509a5.132,5.132,0,0,1-.087-4.617c-1.585-.321-4.76-.46-9.111-1.1h0a9.8,9.8,0,0,1-1.783-.648c-1.055-.532-3.9-.886-4.5-.319s.633,2.867,3.222,2.939a12.915,12.915,0,0,1,2.785.31A59.483,59.483,0,0,0,2183.8,642.509Z" transform="translate(-1710.681 -501.439)" fill="#b77446"/>
        <path id="Path_47" data-name="Path 47" d="M2240.531,487.51s-2.414,1.15-4.2,6.45h2.682Z" transform="translate(-1764.459 -384.644)" fill="#ee9849"/>
        <path id="Path_48" data-name="Path 48" d="M2248.823,492.289s7.569.118,10.181-.741c0,0-.495-4.589-2.393-6.149l-6.269.445S2248.456,490.38,2248.823,492.289Z" transform="translate(-1774.279 -382.979)" fill="#f4be61"/>
        <rect id="Rectangle_2" data-name="Rectangle 2" width="151.823" height="58.952" rx="11.45" transform="translate(392.009 149.018)" fill="#9fc1f4"/>
        <path id="Path_49" data-name="Path 49" d="M657.165,985.776H.633A.633.633,0,0,1,0,985.143H0a.633.633,0,0,1,.633-.633H657.165a.633.633,0,0,1,.633.633h0A.633.633,0,0,1,657.165,985.776Z" transform="translate(0 -776.776)" fill="#2e3552"/>
        <path id="Path_50" data-name="Path 50" d="M1276.057,32.056q-3.376-1.222-6.771-2.6h-.013C1159.3-12.058,1157.913,24.7,1098.448,22.08c-34.425-1.517-68.1-39.457-113.62-12.293l-.568.354V27.927c0,2.279,2.378,4.14,5.275,4.14h167.344V205.091a2.566,2.566,0,0,0,2.452,2.65,2.361,2.361,0,0,0,1.73-.779,2.758,2.758,0,0,0,.72-1.872V32.056Z" transform="translate(-776.579 -0.013)" fill="#d2e4ff" opacity="0.6"/>
        <rect id="Rectangle_3" data-name="Rectangle 3" width="141.188" height="34.718" rx="8.48" transform="translate(399.432 49.873)" fill="#d2e4ff" opacity="0.6"/>
        <path id="Path_51" data-name="Path 51" d="M1971.609,270.27h-30.553a1.726,1.726,0,1,0,0,3.452h30.553a1.726,1.726,0,0,0,0-3.452Z" transform="translate(-1530.127 -213.242)" fill="#9fc1f4" opacity="0.4"/>
        <path id="Path_52" data-name="Path 52" d="M1971.609,310.45h-30.553a1.726,1.726,0,0,0,0,3.452h30.553a1.726,1.726,0,0,0,0-3.452Z" transform="translate(-1530.127 -244.944)" fill="#9fc1f4" opacity="0.4"/>
        <path id="Path_53" data-name="Path 53" d="M1971.609,350.63h-30.553a1.726,1.726,0,0,0,0,3.452h30.553a1.726,1.726,0,0,0,0-3.452Z" transform="translate(-1530.127 -276.646)" fill="#9fc1f4" opacity="0.4"/>
        <path id="Path_54" data-name="Path 54" d="M2189.039,270.27h-30.553a1.726,1.726,0,1,0,0,3.452h30.553a1.726,1.726,0,1,0,0-3.452Z" transform="translate(-1701.678 -213.242)" fill="#9fc1f4" opacity="0.4"/>
        <path id="Path_55" data-name="Path 55" d="M2189.039,310.45h-30.553a1.726,1.726,0,1,0,0,3.452h30.553a1.726,1.726,0,1,0,0-3.452Z" transform="translate(-1701.678 -244.944)" fill="#9fc1f4" opacity="0.4"/>
        <path id="Path_56" data-name="Path 56" d="M2189.039,350.63h-30.553a1.726,1.726,0,1,0,0,3.452h30.553a1.726,1.726,0,1,0,0-3.452Z" transform="translate(-1701.678 -276.646)" fill="#9fc1f4" opacity="0.4"/>
        <rect id="Rectangle_4" data-name="Rectangle 4" width="38.014" height="20.41" rx="10.205" transform="translate(495.594 57.028)" fill="#9fc1f4" opacity="0.4"/>
        <rect id="Rectangle_5" data-name="Rectangle 5" width="141.188" height="34.718" rx="8.48" transform="translate(224.895 49.873)" fill="#d2e4ff" opacity="0.6"/>
        <path id="Path_57" data-name="Path 57" d="M1144.429,270.27h-30.553a1.726,1.726,0,0,0,0,3.452h30.553a1.726,1.726,0,0,0,0-3.452Z" transform="translate(-877.484 -213.242)" fill="#9fc1f4" opacity="0.4"/>
        <path id="Path_58" data-name="Path 58" d="M1144.429,310.45h-30.553a1.726,1.726,0,0,0,0,3.452h30.553a1.726,1.726,0,0,0,0-3.452Z" transform="translate(-877.484 -244.944)" fill="#9fc1f4" opacity="0.4"/>
        <path id="Path_59" data-name="Path 59" d="M1144.429,350.63h-30.553a1.726,1.726,0,0,0,0,3.452h30.553a1.726,1.726,0,0,0,0-3.452Z" transform="translate(-877.484 -276.646)" fill="#9fc1f4" opacity="0.4"/>
        <path id="Path_60" data-name="Path 60" d="M1361.859,270.27h-30.553a1.726,1.726,0,0,0,0,3.452h30.553a1.726,1.726,0,1,0,0-3.452Z" transform="translate(-1049.036 -213.242)" fill="#9fc1f4" opacity="0.4"/>
        <path id="Path_61" data-name="Path 61" d="M1361.859,310.45h-30.553a1.726,1.726,0,0,0,0,3.452h30.553a1.726,1.726,0,1,0,0-3.452Z" transform="translate(-1049.036 -244.944)" fill="#9fc1f4" opacity="0.4"/>
        <path id="Path_62" data-name="Path 62" d="M1361.859,350.63h-30.553a1.726,1.726,0,0,0,0,3.452h30.553a1.726,1.726,0,1,0,0-3.452Z" transform="translate(-1049.036 -276.646)" fill="#9fc1f4" opacity="0.4"/>
        <rect id="Rectangle_6" data-name="Rectangle 6" width="38.014" height="20.41" rx="10.205" transform="translate(321.057 57.028)" fill="#9fc1f4" opacity="0.4"/>
        <path id="Path_63" data-name="Path 63" d="M451.978,238.157V269.3a1.8,1.8,0,0,1-1.787,1.789H312.577a1.794,1.794,0,0,1-1.787-1.789v-6.467c24.552-4.347,50.219-.336,86.511-26.462h52.89A1.794,1.794,0,0,1,451.978,238.157Z" transform="translate(-245.213 -186.495)" fill="#d2e4ff" opacity="0.6"/>
        <path id="Path_64" data-name="Path 64" d="M2741.638,271.078H2625.107a1.675,1.675,0,0,1-1.528-1.787V238.147a1.681,1.681,0,0,1,1.528-1.787h95.5a58.714,58.714,0,0,1,8.689,9.027A71.616,71.616,0,0,1,2741.638,271.078Z" transform="translate(-2069.998 -186.487)" fill="#d2e4ff" opacity="0.6"/>
        <rect id="Rectangle_7" data-name="Rectangle 7" width="29.04" height="3.452" rx="1.726" transform="translate(560.623 57.028)" fill="#9fc1f4" opacity="0.4"/>
        <rect id="Rectangle_8" data-name="Rectangle 8" width="29.04" height="3.452" rx="1.726" transform="translate(560.623 65.506)" fill="#9fc1f4" opacity="0.4"/>
        <rect id="Rectangle_9" data-name="Rectangle 9" width="29.04" height="3.452" rx="1.726" transform="translate(560.623 73.984)" fill="#9fc1f4" opacity="0.4"/>
        <rect id="Rectangle_10" data-name="Rectangle 10" width="29.04" height="3.452" rx="1.726" transform="translate(599.802 57.028)" fill="#9fc1f4" opacity="0.4"/>
        <rect id="Rectangle_11" data-name="Rectangle 11" width="29.04" height="3.452" rx="1.726" transform="translate(599.802 65.506)" fill="#9fc1f4" opacity="0.4"/>
        <rect id="Rectangle_12" data-name="Rectangle 12" width="29.04" height="3.452" rx="1.726" transform="translate(599.802 73.984)" fill="#9fc1f4" opacity="0.4"/>
        <rect id="Rectangle_13" data-name="Rectangle 13" width="12.059" height="20.41" rx="6.029" transform="translate(636.955 57.028)" fill="#9fc1f4" opacity="0.4"/>
        <path id="Path_65" data-name="Path 65" d="M2045.26,658.91h12.1l1.935,7.807h-11.962Z" transform="translate(-1613.705 -519.878)" fill="#9fc1f4"/>
        <path id="Path_66" data-name="Path 66" d="M2060.69,670.88h5.324l2.04,7.56h-5.6Z" transform="translate(-1625.879 -529.323)" fill="#9fc1f4"/>
        <path id="Path_67" data-name="Path 67" d="M2085.92,670.88h.361l2.243,7.56h-.61Z" transform="translate(-1645.786 -529.323)" fill="#8fb0e2"/>
        <path id="Path_68" data-name="Path 68" d="M2102.61,658.91h.211l1.958,7.807h-.234Z" transform="translate(-1658.954 -519.878)" fill="#8fb0e2"/>
        <path id="Path_69" data-name="Path 69" d="M2637.1,635.75h17.965l2.874,11.59h-17.76Z" transform="translate(-2080.666 -501.605)" fill="#9fc1f4"/>
        <path id="Path_70" data-name="Path 70" d="M2660.01,653.52h7.9l3.028,11.223h-8.315Z" transform="translate(-2098.741 -515.626)" fill="#9fc1f4"/>
        <path id="Path_71" data-name="Path 71" d="M2697.47,653.52H2698l3.33,11.223h-.905Z" transform="translate(-2128.297 -515.626)" fill="#8fb0e2"/>
        <path id="Path_72" data-name="Path 72" d="M2722.24,635.75h.312l2.908,11.59h-.346Z" transform="translate(-2147.841 -501.605)" fill="#8fb0e2"/>
        <path id="Path_73" data-name="Path 73" d="M1966.819,936.946c.091,1.127,1.688,1.028,3.5.8s1.314.338,3.84.354,3.393-.825,3.511-1.188c.107-.321-1.112-.582-2.416-.888l-.494-.118a6.64,6.64,0,0,1-3.714-2.4c-1.1-1.405-2.1-7.807-2.1-7.807l-3.946.741s2.3,5.486,2.532,7.277c.105.806-.468,1.344-.6,2.051a4.461,4.461,0,0,0-.112,1.177Z" transform="translate(-1550.38 -730.375)" fill="#b77446"/>
        <path id="Path_74" data-name="Path 74" d="M1977.123,975.481c.718-.175,1.328.239,3.853.255s3.393-.825,3.511-1.188c.108-.321-1.112-.582-2.416-.888l-.014.023a7.077,7.077,0,0,1-3.695.688c-1.688-.158-3.431-.844-4.6-.971a4.451,4.451,0,0,0-.112,1.173C1973.731,975.7,1974.986,976.006,1977.123,975.481Z" transform="translate(-1557.201 -768.01)" fill="#365da4"/>
        <path id="Path_75" data-name="Path 75" d="M1927.12,754.181a6.467,6.467,0,0,1-2.007.861,4.022,4.022,0,0,1-2.135-.03s-7.014-17.614-6.615-23.565c.011-.143.015-.3.017-.456a24.972,24.972,0,0,0-.392-3.992c-.095-.58-.211-1.19-.325-1.819-.28-1.477-.633-3.051-1.012-4.665-.167-.709-.342-1.426-.521-2.142-1.764-7.043-3.918-13.983-3.918-13.983s12.66-4.134,13.373-.27a76.936,76.936,0,0,1,.779,16.492,131.078,131.078,0,0,0,.512,19.623A108.726,108.726,0,0,0,1927.12,754.181Z" transform="translate(-1507.151 -554.248)" fill="#365da4"/>
        <path id="Path_76" data-name="Path 76" d="M1931.031,776.9a24.972,24.972,0,0,0-.392-3.992c-.1-.58-.211-1.19-.325-1.819-.281-1.477-.633-3.051-1.013-4.665-.167-.709-.342-1.426-.521-2.142.249-2.15.451-3.625.451-3.625A18.016,18.016,0,0,1,1931.031,776.9Z" transform="translate(-1521.803 -600.159)" fill="#285493"/>
        <path id="Path_77" data-name="Path 77" d="M1897.926,941.491c.091,1.127,1.688,1.127,3.484.9s1.325.238,3.853.255,3.391-.825,3.511-1.188c.105-.321-1.112-.583-2.416-.888l-.494-.118c-1.477-.363-2.449-1.454-3.713-2.4-1.2-.9-.359-5.265-.359-5.265l-3.714-1.327s.561,4.391.561,6.807c0,.815-.468,1.344-.6,2.051A4.371,4.371,0,0,0,1897.926,941.491Z" transform="translate(-1497.456 -734.92)" fill="#b77446"/>
        <path id="Path_78" data-name="Path 78" d="M1901.409,975.5c.422-.1,1.325.238,3.853.255s3.391-.825,3.511-1.188c.105-.321-1.112-.582-2.416-.888l-.017.023a7.06,7.06,0,0,1-3.7.692c-1.688-.158-3.433-.844-4.6-.971a4.368,4.368,0,0,0-.11,1.173C1898.017,975.72,1899.093,976.034,1901.409,975.5Z" transform="translate(-1497.456 -768.026)" fill="#365da4"/>
        <path id="Path_79" data-name="Path 79" d="M1895.629,686.737s-4.118,20.526-4.815,31.7-1.563,20.421-1.563,20.421a5.435,5.435,0,0,1-1.93.266,7.126,7.126,0,0,1-1.952-.4s-4.081-16.808-2.73-23.535.226-12.934-.422-18.515c-.93-8,2.65-11.719,5.148-14.255S1895.629,686.737,1895.629,686.737Z" transform="translate(-1484.945 -537.98)" fill="#365da4"/>
        <path id="Path_80" data-name="Path 80" d="M1879.434,497.234c.409-3.342-.633-8.689-7.3-7.835s-8.772,7.408-7.425,10.322-1.937,3.619-2.967,6.752c-.886,2.692-1.194,6.037-2.627,7.537-4.617,4.836,4.431,12.276,9.89,10.706,9.938-2.857,11.217-3.283,10.865-11.09-.182-4.009-3.294-5.551-1.317-6.71C1883.321,504.121,1878.508,504.8,1879.434,497.234Z" transform="translate(-1465.832 -386.063)" fill="#163560"/>
        <path id="Path_81" data-name="Path 81" d="M1909.582,545.7a18.366,18.366,0,0,0-2.241-.371,9.4,9.4,0,0,1-.3-4.036l-4.963-1.511c-.239,5.275-.713,5.936-.812,6.016a22.606,22.606,0,0,0-3.287,1.055s3.165,18.127,1.808,21.586a36.535,36.535,0,0,0-1.878,6.53l14.77.184s-.211-11.875.475-16.076S1909.582,545.7,1909.582,545.7Z" transform="translate(-1497.446 -425.885)" fill="#a86337"/>
        <path id="Path_82" data-name="Path 82" d="M1919.735,511.873s-5.942,1.192-6.628-2.519-1.914-6.056,1.849-6.974,4.766.361,5.3,1.542S1921.263,511.465,1919.735,511.873Z" transform="translate(-1508.844 -396.129)" fill="#b77446"/>
        <path id="Path_83" data-name="Path 83" d="M1923.238,579.6c-.044-.517-.211-.633-.211-.633-4.72.694-7.847.654-9.381.954-1.2.232-1.688.266-1.9-.025-6.52-9.168-11.135-12.048-11.135-12.048a7.785,7.785,0,0,0-2.418-.559s-.276,3.488-2.067,3.783c-3.1.511-5.6-2.321-6.33-3.471,0,0-3.558.9-4.6,2.089-.749.857-.652,2.9-.422,4.19a5.693,5.693,0,0,0,.226.933c.211.582,1.055,4.853,1.433,6.56a.548.548,0,0,0,.027.12c.026.114.049.211.07.3s.04.16.055.211.019.055.027.082a14.1,14.1,0,0,1,.683,5.722,5.717,5.717,0,0,1-.169.916c-.5,2.543-2.557,7.554-2.983,9.856a3.089,3.089,0,0,0,1.477,1.266,13.938,13.938,0,0,0,2.844.911,26.9,26.9,0,0,0,2.9.462c.633.072,1.31.131,2,.171l.289.017c4.448.211,9.429.11,10.077-2,.31-1.015-.928-7.115-1.095-8.927-.287-3.184.184-7.543.4-10.922a21.745,21.745,0,0,0,7.417,5.471,18.069,18.069,0,0,0,3.026-.456c1.167-.26,2.391-.606,3.56-.977a58.925,58.925,0,0,0,6.415-2.513A7.5,7.5,0,0,1,1923.238,579.6Z" transform="translate(-1486.582 -447.59)" fill="#80bdcc"/>
        <path id="Path_84" data-name="Path 84" d="M1913.453,498.552s.1,1.266-1.85,3.393-1.477,5.944-1.477,5.944-3.294-6.189-1.536-8.166S1913.453,498.552,1913.453,498.552Z" transform="translate(-1505.465 -393.228)" fill="#163560"/>
        <path id="Path_85" data-name="Path 85" d="M1922.25,490.781s2.954-.987,5.883,1.9c1.266,1.243,1.072,3.688.4,5.108,0,0-1.038-3.04-2.928-3.705S1922.25,490.781,1922.25,490.781Z" transform="translate(-1516.651 -387.096)" fill="#163560"/>
        <path id="Path_86" data-name="Path 86" d="M1938.56,538.14s.158.441,1.266.241c0,0,.939-.167.844-.661A3.015,3.015,0,0,0,1938.56,538.14Z" transform="translate(-1529.519 -424.224)" fill="#fff"/>
        <path id="Path_87" data-name="Path 87" d="M1896.854,609.689c-.844,2.859-1.334,5.21-3.448,6.8-.69-.04-1.367-.1-2-.171a26.876,26.876,0,0,1-2.894-.462,13.927,13.927,0,0,1-2.844-.912,2.927,2.927,0,0,1-1.477-1.266c.422-2.3,2.488-7.313,2.983-9.856a6.269,6.269,0,0,0,.1-.667,16.587,16.587,0,0,0-.614-5.971l-.083-.289c-.017-.061-.04-.165-.07-.3a.536.536,0,0,0-.027-.12c-.337-1.614-1.226-6.672-1.454-7.332a6.732,6.732,0,0,1-.211-1.009l1.779-1.709s10.2,4.353,12.449,10.362S1898.064,605.589,1896.854,609.689Z" transform="translate(-1486.622 -462.692)" fill="#5f9aa8"/>
        <path id="Path_88" data-name="Path 88" d="M1986.968,623.228a28.674,28.674,0,0,1-6.586,1.433,21.994,21.994,0,0,1-7.49-5.549c-.154-.694-.3-1.859.536-1.523,1.179.473,5.541,6.071,7.191,6.189A51.208,51.208,0,0,0,1986.968,623.228Z" transform="translate(-1556.512 -487.229)" fill="#5f9aa8"/>
        <path id="Path_89" data-name="Path 89" d="M1909.572,588.224a51.734,51.734,0,0,1-9.385,3.57,19.6,19.6,0,0,1-3.494.561,17.682,17.682,0,0,1-8.263-6.452c-6.91-9.679-1.576-10.723-1.576-10.723s4.617,2.88,11.137,12.05c.228.321.8.247,2.283-.053,1.585-.319,4.737-.281,9.09-.92a2.429,2.429,0,0,1,.118.677C1909.578,588.07,1909.572,588.224,1909.572,588.224Z" transform="translate(-1487.172 -453.815)" fill="#80bdcc"/>
        <path id="Path_90" data-name="Path 90" d="M2037.18,617.862c-.564-.53-3.216-.2-4.22.3a8.113,8.113,0,0,1-1.152.456c-4.642.673-7.87.7-9.387.992a8.6,8.6,0,0,0-.173,4.642c1.167-.259,2.391-.606,3.56-.977a59.386,59.386,0,0,0,6.393-2.5,15.412,15.412,0,0,1,1.954-.16C2036.582,620.548,2037.743,618.393,2037.18,617.862Z" transform="translate(-1595.359 -487.279)" fill="#a86337"/>
        <path id="Path_91" data-name="Path 91" d="M1972.877,621.194c-.6-.565-3.435-.211-4.5.319a9.505,9.505,0,0,1-1.783.648h0c-4.351.633-7.527.779-9.111,1.1a5.134,5.134,0,0,1-.086,4.617,60.607,60.607,0,0,0,9.472-3.422,13.041,13.041,0,0,1,2.785-.312C1972.24,624.063,1973.479,621.77,1972.877,621.194Z" transform="translate(-1544.384 -489.893)" fill="#b77446"/>
        <path id="Path_92" data-name="Path 92" d="M3025.7,488.2v1.764a132.085,132.085,0,0,1-4.064,30.688h-40.915a2.5,2.5,0,0,1-2.243-2.673V479.453a2.491,2.491,0,0,1,2.243-2.673h44.287a104.446,104.446,0,0,1,.682,10.55C3025.7,487.621,3025.7,487.908,3025.7,488.2Z" transform="translate(-2350.014 -376.178)" fill="#d2e4ff" opacity="0.6"/>
        <path id="Path_93" data-name="Path 93" d="M3037.5,522.737h-19.936l.135-2.688h-.363c-.1-1.215-2.321-.844-2.366,0h-.422l.173,2.688h-1.965l.135-2.688h-.363c-.105-1.215-2.321-.844-2.365,0h-.432l.173,2.688h-1.965l.135-2.688h-.363c-.106-1.215-2.321-.844-2.365,0h-.433l.173,2.688h-1.177a.746.746,0,0,0-.745.745v.325a.746.746,0,0,0,.745.745h33.6a.747.747,0,0,0,.745-.745v-.325a.747.747,0,0,0-.756-.745Z" transform="translate(-2369.494 -409.703)" fill="#c7def9"/>
        <rect id="Rectangle_14" data-name="Rectangle 14" width="35.09" height="1.815" rx="0.907" transform="translate(633.665 128.477)" fill="#c7def9"/>
        <path id="Path_94" data-name="Path 94" d="M3022.656,578.646c-.2-1.439-1.5-1.232-2.648-2.2s-3.3.817-5,1.412a3.473,3.473,0,0,0-1.852,2.532h-1.748l.7,2.688h11.546l.549-2.688h-1.477A9.392,9.392,0,0,0,3022.656,578.646Z" transform="translate(-2375.995 -454.593)" fill="#c7def9"/>
        <path id="Path_95" data-name="Path 95" d="M3097.516,578.646c-.21-1.439-1.5-1.232-2.648-2.2s-3.3.817-5,1.412a3.471,3.471,0,0,0-1.853,2.532h-1.747l.7,2.688h11.545l.549-2.688h-1.477A9.393,9.393,0,0,0,3097.516,578.646Z" transform="translate(-2435.059 -454.593)" fill="#c7def9"/>
        <path id="Path_96" data-name="Path 96" d="M3098.493,509.821l.548-2.688h-1.477a9.345,9.345,0,0,0-.078-1.737c-.211-1.439-1.5-1.232-2.648-2.2s-3.3.819-5,1.412a3.477,3.477,0,0,0-1.852,2.532h-1.747l.7,2.688Z" transform="translate(-2435.036 -396.8)" fill="#c7def9"/>
        <path id="Path_97" data-name="Path 97" d="M3037.5,648.457h-19.936l.135-2.688h-.363c-.1-1.215-2.321-.844-2.366,0h-.422l.173,2.688h-1.965l.135-2.688h-.363c-.105-1.215-2.321-.844-2.365,0h-.432l.173,2.688h-1.965l.135-2.688h-.363c-.106-1.215-2.321-.844-2.365,0h-.433l.173,2.688h-1.177a.746.746,0,0,0-.745.745v.325a.746.746,0,0,0,.745.745h33.6a.747.747,0,0,0,.745-.745v-.314a.747.747,0,0,0-.755-.755Z" transform="translate(-2369.494 -508.896)" fill="#c7def9"/>
        <path id="Path_98" data-name="Path 98" d="M3097.516,631.126c-.21-1.439-1.5-1.232-2.648-2.2s-3.3.817-5,1.41a3.475,3.475,0,0,0-1.853,2.532h-1.747l.7,2.688h11.545l.549-2.688h-1.477A9.393,9.393,0,0,0,3097.516,631.126Z" transform="translate(-2435.059 -496.003)" fill="#c7def9"/>
        <path id="Path_99" data-name="Path 99" d="M272.288,599.218h-.011a.736.736,0,0,1-.768-.7,113.424,113.424,0,0,0-10.179-48.275c-.177-.348-.143-1.125.99-1.224.99-.086,1.6.129,1.781.477a107.332,107.332,0,0,1,4.975,13.667c2.4,7.97,4.22,21.016,3.99,35.375A.739.739,0,0,1,272.288,599.218Z" transform="translate(-206.127 -433.159)" fill="#ee9849"/>
        <path id="Path_100" data-name="Path 100" d="M383.356,599.218h-.011a.736.736,0,0,1-.768-.7A113.477,113.477,0,0,0,372.4,550.242c-.177-.348-.143-1.125.988-1.224.99-.086,1.6.129,1.783.477a107.571,107.571,0,0,1,4.973,13.667c2.4,7.97,4.22,21.016,3.992,35.375A.741.741,0,0,1,383.356,599.218Z" transform="translate(-293.76 -433.159)" fill="#ee9849"/>
        <path id="Path_101" data-name="Path 101" d="M277.78,584.5a.758.758,0,0,1-.766-.574.7.7,0,0,1,.633-.8c.675-.1,16.612-2.481,23.746-.5a.679.679,0,0,1,.511.865.8.8,0,0,1-.979.452c-6.775-1.884-22.854.517-23.016.542A.918.918,0,0,1,277.78,584.5Z" transform="translate(-218.558 -459.073)" fill="#ee9849"/>
        <path id="Path_102" data-name="Path 102" d="M286.414,606.186a.76.76,0,0,1-.768-.574.7.7,0,0,1,.633-.8c.675-.1,16.612-2.483,23.746-.5a.679.679,0,0,1,.511.865.8.8,0,0,1-.977.452c-6.78-1.886-22.856.517-23.018.54A.693.693,0,0,1,286.414,606.186Z" transform="translate(-225.368 -476.183)" fill="#ee9849"/>
        <path id="Path_103" data-name="Path 103" d="M309.123,771.973h48.024s-1.118-4.642-28.931-3.948C308.532,768.515,309.123,771.973,309.123,771.973Z" transform="translate(-243.896 -605.914)" fill="#ee9849"/>
        <path id="Path_104" data-name="Path 104" d="M290.6,831.332c5.57-24.789,4.136-40,4.129-40.192-.015-.382.785-.728,1.215-.741s2.359-.112,2.581.211c.291.422,1.414,19.165-6.887,40.723Z" transform="translate(-229.283 -623.604)" fill="#e58638"/>
        <path id="Path_105" data-name="Path 105" d="M453.378,831.332c-5.568-24.789-4.136-40-4.129-40.192.015-.382-.785-.728-1.215-.741s-2.359-.112-2.581.211c-.291.422-1.414,19.165,6.887,40.723Z" transform="translate(-351.291 -623.604)" fill="#e58638"/>
        <path id="Path_106" data-name="Path 106" d="M514.788,831.332c-5.568-24.789-4.136-40-4.129-40.192.015-.382-.785-.728-1.215-.741s-2.359-.112-2.581.211c-.291.422-1.414,19.165,6.885,40.723Z" transform="translate(-399.743 -623.604)" fill="#ce6d25"/>
        <path id="Path_107" data-name="Path 107" d="M357.42,831.332c5.568-24.789,4.131-40,4.131-40.192-.015-.382.785-.728,1.215-.741s2.359-.112,2.581.211c.291.422,1.414,19.165-6.887,40.723Z" transform="translate(-282.004 -623.604)" fill="#ce6d25"/>
        <path id="Path_108" data-name="Path 108" d="M353.848,788.461H305.341a.743.743,0,0,1-.741-.741h0a.743.743,0,0,1,.741-.741h48.507a.743.743,0,0,1,.741.741h0A.743.743,0,0,1,353.848,788.461Z" transform="translate(-240.329 -620.925)" fill="#e58638"/>
        <path id="Path_109" data-name="Path 109" d="M1272.277,656.985h0a.633.633,0,0,1-.652-.595,96.452,96.452,0,0,0-8.651-41.038c-.152-.3-.122-.956.844-1.04.844-.072,1.365.11,1.515.407a90.728,90.728,0,0,1,4.22,11.618c2.04,6.773,3.587,17.863,3.393,30.07A.633.633,0,0,1,1272.277,656.985Z" transform="translate(-996.429 -484.678)" fill="#ee9849"/>
        <path id="Path_110" data-name="Path 110" d="M1366.687,656.985h0a.633.633,0,0,1-.652-.595,96.451,96.451,0,0,0-8.651-41.038c-.152-.3-.122-.956.844-1.04.844-.072,1.363.11,1.515.407a90.626,90.626,0,0,1,4.22,11.618c2.041,6.773,3.587,17.863,3.393,30.07A.633.633,0,0,1,1366.687,656.985Z" transform="translate(-1070.919 -484.678)" fill="#ee9849"/>
        <path id="Path_111" data-name="Path 111" d="M1276.9,644.474a.645.645,0,0,1-.654-.49.6.6,0,0,1,.542-.677c.574-.087,14.122-2.11,20.186-.422a.578.578,0,0,1,.422.736.679.679,0,0,1-.831.384c-5.758-1.6-19.427.439-19.564.46A.686.686,0,0,1,1276.9,644.474Z" transform="translate(-1006.954 -506.706)" fill="#ee9849"/>
        <path id="Path_112" data-name="Path 112" d="M1284.242,662.914a.646.646,0,0,1-.652-.49.6.6,0,0,1,.542-.677c.574-.087,14.121-2.11,20.185-.422a.578.578,0,0,1,.435.736.683.683,0,0,1-.831.384c-5.76-1.6-19.427.439-19.564.46A1.047,1.047,0,0,1,1284.242,662.914Z" transform="translate(-1012.745 -521.255)" fill="#ee9849"/>
        <path id="Path_113" data-name="Path 113" d="M1303.544,803.841h40.818s-.952-3.944-24.594-3.355C1303.044,800.9,1303.544,803.841,1303.544,803.841Z" transform="translate(-1028.492 -631.534)" fill="#ee9849"/>
        <path id="Path_114" data-name="Path 114" d="M1287.8,854.289c4.733-21.071,3.515-34,3.511-34.161-.012-.325.667-.618,1.034-.633s2-.1,2.192.182c.247.363,1.2,16.293-5.853,34.6Z" transform="translate(-1016.071 -646.562)" fill="#e58638"/>
        <path id="Path_115" data-name="Path 115" d="M1426.173,854.289c-4.733-21.071-3.517-34-3.511-34.161.013-.325-.667-.618-1.034-.633s-2-.1-2.193.182c-.247.363-1.2,16.293,5.853,34.6Z" transform="translate(-1119.787 -646.562)" fill="#e58638"/>
        <path id="Path_116" data-name="Path 116" d="M1478.373,854.289c-4.733-21.071-3.515-34-3.509-34.161.011-.325-.669-.618-1.036-.633s-2-.1-2.192.182c-.247.363-1.2,16.293,5.853,34.6Z" transform="translate(-1160.973 -646.562)" fill="#ce6d25"/>
        <path id="Path_117" data-name="Path 117" d="M1344.6,854.289c4.733-21.071,3.517-34,3.511-34.161-.013-.325.667-.618,1.034-.633s2-.1,2.192.182c.249.363,1.2,16.293-5.853,34.6Z" transform="translate(-1060.886 -646.562)" fill="#ce6d25"/>
        <path id="Path_118" data-name="Path 118" d="M1341.551,817.846h-41.238a.633.633,0,0,1-.633-.633h0a.633.633,0,0,1,.633-.633h41.238a.633.633,0,0,1,.633.633h0a.633.633,0,0,1-.633.633Z" transform="translate(-1025.444 -644.28)" fill="#e58638"/>
        <path id="Path_119" data-name="Path 119" d="M1202.325,600.118h.013a.737.737,0,0,0,.768-.7,113.474,113.474,0,0,1,10.176-48.277c.177-.348.144-1.125-.989-1.222-.99-.086-1.6.129-1.781.477a107.322,107.322,0,0,0-4.976,13.667c-2.4,7.969-4.22,21.016-3.99,35.375A.743.743,0,0,0,1202.325,600.118Z" transform="translate(-948.002 -433.869)" fill="#ee9849"/>
        <path id="Path_120" data-name="Path 120" d="M1091.226,600.118h0a.739.739,0,0,0,.77-.7,113.431,113.431,0,0,1,10.177-48.277c.177-.348.143-1.125-.99-1.222-.99-.086-1.6.129-1.781.477a107.35,107.35,0,0,0-4.975,13.667c-2.4,7.969-4.22,21.016-3.99,35.375A.741.741,0,0,0,1091.226,600.118Z" transform="translate(-860.337 -433.869)" fill="#ee9849"/>
        <path id="Path_121" data-name="Path 121" d="M1147.887,585.4a.76.76,0,0,0,.768-.574.705.705,0,0,0-.633-.8c-.675-.1-16.612-2.481-23.746-.5a.678.678,0,0,0-.511.865.8.8,0,0,0,.977.452c6.775-1.884,22.856.517,23.016.54A.711.711,0,0,0,1147.887,585.4Z" transform="translate(-886.624 -459.783)" fill="#ee9849"/>
        <path id="Path_122" data-name="Path 122" d="M1139.251,607.063a.758.758,0,0,0,.766-.574.7.7,0,0,0-.633-.8c-.675-.1-16.612-2.483-23.746-.5a.682.682,0,0,0-.511.867.8.8,0,0,0,.979.451c6.777-1.886,22.854.517,23.016.54A.71.71,0,0,0,1139.251,607.063Z" transform="translate(-879.809 -476.874)" fill="#ee9849"/>
        <path id="Path_123" data-name="Path 123" d="M1030.166,772.873H982.14s1.118-4.642,28.933-3.948C1030.755,769.413,1030.166,772.873,1030.166,772.873Z" transform="translate(-774.906 -606.624)" fill="#ee9849"/>
        <path id="Path_124" data-name="Path 124" d="M1197.831,832.246c-5.57-24.784-4.137-39.993-4.131-40.185.015-.382-.785-.728-1.216-.741s-2.357-.112-2.58.211c-.291.422-1.412,19.167,6.887,40.724Z" transform="translate(-938.662 -624.33)" fill="#e58638"/>
        <path id="Path_125" data-name="Path 125" d="M1035.05,832.246c5.568-24.784,4.138-39.993,4.129-40.185-.013-.382.787-.728,1.218-.741s2.357-.112,2.578.211c.293.422,1.414,19.167-6.885,40.724Z" transform="translate(-816.652 -624.33)" fill="#e58638"/>
        <path id="Path_126" data-name="Path 126" d="M973.64,832.246c5.568-24.784,4.138-39.993,4.129-40.185-.013-.382.787-.728,1.218-.741s2.357-.112,2.581.211c.291.422,1.411,19.167-6.887,40.724Z" transform="translate(-768.2 -624.33)" fill="#ce6d25"/>
        <path id="Path_127" data-name="Path 127" d="M1131.011,832.246c-5.568-24.784-4.138-39.993-4.131-40.185.015-.382-.785-.728-1.215-.741s-2.357-.112-2.581.211c-.291.422-1.412,19.167,6.887,40.724Z" transform="translate(-885.941 -624.33)" fill="#ce6d25"/>
        <path id="Path_128" data-name="Path 128" d="M978.081,789.381h48.514a.743.743,0,0,0,.74-.741h0a.743.743,0,0,0-.74-.741H978.081a.743.743,0,0,0-.741.741h0A.743.743,0,0,0,978.081,789.381Z" transform="translate(-771.119 -621.651)" fill="#e58638"/>
        <path id="Path_129" data-name="Path 129" d="M590.195,618.431s2.806-1.747,4.026-1.477,4.553,1.219,4.661,2.6-4.769,3.549-8.37,2.321S590.195,618.431,590.195,618.431Z" transform="translate(-464.581 -486.753)" fill="#e49963"/>
        <path id="Path_130" data-name="Path 130" d="M524.769,917.992a1.437,1.437,0,0,0,.821,1.325h0c.956.526,2.479.122,4.3.042.232-.011.6.441.783.441h.259c1.806.044,1.614.584,5.045.878,3.912.335,5.353-.863,5.583-1.407.194-.462-1.477-.985-3.359-1.585l-.274-.089c-.249-.078-.5-.163-.749-.243-2.232-.743-4.431-1.622-4.978-3.882-.582-2.4,1.165-9.073,1.165-9.073l-6.2-.669s-.6,6.99-.985,9.17a23.143,23.143,0,0,1-1.055,3.085c-.021.07-.042.139-.061.211A6.752,6.752,0,0,0,524.769,917.992Z" transform="translate(-414.041 -713.041)" fill="#d38957"/>
        <path id="Path_131" data-name="Path 131" d="M541.74,965.228c-.122.291-.382,1.144-2.024,1.49H533.5l-.057-.025a11.931,11.931,0,0,0-4.98-1.034,15.262,15.262,0,0,1-1.779-.074h0a2.37,2.37,0,0,1-.808-.251h0c-.036-.021-.072-.04-.106-.063h0a.767.767,0,0,1-.091-.055h0a1.809,1.809,0,0,1-.16-.112c-.027-.019-.051-.038-.076-.059l-.07-.065-.051-.049c-.027-.03-.055-.063-.082-.1h0c-.015-.021-.03-.04-.042-.061a.522.522,0,0,1-.044-.068h0a.506.506,0,0,1-.032-.059h0l-.019-.04c0-.019-.019-.04-.027-.059a.724.724,0,0,1-.032-.089.457.457,0,0,1-.023-.072.587.587,0,0,0-.023-.1.453.453,0,0,1-.013-.078.483.483,0,0,1,0-.055v-.078a1.013,1.013,0,0,1,0-.114v-.306a.848.848,0,0,1,0-.1.489.489,0,0,1,.015-.146v-.028a.2.2,0,0,1,.015-.091.735.735,0,0,0,.023-.137c.013-.08.03-.158.046-.236a.572.572,0,0,1,.021-.1c.017-.074.036-.148.053-.211a.429.429,0,0,1,.029-.11l.057-.211a.423.423,0,0,1,.03-.11l.063-.211c1.865.433,4.456,1.732,7.066,2.222l.118.021a11.413,11.413,0,0,0,3.712.025,10.929,10.929,0,0,0,2.169-.557C540.254,964.242,541.934,964.766,541.74,965.228Z" transform="translate(-414.21 -758.992)" fill="#2f5791"/>
        <path id="Path_132" data-name="Path 132" d="M530.629,978.111v-1.245l-.114-.017-2.785-.439.1.2,0,0h0l.068.127.2.384h0l.53.992Z" transform="translate(-416.378 -770.385)" fill="#2f5791"/>
        <path id="Path_133" data-name="Path 133" d="M370.042,681.7,390.1,679.79s30.705.139,33.564,4.193c0,0,5.486,3.8-.715,19.505s-13.475,31.406-13.475,31.406a14.152,14.152,0,0,1-4.4.308,17.229,17.229,0,0,1-2.357-.422s1.4-23.438,4.5-32.558,4.051-7.347-1.431-6.841-23.117,4.56-31.228,3.547S370.042,681.7,370.042,681.7Z" transform="translate(-291.338 -536.353)" fill="#b74b42"/>
        <path id="Path_134" data-name="Path 134" d="M506.439,917.992a1.439,1.439,0,0,0,.823,1.325h0c.954.526,2.479.122,4.3.042.234-.011.6.441.783.441h.26c1.8.044,1.614.584,5.045.878,3.91.335,5.351-.863,5.581-1.407.194-.462-1.477-.985-3.359-1.585l-.272-.089c-.249-.078-.5-.163-.751-.243-2.232-.743-4.431-1.622-4.977-3.882-.58-2.4,1.167-9.073,1.167-9.073l-6.2-.669s-.6,6.99-.988,9.17a22.851,22.851,0,0,1-1.055,3.085q-.036.106-.063.211A6.926,6.926,0,0,0,506.439,917.992Z" transform="translate(-399.579 -713.041)" fill="#e49963"/>
        <path id="Path_135" data-name="Path 135" d="M354.528,689.659l18.815-1.589s30.7.135,33.564,4.06c0,0,4.642,2.908-1.557,18.119S392.875,742.2,392.875,742.2a15.822,15.822,0,0,1-3.072.053,4.784,4.784,0,0,1-2.819-.859s.437-20.813,3.534-29.646,4.29-7.934-1.192-7.444-20.889,4.336-31.517,2.3C349.786,705.07,354.528,689.659,354.528,689.659Z" transform="translate(-278.624 -542.885)" fill="#c65447"/>
        <path id="Path_136" data-name="Path 136" d="M523.422,965.146a.245.245,0,0,1-.015.074,2.2,2.2,0,0,1-1.688,1.41c-.1.03-.211.057-.329.08h-6.229a12.431,12.431,0,0,0-1.169-.458,11.237,11.237,0,0,0-2.519-.534h0c-.485-.047-.933-.063-1.344-.068a5.3,5.3,0,0,1-2.695-.388h0a.758.758,0,0,1-.091-.055h0a1.818,1.818,0,0,1-.16-.112c-.025-.019-.051-.038-.074-.059l-.072-.065c-.015-.017-.032-.032-.049-.049l-.049-.055a.539.539,0,0,1-.044-.057.394.394,0,0,1-.025-.036c-.017-.021-.03-.042-.044-.063a.416.416,0,0,1-.034-.059c-.018-.032-.035-.065-.051-.1h0a.557.557,0,0,1-.025-.068c0-.017-.015-.036-.019-.051h0l-.019-.063a.563.563,0,0,0-.017-.078c0-.027-.01-.051-.015-.078a.465.465,0,0,1,0-.051h0v-.192a6.75,6.75,0,0,1,.319-1.8c.017-.07.038-.139.061-.211a36.134,36.134,0,0,1,3.566,1.2,23.165,23.165,0,0,0,3.5,1.019,11.423,11.423,0,0,0,3.986.021,10.729,10.729,0,0,0,2.015-.532c.606.192,1.188.378,1.688.557l.283.1.253.1c.082.03.16.061.232.093l.11.046.1.046c.065.03.129.061.186.093l.084.044c.053.03.1.059.148.089s.068.048.1.069l.057.051.027.03a.33.33,0,0,1,.082.12.159.159,0,0,1,0,.03h0Z" transform="translate(-399.743 -758.984)" fill="#365da4"/>
        <path id="Path_137" data-name="Path 137" d="M512.3,976.866v1.245h-1.99l-.8-1.5h0l0,0-.1-.2,2.787.439Z" transform="translate(-401.915 -770.385)" fill="#365da4"/>
        <path id="Path_138" data-name="Path 138" d="M505.489,498.982a1.991,1.991,0,0,1-.15.5c-.8,1.747-17.321,3.973-19.387,2.861-.922-.5-2.266-8.83-3.467-17.893-1.477-11.2-2.756-23.52-2.756-23.52s6.86,2.165,7.653,5.819.954,26.219,3.019,27.323,10.805.158,13.825.633C504.227,494.716,505.806,497.216,505.489,498.982Z" transform="translate(-378.506 -363.673)" fill="#ee9849"/>
        <path id="Path_139" data-name="Path 139" d="M425.6,333.087c-1.285-1.032-3.148-.9-4.349-.831a2.015,2.015,0,0,1,.916-.437,6.746,6.746,0,0,0-2.405.633s-6.292-3.222-9.206,5.041c0,0,.5-.633,1.192-1.334-1.688,4.754.017,11.945,5.324,13.223C420.526,350.205,438.765,343.664,425.6,333.087Z" transform="translate(-323.931 -261.795)" fill="#163560"/>
        <path id="Path_140" data-name="Path 140" d="M445.583,431.41c.034.017-3.327,1.762-5.855,1.07-2.378-.648-3.933-3.733-3.9-3.739,1.006-.2,1.3-1.585,1.277-7.531l.456.089,7.655,1.517s-.175,2.41-.179,4.678C445.03,429.395,445.148,431.207,445.583,431.41Z" transform="translate(-343.867 -332.334)" fill="#e49963"/>
        <path id="Path_141" data-name="Path 141" d="M451.7,423.147s-.175,2.41-.179,4.678c-4.285-.12-6.541-4.028-7.476-6.2Z" transform="translate(-350.346 -332.665)" fill="#d68d5d"/>
        <path id="Path_142" data-name="Path 142" d="M429.636,358.873a22.519,22.519,0,0,1-2.783-6.581c-.386-2.165.717-10.191,8.784-9.035a10.939,10.939,0,0,1,4.543,1.718c1.751,1.182,4.279,3.737,1.454,10.74l-.734,2.365Z" transform="translate(-336.734 -270.739)" fill="#163560"/>
        <path id="Path_143" data-name="Path 143" d="M448.734,375.054s-10.128.169-10.143-6.146-1.321-10.55,5.151-10.917,7.731,2.034,8.246,4.142S451.369,374.843,448.734,375.054Z" transform="translate(-345.954 -282.424)" fill="#e49963"/>
        <path id="Path_144" data-name="Path 144" d="M436.2,352.6s-2.775,7.406-7.031,8.5-6.106-.046-6.106-.046a12.057,12.057,0,0,0,3.946-7.126S434.1,349.075,436.2,352.6Z" transform="translate(-333.793 -277.189)" fill="#163560"/>
        <path id="Path_145" data-name="Path 145" d="M498.786,501.857c-.177-.72,1.342-1.266,1.713-.62a13.449,13.449,0,0,1,1.112,3.92,25.337,25.337,0,0,1,0,8.157Z" transform="translate(-393.53 -395.248)" fill="#e58638"/>
        <path id="Path_146" data-name="Path 146" d="M482.06,355.734A8.965,8.965,0,0,1,484.638,359c.506,1.608.732,4.916,1.688,4.8,0,0,2.091-5.035-.26-7.883C483.583,352.9,482.06,355.734,482.06,355.734Z" transform="translate(-380.344 -279.72)" fill="#163560"/>
        <path id="Path_147" data-name="Path 147" d="M476.42,418.949s.188.8,2.184.677c0,0,1.675-.1,1.625-.985A5.391,5.391,0,0,0,476.42,418.949Z" transform="translate(-375.894 -330.145)" fill="#fff"/>
        <path id="Path_148" data-name="Path 148" d="M522.087,578.576a1.987,1.987,0,0,1-.15.5c-.8,1.747-17.321,3.973-19.387,2.861-.922-.5-2.542-10.858-1.378-20.128,1.249,5.3,1.629,16.171,4.556,16.684C509.045,579.074,517.753,577.966,522.087,578.576Z" transform="translate(-395.104 -443.267)" fill="#e58638"/>
        <path id="Path_149" data-name="Path 149" d="M388.4,478.958c-4.108,19.8-.669,22.841-2.806,24.78-.011,0-1.9.823-1.9.844-2.226,1.929-2.281-.409-9.274,2.621a112.374,112.374,0,0,1-11.329,4.49,23.309,23.309,0,0,1-3.9.878c-2.247.264-3.925-.129-4.471-1.646-1.589-4.41,6.039-16.121,4.132-24.111-.015-.068-.032-.139-.044-.211a8.706,8.706,0,0,1-.093-2.382c.357-4.458,3.165-10.938,6.09-16.471,3.22-6.1,6.564-11.054,6.864-10.877,8.495,5.043,9.263.844,9.263.844S389.8,472.2,388.4,478.958Z" transform="translate(-279.7 -360.468)" fill="#ee9849"/>
        <path id="Path_150" data-name="Path 150" d="M384.3,560.149h0c-2.226,1.929-2.954-.131-9.949,2.9a112.33,112.33,0,0,1-11.329,4.49,24.52,24.52,0,0,0-3.9.878c-2.247.264-3.925-.129-4.471-1.646-1.589-4.41,6.039-16.121,4.131-24.111-.015-.068-.032-.139-.044-.211a7.337,7.337,0,0,1-.093-2.382c.4-3.376,2.893-7.062,5.716-12.415,1.886,1.994,16.064-.319,12.711,19.385C376.052,553.08,383.428,555.462,384.3,560.149Z" transform="translate(-279.645 -416.315)" fill="#e58638"/>
        <path id="Path_151" data-name="Path 151" d="M606.817,624.918h0a3.328,3.328,0,0,0,5.83-2.2v-1.3a3.423,3.423,0,0,0-.028-.422H606a23.084,23.084,0,0,0,.148,2.467A3.046,3.046,0,0,0,606.817,624.918Z" transform="translate(-478.133 -489.967)" fill="#c45446"/>
        <path id="Path_152" data-name="Path 152" d="M620.756,621h-.9a3.06,3.06,0,0,1,.027.422v1.3a3.34,3.34,0,0,1-2.887,3.3,3.135,3.135,0,0,0,.447.032,3.342,3.342,0,0,0,3.332-3.332v-1.3A3.374,3.374,0,0,0,620.756,621Z" transform="translate(-486.811 -489.967)" fill="#e37970"/>
        <rect id="Rectangle_15" data-name="Rectangle 15" width="2.72" height="0.407" transform="translate(132.541 136.202) rotate(180)" fill="#c45446"/>
        <path id="Path_153" data-name="Path 153" d="M487.674,685.013s3.125-.741,4.556-.158,4.292,2.066,4.026,2.859-3.655,1.22-5.085.422-2.49.211-4.237-.371S487.674,685.013,487.674,685.013Z" transform="translate(-383.699 -540.173)" fill="#e49963"/>
        <path id="Path_154" data-name="Path 154" d="M380.5,456.9s-11.527.154-13.593,5.716S365.48,487.725,368.5,493.6s20.18,13.825,22.088,14.137,3.1-2.621,3.02-2.939-18.036-14.857-17.956-16.367S380.5,456.9,380.5,456.9Z" transform="translate(-288.542 -360.493)" fill="#ee9849"/>
        <path id="Path_155" data-name="Path 155" d="M809.354,547.511a48.346,48.346,0,0,0-3.587-3.99,10.962,10.962,0,0,0-3.572-1.013c-.158.148-.167.365.177.669s1.661,1.072,1.477,1.158-4.157-1.9-4.729-1.224.325,3.408,1.853,4.722,6.094,1.876,6.381,2.059C809.793,551.459,809.354,547.511,809.354,547.511Z" transform="translate(-630.367 -428.022)" fill="#ed975d"/>
        <path id="Path_156" data-name="Path 156" d="M916.2,920.123a1.389,1.389,0,0,1-.821,1.283h0a9.842,9.842,0,0,1-4.456.485c-.232,0-.443-.017-.633-.017h-.26c-1.806.042-1.614.565-5.045.844-3.912.323-5.353-.844-5.583-1.363-.194-.449,1.477-.956,3.359-1.536l.274-.085.749-.236c2.232-.72,4.431-1.572,4.979-3.76.58-2.321-1.167-8.8-1.167-8.8l6.2-.648s.6,6.773.985,8.883a21.805,21.805,0,0,0,1.055,2.988c.021.068.042.135.061.211A6.39,6.39,0,0,1,916.2,920.123Z" transform="translate(-709.614 -715.06)" fill="#e49963"/>
        <path id="Path_157" data-name="Path 157" d="M916.216,964.528a1.388,1.388,0,0,1-.821,1.283h0a11.378,11.378,0,0,1-4.452.473h-.892c-1.806.042-1.614.566-5.045.844-3.912.323-5.353-.844-5.583-1.363-.194-.449,1.477-.956,3.359-1.536a11.954,11.954,0,0,0,6,.5c2.608-.477,5.2-1.734,7.064-2.154.021.067.042.135.061.211a6.382,6.382,0,0,1,.308,1.747Z" transform="translate(-709.63 -759.465)" fill="#c65447"/>
        <path id="Path_158" data-name="Path 158" d="M725.915,891.568c-.344,1.722-2.8,1.435-5.537.766s-2.091.127-5.99-.306-5.083-1.886-5.2-2.458c-.105-.515,1.821-.7,3.889-.935l.783-.093c2.334-.293,4.043-1.8,6.163-3.036,2.009-1.171,5-5.946,5-5.946l5.351.422s-2.808,4.264-3.893,6.119a6.509,6.509,0,0,0-.525,3.646A6.9,6.9,0,0,1,725.915,891.568Z" transform="translate(-559.542 -693.971)" fill="#e49963"/>
        <path id="Path_159" data-name="Path 159" d="M720.378,926.269c-2.743-.671-2.091.127-5.99-.306s-5.083-1.886-5.2-2.458c-.105-.515,1.821-.7,3.889-.935l.019.04a11,11,0,0,0,5.587,1.739c2.646.063,5.45-.694,7.277-.665a6.9,6.9,0,0,1-.042,1.829C725.571,927.225,723.119,926.938,720.378,926.269Z" transform="translate(-559.542 -727.905)" fill="#c65447"/>
        <path id="Path_160" data-name="Path 160" d="M885.65,742.282,897.181,773.3a10.55,10.55,0,0,0,3.469-.319A14.927,14.927,0,0,0,904,771.347s-2.859-29.775-8.1-35.978S885.65,742.282,885.65,742.282Z" transform="translate(-698.776 -578.89)" fill="#365da4"/>
        <path id="Path_161" data-name="Path 161" d="M839.691,680.647s-33.127-11.2-40.512-8.82-29.578,46.52-29.578,46.52a4.279,4.279,0,0,0,1.867,1.18,17.567,17.567,0,0,0,4.347.445s20.022-17.161,22.4-22.155,3.338-9.774,5.72-9.3,30.747,11.679,37.181,5,4.754-15.344,4.754-15.344Z" transform="translate(-607.213 -529.808)" fill="#466aa5"/>
        <path id="Path_162" data-name="Path 162" d="M994.1,362.536a18.8,18.8,0,0,1-1.409-6.49c.044.342.633,4.705,2.321,7.174,6.889,4.524,20.1,19.623,19.834,22.491,0,0,4.642-7.891,4.733-7.938,0,0,8.579-10.911-1.589-17.161-5.17-3.178-5.142-7.254-4.927-10.795s-1.41-18.779-11.763-14.8a6.836,6.836,0,0,0-2.406-.633,2.029,2.029,0,0,1,.916.435,8.024,8.024,0,0,0-4.349.831C991.66,337.815,988.263,357.166,994.1,362.536Z" transform="translate(-781.865 -263.81)" fill="#b74b42"/>
        <path id="Path_163" data-name="Path 163" d="M1012.059,434.052c-.034.015,3.327,1.76,5.855,1.068,2.378-.648,3.933-3.731,3.9-3.739-1.006-.2-1.3-1.583-1.266-7.531l-.454.091-7.657,1.515s.175,2.41.181,4.68C1012.612,432.041,1012.5,433.847,1012.059,434.052Z" transform="translate(-798.512 -334.417)" fill="#e49963"/>
        <path id="Path_164" data-name="Path 164" d="M1013.8,425.795s.175,2.41.182,4.68c4.283-.122,6.541-4.03,7.476-6.2Z" transform="translate(-799.886 -334.756)" fill="#d68d5d"/>
        <path id="Path_165" data-name="Path 165" d="M1004.223,361.513a22.534,22.534,0,0,0,2.785-6.581c.384-2.165-.72-10.191-8.786-9.035a10.939,10.939,0,0,0-4.543,1.718c-1.751,1.184-4.279,3.737-1.454,10.74l.734,2.367Z" transform="translate(-781.862 -272.822)" fill="#b74b42"/>
        <path id="Path_166" data-name="Path 166" d="M994.407,377.7s10.128.167,10.141-6.146,1.321-10.55-5.151-10.917-7.733,2.034-8.24,4.14S991.775,377.5,994.407,377.7Z" transform="translate(-781.927 -284.514)" fill="#e49963"/>
        <path id="Path_167" data-name="Path 167" d="M1008.8,355.218s2.777,7.408,7.035,8.5,6.106-.046,6.106-.046A12.057,12.057,0,0,1,1018,356.55S1010.893,351.7,1008.8,355.218Z" transform="translate(-795.941 -279.257)" fill="#b74b42"/>
        <path id="Path_168" data-name="Path 168" d="M992.87,358.376a8.946,8.946,0,0,0-2.576,3.262c-.5,1.608-.734,4.918-1.7,4.8,0,0-2.091-5.035.26-7.881C991.347,355.54,992.87,358.376,992.87,358.376Z" transform="translate(-779.323 -281.806)" fill="#b74b42"/>
        <path id="Path_169" data-name="Path 169" d="M894.571,489.46c1-4.19-2.4-12.325-5.952-19.06-3.22-6.1-6.564-11.054-6.864-10.877-8.495,5.043-9.263.844-9.263.844s-7.714,1.026-9.9,4.788c-3.022,5.2-6.313,20.807-9.548,20.577-1.477-.108-16.42-5.72-16.42-5.72s-2.488,2.332-2.011,5.191a157.534,157.534,0,0,0,13.612,8.09c3.3,1.667,6.279,2.834,7.68,2.5,2.842-.669,7.28-7.254,9.677-11.133l.017-.025c3.06,17.323-1.1,21.269,1.007,23.1,2.224,1.929,5.4-.918,12.392,2.11,4.587,1.99,10.951,4.866,15.234,5.366,2.247.264,3.925-.127,4.471-1.644C900.3,509.163,892.672,497.452,894.571,489.46Z" transform="translate(-658.459 -362.559)" fill="#699dee"/>
        <path id="Path_170" data-name="Path 170" d="M1003.454,421.592s-.188.8-2.184.677c0,0-1.675-.1-1.625-.983A5.382,5.382,0,0,1,1003.454,421.592Z" transform="translate(-788.717 -332.231)" fill="#fff"/>
        <path id="Path_171" data-name="Path 171" d="M1063.438,583.488c-.546,1.517-2.224,1.9-4.471,1.644-2.965-1.291-15.775-6.254-15.631-9.618.211-4.978,2.462-5.136.874-11.28-1.266-4.935,10.55-14.11,12.449-16.1,3.551,6.735,3.648,7.054,2.65,11.244C1057.4,567.367,1065.027,579.078,1063.438,583.488Z" transform="translate(-823.188 -432.473)" fill="#3b76ca"/>
        <path id="Path_172" data-name="Path 172" d="M916.737,575.51c-2.4,3.878-6.834,10.464-9.677,11.133-1.4.331-4.383-.844-7.68-2.5a19.963,19.963,0,0,0,7.018.384c2.462-.238,3.178-3.258,7.071-7.786C915.994,573.8,916.615,574.542,916.737,575.51Z" transform="translate(-709.609 -453.401)" fill="#3b76ca"/>
        <path id="Path_173" data-name="Path 173" d="M990.714,618.1a2.18,2.18,0,0,0-1.361-.025v-.633a3.388,3.388,0,0,0-.028-.422h-6.608a3.388,3.388,0,0,0-.027.422v1.3a3.327,3.327,0,0,0,5.83,2.2h0a5.225,5.225,0,0,0,2.066-.973C991.077,619.379,991.238,618.423,990.714,618.1Zm-.35,1.2c-.167.422-.916.663-1.285.753a3.28,3.28,0,0,0,.266-1.1.964.964,0,0,1,.844-.447C990.444,618.558,990.575,618.755,990.364,619.3Z" transform="translate(-775.34 -486.827)" fill="#c45446"/>
        <path id="Path_174" data-name="Path 174" d="M985.248,617.422v1.3a3.342,3.342,0,0,0,3.323,3.33,3.134,3.134,0,0,0,.447-.032,3.341,3.341,0,0,1-2.882-3.3v-1.3a3.032,3.032,0,0,1,.028-.422h-.9A3.409,3.409,0,0,0,985.248,617.422Z" transform="translate(-777.358 -486.811)" fill="#e37970"/>
        <rect id="Rectangle_16" data-name="Rectangle 16" width="2.72" height="0.407" transform="translate(209.319 134.947)" fill="#c45446"/>
        <path id="Path_175" data-name="Path 175" d="M1011.274,618.911s-2.144-1.669-4.171-1.266-3.02,1.787-2.939,2.422a3.619,3.619,0,0,0,2.7,2.583c1.549.16,5.959-.954,5.959-.954Z" transform="translate(-792.279 -487.271)" fill="#e49963"/>
        <path id="Path_176" data-name="Path 176" d="M1039.168,459.54s8.261.511,11.12,4.5c4.026,5.615,11.019,28.536,9.111,33.779,0,0-7.841.825-13.443.825-2.922,0-11.689-.93-11.689-.93s-.61-2.846.238-4.22,14.618-3.6,15.253-4.237-7.944-12.394-7.944-14.3S1039.168,459.54,1039.168,459.54Z" transform="translate(-815.867 -362.576)" fill="#699dee"/>
        <path id="Path_177" data-name="Path 177" d="M611.753,650.93H499.377a2.184,2.184,0,0,0-2.177,2.18v2.844a2.184,2.184,0,0,0,2.177,2.177h54.3V713.19c-9.554.382-17.688,3.661-21.007,8.119h45.644c-3.3-4.475-11.3-7.733-20.86-8.119V658.131h54.3a2.184,2.184,0,0,0,2.18-2.177V653.11A2.186,2.186,0,0,0,611.753,650.93Z" transform="translate(-392.29 -513.582)" fill="#2b478b"/>
        <path id="Path_178" data-name="Path 178" d="M1534.172,692.91h-75.094a1.674,1.674,0,0,0-1.669,1.669v2.954a1.673,1.673,0,0,0,1.669,1.669h35.9v48.13c-8.339.331-15.333,3.165-18.235,7.058l39.77.04c-2.878-3.912-9.881-6.752-18.233-7.1V699.2h35.9a1.673,1.673,0,0,0,1.669-1.669v-2.954a1.673,1.673,0,0,0-1.669-1.671Z" transform="translate(-1149.893 -546.704)" fill="#2b478b"/>
        <path id="Path_179" data-name="Path 179" d="M87.216,495.006c-2.88.722-21.347.481-20.868,2.88s12.953,6.237,19.908,4.077c0,0-7.676,18.948-17.75,17.99s-13.192-7.191-19.431-7.674-10.791,1.2-7.664,2.876,13.671.553,18.707,4.832,9.115,6.923-.238,8.841a48.945,48.945,0,0,1-20.659-.614,89.606,89.606,0,0,1-1.547-22.44q.116-1.77.323-3.538a59.336,59.336,0,0,1,11.913-29.986c4.009-1.293,7.9-2.2,10.44-1.952,0,0-11.755,19.91-7.915,19.431S69.475,469.1,69.475,469.1s19.427-3.587,22.546,7.917S90.094,494.289,87.216,495.006Z" transform="translate(-29.596 -369.702)" fill="#6bb7bf"/>
        <path id="Path_180" data-name="Path 180" d="M83.664,525.74c-24.687,9.991-38.16,18.48-45.414,25.139q.116-1.77.323-3.538C54.7,535.3,82.231,526.217,83.664,525.74Z" transform="translate(-30.179 -414.808)" fill="#599dad"/>
        <path id="Path_181" data-name="Path 181" d="M54.291,788.061c-.844-2.625-1.606-5.34-2.291-8.124l.173-.188s8.284,2.988,10.25,5.421C62.424,785.171,55.283,786.941,54.291,788.061Z" transform="translate(-41.028 -615.221)" fill="#599dad"/>
        <path id="Path_182" data-name="Path 182" d="M78.931,825.762c-2.532,4.311-5.724,4.494-6.782,3.849-.844-.521-4.463-4.22-6.153-5.229q-.8-2.11-1.553-4.332c-.076-.211-.15-.447-.226-.675q-.268-.8-.528-1.61c1.8.77,10.991-1.055,10.991-1.055S81.456,821.453,78.931,825.762Z" transform="translate(-50.251 -644.382)" fill="#599dad"/>
        <path id="Path_183" data-name="Path 183" d="M77.19,834.153a111.915,111.915,0,0,0-10.774-4.1c-.076-.211-.15-.448-.226-.675A100.235,100.235,0,0,1,77.19,834.153Z" transform="translate(-52.224 -654.379)" fill="#599dad"/>
        <path id="Path_184" data-name="Path 184" d="M1551.246,939.8s4.467,4.465,5.575,5.558,5.275.614,6.408,3.84H1551.9a12.525,12.525,0,0,0-7.174-1.95s-.831-3.085,0-4.279a9.068,9.068,0,0,0,1.137-3.165Z" transform="translate(-1218.495 -741.5)" fill="#a53934"/>
        <path id="Path_185" data-name="Path 185" d="M1546.14,974.674l.572,1.95h4.009v-1.65A11.076,11.076,0,0,0,1546.14,974.674Z" transform="translate(-1219.901 -768.926)" fill="#a53934"/>
        <path id="Path_186" data-name="Path 186" d="M1544.359,783.48s-.211,21.17,1.506,32.984h5.374l3.8-22.307Z" transform="translate(-1218.489 -618.164)" fill="#233862"/>
        <path id="Path_187" data-name="Path 187" d="M1398.91,777.842h-5.374c-.257-.268-16.741-17.355-19.315-28.091a28.788,28.788,0,0,0-3.393-.057c-.54.025-1.108.068-1.671.137-2.494.312-35.178,1.509-36.894-.211s-1.026-11.588-1.026-11.588l3.211-1.7,3.4-1.8s37.693.593,41.622,3.555S1392.595,760.77,1398.91,777.842Z" transform="translate(-1050.235 -579.542)" fill="#365da4"/>
        <path id="Path_188" data-name="Path 188" d="M1626.716,939.8s4.467,4.477,5.575,5.577,5.264.614,6.408,3.851h-11.327a12.5,12.5,0,0,0-7.174-1.956s-.831-3.093,0-4.292a9.2,9.2,0,0,0,1.144-3.18Z" transform="translate(-1278.041 -741.5)" fill="#b64c41"/>
        <path id="Path_189" data-name="Path 189" d="M1621.59,974.675l.572,1.95h4.009v-1.65A11.075,11.075,0,0,0,1621.59,974.675Z" transform="translate(-1279.431 -768.926)" fill="#b64c41"/>
        <path id="Path_190" data-name="Path 190" d="M1370.788,756.415c-.541.025-1.108.067-1.671.137-2.494.312-35.178,1.509-36.894-.211s-1.025-11.588-1.025-11.588l3.211-1.7,5.4,2.289S1339.008,755.535,1370.788,756.415Z" transform="translate(-1050.203 -586.265)" fill="#2d427c"/>
        <path id="Path_191" data-name="Path 191" d="M1388.433,586.472a3.085,3.085,0,0,0-2.642-2.188,10.939,10.939,0,0,0-3.2.258,7.576,7.576,0,0,1-3.568-.384s-8.168-2.84-10.08-4.03c-4.1-2.549-11.506-19.081-14.029-17.064,0,0-3.26,3.076-1.477,8.368s8.862,12.576,13.164,13.751c3.165.869,11.466,1.331,12.565,1.39,1.369.175,3.228.969,3.726,1.007.549.044,1.775-.772,2.623-.652C1388.615,587.365,1388.433,586.472,1388.433,586.472Z" transform="translate(-1067.437 -444.122)" fill="#ea8e50"/>
        <path id="Path_192" data-name="Path 192" d="M1330.7,532.8a74.135,74.135,0,0,1-10.339-.728c.591-.99,1.3-3.836,1.5-7.765v-.015l1.192.063,5.642.3a2.154,2.154,0,0,1-.017.226c-.053.762-.211,3.252-.192,4.655a6.032,6.032,0,0,0,.375,1.76C1329.469,531.825,1330.087,532.316,1330.7,532.8Z" transform="translate(-1041.761 -413.663)" fill="#ffb07b"/>
        <path id="Path_193" data-name="Path 193" d="M1291.535,440.531c-.082-.323-1.118-3.8-6.526-2.787,0,0,2.709-.27,3.422.789,0,0-2.11-1.034-3.477-.249s-1.652,3.541-1.477,4.387,1.6,3.376,2.576,3.41a2.9,2.9,0,0,0,1.125-.249,12.838,12.838,0,0,0-.437,1.447c-1.167,4.872,1.994,8.679,3.7,7.807,1.1-.563,1.865,1.348,1.865,1.348l9.271-11.651S1295.529,437.11,1291.535,440.531Z" transform="translate(-1012.623 -345.233)" fill="#2c3a64"/>
        <path id="Path_194" data-name="Path 194" d="M1333.911,529.338c-3.42-.405-5.6-3.41-6.625-5.233l-.036-.065,1.23.116,5.625.528C1334.053,525.443,1333.884,527.935,1333.911,529.338Z" transform="translate(-1047.197 -413.466)" fill="#ea8e50"/>
        <path id="Path_195" data-name="Path 195" d="M1331.646,485.91s-8-.074-7.881-5.064-.825-8.349,4.29-8.512,6.06,1.762,6.423,3.435S1333.73,485.8,1331.646,485.91Z" transform="translate(-1044.446 -372.663)" fill="#ffb07b"/>
        <path id="Path_196" data-name="Path 196" d="M1324.564,469.157c-1.2-1.53-2.142-1.226-2.676-.789a5.6,5.6,0,0,0-7.221.966,9.519,9.519,0,0,1-3.258,5.543s1.435.937,4.819.16a5.724,5.724,0,0,0,2.771-1.808,18.711,18.711,0,0,1-3.313,3.84c4.062-1.753,5.82-7.3,5.995-7.883a6.323,6.323,0,0,1,1.688,2.372c.367,1.279.479,3.895,1.243,3.825C1324.616,475.377,1326.359,471.452,1324.564,469.157Z" transform="translate(-1034.699 -368.821)" fill="#2c3a64"/>
        <path id="Path_197" data-name="Path 197" d="M1391.678,608.39s5.144,6.649,6.313,6.752.622,4.53,0,5.67-4.627,3.587-7.185.954S1391.678,608.39,1391.678,608.39Z" transform="translate(-1096.595 -480.018)" fill="#a53934"/>
        <path id="Path_198" data-name="Path 198" d="M1323.49,586.869c-3.819.544-10.485,1.013-11.791,3.117s-9.6.633-10.286-.7,1.422-12.1.331-13.926a140.3,140.3,0,0,1-5.125-13.262,28.643,28.643,0,0,1-.886-2.918c-.26-1.591-1.241-7.309,2.7-8.987,0,0,1.9-.819,2.066-1.494a3.784,3.784,0,0,0,.044-.69h0c0-.911-.017-2.159.871-1.8,1.161.466,2.391,1.61,4.374,1.5s3.7-.985,3.958-.422-.462,1.334,0,1.709,6.263,3.893,8.054,9.029a22.412,22.412,0,0,1,1.456,6.811v.73a44.847,44.847,0,0,0-.023,5.528q.013.135.031.272c.291,2.163.608,4.207.931,5.788a7.95,7.95,0,0,0,.966,2.988C1322.709,581.725,1327.309,586.322,1323.49,586.869Z" transform="translate(-1022.094 -430.906)" fill="#b64c41"/>
        <path id="Path_199" data-name="Path 199" d="M1347.37,598a9.51,9.51,0,0,0-.633-1.247,10.152,10.152,0,0,0-3.015-2.7c-.781-.207-4.6.857-4.6.857s-15.013.2-17.408-1.266c-3.116-1.918-10.689-9.852-15.96-13.9-2.511-1.931-4.5-2.977-5.235-2.072,0,0-2.007,1.927.519,6.685q.211.4.466.825c3.224,5.362,15.614,15.692,20.583,16.036s17.591-3.9,17.591-3.9a2.762,2.762,0,0,1,1.99.16c.675.519,3.285.422,3.656.779C1346.026,598.922,1347.539,598.514,1347.37,598Z" transform="translate(-1025.513 -455.518)" fill="#ffb07b"/>
        <path id="Path_200" data-name="Path 200" d="M1316.13,647.327c-1.3,2.11-9.6.633-10.286-.7s1.422-12.1.331-13.926a140.393,140.393,0,0,1-5.125-13.261.872.872,0,0,1,1.072-.58c3.357.922,19.269,13.148,22.495,15.646a8.051,8.051,0,0,0,.966,2.988S1315.643,641.482,1316.13,647.327Z" transform="translate(-1026.525 -488.248)" fill="#a53934"/>
        <path id="Path_201" data-name="Path 201" d="M1343.979,611.725c-4.88-2.076-16.994-13.819-17.169-13.987.139.049,4.047-1.688,13.5,6.919a15.677,15.677,0,0,1,3,3.891A12.129,12.129,0,0,1,1343.979,611.725Z" transform="translate(-1046.85 -471.525)" fill="#a53934"/>
        <path id="Path_202" data-name="Path 202" d="M1299.647,577.033a11.138,11.138,0,0,1,4.729,2.165c2.34,1.819,14.019,13.228,15.973,13.715s6.161.253,6.119,1.477-.986,7.259-2.232,8.349-7.847,1.61-10.7-.211-17.053-18.914-16.169-22.607S1299.647,577.033,1299.647,577.033Z" transform="translate(-1023.584 -455.22)" fill="#b64c41"/>
        <path id="Path_203" data-name="Path 203" d="M1314.862,557.184a28.43,28.43,0,0,0-5.222,0s1.9-.819,2.066-1.494a3.817,3.817,0,0,0,.044-.69c.2.821.812,1.209,2.45,1.287S1316.109,557.494,1314.862,557.184Z" transform="translate(-1033.303 -437.894)" fill="#a53934"/>
        <path id="Path_204" data-name="Path 204" d="M1554.775,834.049h0c-.257-.268-16.741-17.355-19.315-28.091,0,0,4.049-1.125,6.491,2.1S1554.775,834.049,1554.775,834.049Z" transform="translate(-1211.474 -635.75)" fill="#2d427c"/>
        <path id="Path_205" data-name="Path 205" d="M2454.026,522.375a3.093,3.093,0,0,0,.156-.905c.118-3.868,1-6.438-2.954-6.784s-4.775,1.11-5.129,2.391.152,7.807,1.763,7.98a11.162,11.162,0,0,0,1.266-.036c.034.422.093,1.161.16,1.973.129,1.549.281,3.363.325,3.781l4.381-.211,2.321-2.882A12.648,12.648,0,0,1,2454.026,522.375Z" transform="translate(-1929.881 -406.046)" fill="#e49963"/>
        <path id="Path_206" data-name="Path 206" d="M2413.493,741.732a36.483,36.483,0,0,1-2.882,4.123c-3.165,4.009-6.621,7.3-7.222,10.422a13.793,13.793,0,0,1-.557,2c-.251.713-.561,1.464-.92,2.243a69.025,69.025,0,0,1-5.366,9.172c-3.473,5.146-6.737,9.438-6.737,9.438l-5.989-.255c.239-.6,2.851-7.706,6.345-16.388,1.42-3.524,2.928-7.273,4.382-10.89l.58-1.439,1.31-3.258,5.9-14.644s13.112-4.967,14.475-1.749C2417.931,733.161,2417.015,735.76,2413.493,741.732Z" transform="translate(-1880.828 -575.51)" fill="#163560"/>
        <path id="Path_207" data-name="Path 207" d="M2365.887,954.732s-.306,4.942-1.266,5.011c-.127.01-4.853.01-4.853.01l-6.028-.036a1.958,1.958,0,0,1,1.8-1.76c1.762-.308,4.71-1.545,5.777-3.874C2362.446,951.634,2365.887,954.732,2365.887,954.732Z" transform="translate(-1857.095 -752.026)" fill="#163560"/>
        <path id="Path_208" data-name="Path 208" d="M2465.284,892.94s4.165,2.677,3.762,3.547c-.055.114-2.357,4.237-2.357,4.237l-2.969,5.248a1.957,1.957,0,0,1-.658-2.431c.591-1.688.948-4.868-.566-6.934C2460.912,894.43,2465.284,892.94,2465.284,892.94Z" transform="translate(-1942.63 -704.527)" fill="#163560"/>
        <path id="Path_209" data-name="Path 209" d="M2450.786,566.827c.095-.036,5.921-1.428,6.541-1.19s.918,1.462.918,1.462l-9.5,1.633A4.637,4.637,0,0,1,2450.786,566.827Z" transform="translate(-1932.058 -446.265)" fill="#e58638"/>
        <path id="Path_210" data-name="Path 210" d="M2445.492,508.026s1.534,4.281,2.389,3.853,1.642-.785,1.857.572-.644,3.211,2.211,2.711,4.977-8.757,3.853-9.917C2452.557,501.89,2441.032,504.065,2445.492,508.026Z" transform="translate(-1928.689 -397.334)" fill="#163560"/>
        <path id="Path_211" data-name="Path 211" d="M2452.859,606.206c-1.568,1.85-14.9,1.367-18.8-.194a2.827,2.827,0,0,1-.688-.369c-2.3-1.838,2.886-3.452-2.91-17.456v-.021c-3.642-10.367,1.154-13.376,2.836-14.905,0,0,8.14-2.473,12.582-1.1C2451.633,573.948,2454.542,604.214,2452.859,606.206Z" transform="translate(-1916.573 -451.106)" fill="#ee9849"/>
        <path id="Path_212" data-name="Path 212" d="M2443.822,657.495c-.264,1.9-1.8,6.611-4.786,6.68a2.829,2.829,0,0,1-.688-.369c-2.3-1.838,2.886-3.452-2.91-17.456,0-.007,0-.014,0-.021.971-.665,2.532-1.42,3.56-.266C2440.556,647.831,2444.094,655.522,2443.822,657.495Z" transform="translate(-1921.555 -509.27)" fill="#e58638"/>
        <path id="Path_213" data-name="Path 213" d="M2381.3,732.38s-16.229,10.1-18.066,17,21.894,21.588,21.894,21.588,2.6-2.3,3.062-3.982c0,0-10.725-12.852-13.053-15.732-1.428-1.768,21.13-6.119,23.885-10.411a10.491,10.491,0,0,0,1.771-7.894Z" transform="translate(-1864.503 -577.846)" fill="#1c468a"/>
        <path id="Path_214" data-name="Path 214" d="M2325.022,689.6s-2.488-1.068-3.3-.561a9.944,9.944,0,0,0-2.385,2.8c-.168.445-.229,1.089.557.952s.844-.133.844-.133a7.769,7.769,0,0,1,1.637-1.066c.314-.011,1.658.6,2.3-.131A2.269,2.269,0,0,0,2325.022,689.6Z" transform="translate(-1829.865 -543.544)" fill="#e49963"/>
        <path id="Path_215" data-name="Path 215" d="M2363.451,580.41s-2.42,1.3-4.144,5.511c-1.781,4.359-4.144,14.137-4.8,14.559s-10.426,1.967-13.337,3.1c0,0-1.141,2.049-.061,2.895s14.173.382,14.966.175c6.608-1.711,10.082-14.751,10.869-16.754S2363.451,580.41,2363.451,580.41Z" transform="translate(-1846.766 -457.942)" fill="#ee9849"/>
        <path id="Path_216" data-name="Path 216" d="M2471.6,836.549v-6.9h7.049a.5.5,0,0,0,.5-.5v-1.878a.5.5,0,0,0-.5-.5H2471.6v-22.25a1.332,1.332,0,0,0-1.327-1.327h-1.424a1.334,1.334,0,0,0-1.329,1.327v22.25h-7.05a.5.5,0,0,0-.5.5v1.878a.5.5,0,0,0,.5.5h7.041v6.9c-5.205.393-9.658,2.471-10.829,4.893h25.458C2480.977,839.02,2476.805,836.942,2471.6,836.549Z" transform="translate(-1938.314 -633.715)" fill="#163560"/>
        <rect id="Rectangle_17" data-name="Rectangle 17" width="36.134" height="9.187" rx="4.594" transform="translate(513.175 167.553)" fill="#ee9849"/>
        <path id="Path_217" data-name="Path 217" d="M731.384,612.28,731.3,614.3l-.184,4.214-.084,1.941h-5.349l-.122-1.941-.262-4.214-.124-2.015Z" transform="translate(-572.157 -483.087)" fill="#c45446"/>
        <path id="Path_218" data-name="Path 218" d="M730.436,605.83H724.1l-.262,1.361h6.773Z" transform="translate(-571.108 -477.998)" fill="#dde3f2"/>
        <path id="Path_219" data-name="Path 219" d="M731.761,621.83l-.184,4.214h-5.556l-.262-4.214Z" transform="translate(-572.623 -490.622)" fill="#e37970"/>
        <path id="Path_220" data-name="Path 220" d="M777.76,613.648l-.036.827-.028.61-.169,3.882-.015.331-.084,1.941h-5.349l-.12-1.941-.021-.331-.243-3.882-.038-.61-.068-1.1.015-.036a3.319,3.319,0,0,1,2,.251c.749.477,1.564-.454,2.245-.181s.726.612,1.266.386A2.667,2.667,0,0,1,777.76,613.648Z" transform="translate(-608.783 -483.882)" fill="#e37970"/>
        <path id="Path_221" data-name="Path 221" d="M777.714,612.28l-.025.576-.036.829-.027.61-.169,3.882-.015.331-.085,1.941h-5.349l-.12-1.941-.021-.331-.243-3.882-.038-.61-.067-1.1-.019-.306Z" transform="translate(-608.712 -483.087)" fill="#e37970" opacity="0.2"/>
        <path id="Path_222" data-name="Path 222" d="M777.825,600.279v-.1a3.112,3.112,0,0,0-6.225,0v.1Z" transform="translate(-608.791 -471.087)" fill="#e37970" opacity="0.2"/>
        <path id="Path_223" data-name="Path 223" d="M782.79,594.961l-.27-.034c.015-.169.886-11.685,1.021-12.449a1.477,1.477,0,0,1,1-1.106h.015l4.355-.772.046.268-4.347.77a1.2,1.2,0,0,0-.806.891C783.676,583.278,782.794,594.921,782.79,594.961Z" transform="translate(-617.406 -458.092)" fill="#c45446"/>
        <path id="Path_224" data-name="Path 224" d="M777.976,618.94l-.027.61-.169,3.882h-5.589l-.243-3.882-.038-.61Z" transform="translate(-609.035 -488.342)" fill="#c45446"/>
        <path id="Path_225" data-name="Path 225" d="M681.35,629.026c.017-.053,0-.958,1.528-1.285s1.07-1.091,1.07-1.091,2.222,1.084,1.781,2.376S681.35,629.026,681.35,629.026Z" transform="translate(-537.584 -494.425)" fill="#dde3f2"/>
        <path id="Path_226" data-name="Path 226" d="M682.632,638.873h-4.484l-.768-3.243H683.3Z" transform="translate(-534.451 -501.51)" fill="#e37970"/>
        <path id="Path_227" data-name="Path 227" d="M1677.316,647.74h-6.334l-.262,1.361H1671l.124,2.015.264,4.214.121,1.941h5.349l.084-1.941.183-4.214.089-2.015h.281Z" transform="translate(-1318.194 -511.065)" fill="#365da4"/>
        <path id="Path_228" data-name="Path 228" d="M1627.7,668.56s.458.764-1.07,1.091a1.962,1.962,0,0,0-1.365.8h-1l.768,3.243h4.484l.669-3.243h-.656C1629.387,669.387,1627.7,668.56,1627.7,668.56Z" transform="translate(-1281.537 -527.492)" fill="#365da4"/>
        <path id="Path_229" data-name="Path 229" d="M1507.433,622.767a.494.494,0,0,0-.633.293l-4.91,13.5h-14.348a.492.492,0,0,0,0,.981h14.715a.492.492,0,0,0,.477-.437l4.986-13.715A.489.489,0,0,0,1507.433,622.767Z" transform="translate(-1173.304 -491.338)" fill="#a53934"/>
        <path id="Path_230" data-name="Path 230" d="M2932.084,762.412s-8.594-4.813-4.583-11.346c0,0,3.209-4.009,6.647-5.043,0,0-1.834,9.74,0,9.97s1.266-11,1.266-11,9.054-4.355,12.6-4.009c0,0-5.615,9.512-3.781,9.284s8.136-9.856,8.136-9.856,9.284-1.718,10.773,3.783-.918,8.25-2.293,8.594-10.2.23-9.97,1.376,6.189,2.979,9.511,1.948c0,0-3.667,9.054-8.48,8.6s-6.3-3.437-9.284-3.667-5.157.572-3.667,1.376,6.542.262,8.94,2.308,4.355,3.306-.114,4.22-12.494.344-14.1-3.1Z" transform="translate(-2308.95 -583.982)" fill="#466aa5"/>
        <path id="Path_231" data-name="Path 231" d="M2963.08,767.41s-24.067,7.794-26.818,16.5a18.261,18.261,0,0,1-2.292,8.366h0a16.166,16.166,0,0,0-2.241,7.716h1.384a18.542,18.542,0,0,1,.942-6.189h0c0-.017.014-.032.02-.049.065-.148.159-.357.275-.608v-.013c.281-.547.471-.954.589-1.249h0c.857-1.757,2.091-4.043,2.915-4.524C2937.867,787.352,2932.48,779.787,2963.08,767.41Z" transform="translate(-2313.127 -605.485)" fill="#325384"/>
        <path id="Path_232" data-name="Path 232" d="M2823.407,817.8s6.522-3.65,3.479-8.607c0,0-2.435-3.043-5.043-3.825,0,0,1.391,7.385,0,7.564s-.958-8.347-.958-8.347-6.868-3.3-9.562-3.043c0,0,4.26,7.216,2.869,7.043s-6.174-7.478-6.174-7.478-7.041-1.3-8.172,2.87.7,6.258,1.739,6.52,7.738.175,7.564,1.042-4.7,2.262-7.216,1.477c0,0,2.783,6.868,6.433,6.52s4.781-2.608,7.043-2.781,3.912.435,2.781,1.042-4.957.2-6.782,1.751-3.3,2.509.087,3.205,9.478.26,10.7-2.349Z" transform="translate(-2208.791 -631.921)" fill="#466aa5"/>
        <path id="Path_233" data-name="Path 233" d="M2838.769,842.761h.768a10.707,10.707,0,0,0-1.055-2.285,13.883,13.883,0,0,1-1.739-6.347c-2.084-6.607-20.343-12.519-20.343-12.519,23.21,9.39,19.127,15.127,19.127,15.127.633.365,1.557,2.1,2.207,3.429v.011h0c.093.226.24.54.458.968h0l.2.435A8.486,8.486,0,0,1,2838.769,842.761Z" transform="translate(-2222.133 -648.248)" fill="#325384"/>
        <path id="Path_234" data-name="Path 234" d="M2879.538,928.559a14.049,14.049,0,0,0,14.049-14.049h-28.1A14.049,14.049,0,0,0,2879.538,928.559Z" transform="translate(-2260.865 -721.546)" fill="#77a4e5"/>
        <path id="Path_235" data-name="Path 235" d="M2889.4,928.451a14.055,14.055,0,0,1-15.792-13.941h3.49a14.049,14.049,0,0,0,12.3,13.941Z" transform="translate(-2267.271 -721.546)" fill="#7cace5"/>
        <path id="Path_236" data-name="Path 236" d="M2892.715,977.994H2864.23a1.734,1.734,0,0,1,1.734-1.734h25.014a1.734,1.734,0,0,1,1.734,1.734Z" transform="translate(-2259.87 -770.267)" fill="#77a4e5"/>
        <rect id="Rectangle_18" data-name="Rectangle 18" width="28.878" height="0.43" transform="translate(604.163 192.964)" fill="#466aa5"/>
      </g>
    </g>
  </g>
</svg>
