<svg xmlns="http://www.w3.org/2000/svg" viewBox="0 0 165.36 223.9"><defs><style>.cls-1{fill:#fff;}</style></defs><g id="Layer_2" data-name="Layer 2"><g id="Ñëîé_1" data-name="Ñëîé 1"><path class="cls-1" d="M88,131.46l77.39-96.4h-33A14.09,14.09,0,0,0,126,27.79C129.3,19.72,137.86,6,159.25,3.56L159.54,0c-23.9,2.14-33.18,17.82-36.68,26.54a13.82,13.82,0,0,0-3.55-.47,14.08,14.08,0,0,0-13.11,9H0l77.4,96.4V211c-11.22.28-22.74,8-36.89,10.21v2.72h84.34v-2.72C110.66,219,99.11,211.28,88,211ZM82.08,41.67h23.24a14.06,14.06,0,0,0,28,0H149.1L126.89,70H38.26l-22-28.31Z"/></g></g></svg>