<svg xmlns="http://www.w3.org/2000/svg" viewBox="0 0 190.39 190.77"><defs><style>.cls-1{fill:#fff;fill-rule:evenodd;}</style></defs><g id="Layer_2" data-name="Layer 2"><g id="Ñëîé_1" data-name="Ñëîé 1"><path class="cls-1" d="M95.19,0a95.39,95.39,0,1,0,95.2,95.39A95.29,95.29,0,0,0,95.19,0Zm0,180a84.59,84.59,0,1,1,84.42-84.58A84.5,84.5,0,0,1,95.19,180ZM107.7,114c-.61,1.6-1.16,3-1.61,4-1.8-1.33-3.49-2.53-5-3.55a9.22,9.22,0,0,0-5.73,6.6l0,0-.13,0-.12,0,0,0a9.22,9.22,0,0,0-5.73-6.6c-1.53,1-3.22,2.22-5,3.55-.45-1-1-2.45-1.61-4C70,123.86,47.36,145.63,48.3,152.68a1.16,1.16,0,0,0,.13.91c.69.65,1.38,1.27,2.07,1.88a49.63,49.63,0,0,0,4.85,3.88,65.36,65.36,0,0,0,39.84,12.51A65.37,65.37,0,0,0,135,159.35a50.86,50.86,0,0,0,4.85-3.88c.69-.61,1.38-1.23,2.06-1.88a1.12,1.12,0,0,0,.14-.91C143,145.63,120.41,123.86,107.7,114ZM81.51,137.29c-1.09,2.7-2.9,7.5-5.83,8.82s-8.09-1.89-7.92-4.77c.19-3.15,5.58-6.16,9.44-7.76C79.92,132.45,83.46,132.51,81.51,137.29Zm18.71,14.82c-.87,2.92-6.58,4.53-8.57,2.32-2.19-2.42-.94-8.55.37-12.52.92-2.81,3.23-5.35,5.49-.46C98.78,144.2,101.14,149,100.22,152.11Zm16.61-5.37c-3.17-.36-6.51-5.93-8.33-9.88-1.29-2.78-1.44-6.31,3.47-4.1,2.76,1.25,7.68,3.32,9.18,6.33C122.56,141.93,119.72,147.07,116.83,146.74ZM82.69,76.51c.6-1.61,1.16-3,1.61-4.06,1.8,1.34,3.49,2.54,5,3.56a9.22,9.22,0,0,0,5.73-6.6l0,0,.12,0,.13,0,0,0a9.22,9.22,0,0,0,5.73,6.6c1.53-1,3.22-2.22,5-3.56.45,1,1,2.45,1.61,4.06,12.71-9.84,35.33-31.62,34.39-38.67a1.1,1.1,0,0,0-.14-.9c-.68-.65-1.37-1.27-2.06-1.88A50.86,50.86,0,0,0,135,31.18,65.31,65.31,0,0,0,95.19,18.67,65.3,65.3,0,0,0,55.35,31.18a49.63,49.63,0,0,0-4.85,3.88c-.69.61-1.38,1.23-2.07,1.88a1.14,1.14,0,0,0-.13.9C47.36,44.89,70,66.67,82.69,76.51ZM108.5,53.66c1.82-3.95,5.16-9.52,8.33-9.88,2.89-.33,5.73,4.81,4.32,7.66-1.5,3-6.42,5.08-9.18,6.33C107.06,60,107.21,56.44,108.5,53.66ZM91.65,36.1c2-2.21,7.7-.61,8.57,2.32.92,3.1-1.44,7.9-2.71,10.66C95.25,54,92.94,51.43,92,48.62,90.71,44.64,89.46,38.52,91.65,36.1Zm-16,8.31c2.93,1.32,4.74,6.13,5.83,8.82C83.46,58,79.92,58.07,77.2,57c-3.86-1.6-9.25-4.61-9.44-7.76C67.59,46.31,72.9,43.17,75.68,44.41Zm83.47,10.93a51.27,51.27,0,0,0-3.87-4.86c-.61-.7-1.23-1.39-1.88-2.07a1.1,1.1,0,0,0-.9-.14c-7-.94-28.77,21.73-38.59,34.47,1.6.6,3,1.15,4,1.61-1.33,1.8-2.53,3.49-3.55,5A9.21,9.21,0,0,0,121,95.12h0a.83.83,0,0,1,0,.13.69.69,0,0,1,0,.13s0,0,0,0a9.22,9.22,0,0,0-6.59,5.74c1,1.53,2.22,3.23,3.55,5-1,.45-2.45,1-4,1.61,9.82,12.74,31.55,35.4,38.59,34.46a1.14,1.14,0,0,0,.9-.13c.65-.69,1.27-1.38,1.88-2.07a52.58,52.58,0,0,0,3.87-4.86,65.69,65.69,0,0,0,12.48-39.93A65.68,65.68,0,0,0,159.15,55.34ZM132.61,78.45c1.25-2.77,3.32-7.7,6.32-9.2,2.84-1.41,8,1.44,7.64,4.34-.36,3.17-5.92,6.51-9.86,8.34C133.93,83.23,130.41,83.38,132.61,78.45Zm8.57,44.3c-3.15-.19-6.15-5.59-7.75-9.46-1.12-2.73-1.07-6.27,3.71-4.32,2.69,1.1,7.48,2.91,8.8,5.85C147.19,117.6,144.05,122.92,141.18,122.75Zm13.06-23.93c-2.42,2.19-8.53.93-12.5-.38-2.8-.92-5.33-3.23-.46-5.49,2.75-1.28,7.55-3.64,10.64-2.73C154.84,91.1,156.45,96.82,154.24,98.82Zm-77.76,9c-1.61-.6-3-1.16-4-1.61,1.33-1.8,2.53-3.5,3.55-5a9.22,9.22,0,0,0-6.59-5.74,0,0,0,0,1,0,0l0-.13a1.3,1.3,0,0,0,0-.13h0A9.21,9.21,0,0,0,76,89.37c-1-1.53-2.22-3.22-3.55-5,1-.46,2.44-1,4-1.61C66.66,70,44.92,47.33,37.89,48.27a1.12,1.12,0,0,0-.91.14c-.64.68-1.26,1.37-1.87,2.07a49.73,49.73,0,0,0-3.87,4.86A65.63,65.63,0,0,0,18.75,95.26a65.64,65.64,0,0,0,12.49,39.93,51,51,0,0,0,3.87,4.86c.61.69,1.23,1.38,1.87,2.07a1.16,1.16,0,0,0,.91.13C44.92,143.19,66.66,120.53,76.48,107.79Zm-40.33-9c-2.21-2-.61-7.72,2.32-8.6,3.09-.91,7.88,1.45,10.63,2.73,4.88,2.26,2.35,4.57-.46,5.49C44.68,99.75,38.56,101,36.15,98.82ZM57,113.29c-1.59,3.87-4.59,9.27-7.74,9.46-2.87.17-6-5.15-4.76-7.93,1.31-2.94,6.11-4.75,8.8-5.85C58,107,58.08,110.56,57,113.29ZM53.68,81.93c-4-1.83-9.5-5.17-9.86-8.34-.33-2.9,4.8-5.75,7.63-4.34,3,1.5,5.08,6.43,6.32,9.2C60,83.38,56.45,83.23,53.68,81.93Z"/></g></g></svg>