<svg xmlns="http://www.w3.org/2000/svg" width="471.088" height="295.131" viewBox="0 0 471.088 295.131">
  <g id="Group_1" data-name="Group 1" transform="translate(0 -76.869)">
    <g id="Ellipse_12" data-name="Ellipse 12" transform="matrix(0.951, -0.309, 0.309, 0.951, 310.239, 120.654)" fill="none" stroke="#9fc1f4" stroke-width="40" stroke-dasharray="7">
      <circle cx="63.825" cy="63.825" r="63.825" stroke="none"/>
      <circle cx="63.825" cy="63.825" r="43.825" fill="none"/>
    </g>
    <path id="Path_247" data-name="Path 247" d="M190.75-32.162C288.328-68.133,381.5-8.7,381.5,20.242s-110.887,28-190.75,79.443S0,49.184,0,20.242,93.172,3.81,190.75-32.162Z" transform="translate(374.843 308.826) rotate(-161)" fill="#fff" opacity="0.46"/>
    <g id="Ellipse_11" data-name="Ellipse 11" transform="translate(0 246.405)" fill="none" stroke="#2a43ed" stroke-width="20" opacity="0.52">
      <circle cx="45.5" cy="45.5" r="45.5" stroke="none"/>
      <circle cx="45.5" cy="45.5" r="35.5" fill="none"/>
    </g>
    <g id="Layer_2" data-name="Layer 2" transform="translate(16.017 137.008)">
      <g id="_Layer_" data-name="&lt;Layer&gt;" transform="translate(0 0)">
        <path id="Path_1" data-name="Path 1" d="M428.8,65.646V66.68a77.422,77.422,0,0,1-2.382,17.984c-.221.892-.46,1.779-.71,2.663-4.02,14.158-11.56,27.065-20.257,34.546l-.274.234-44.885-.043-47.325-.046L50.079,121.77a86.2,86.2,0,0,1-6.285-12.014q-.176-.4-.351-.821h0c-.466-1.1-.929-2.253-1.379-3.451q-.466-1.237-.91-2.539c-.045-.124-.088-.262-.132-.4q-.157-.467-.309-.943c-.036-.1-.068-.209-.1-.315h0c-.495-1.538-.941-3.13-1.343-4.761q-.444-1.788-.794-3.637a52.51,52.51,0,0,1-.906-13.15q.068-1.037.189-2.074a34.823,34.823,0,0,1,6.986-17.576,40.313,40.313,0,0,1,10.965-9.645,42.866,42.866,0,0,1,15.559-5.718c14.388-2.547,29.429-.2,50.7-15.507q2.128-1.535,4.343-3.309A262.938,262.938,0,0,1,154.542,5.935l.339-.208c26.675-15.924,46.41,6.315,66.584,7.2,34.841,1.536,35.655-20.006,100.1,4.319h.007q1.944.734,3.968,1.525A65.909,65.909,0,0,0,340,22.574q1.438.211,2.872.346a46.532,46.532,0,0,0,12.777-.519c25.967-4.763,43.734-1.6,55.255,6.066q.556.371,1.093.757a37.573,37.573,0,0,1,5.962,5.29,39.791,39.791,0,0,1,8.471,15.056,48.627,48.627,0,0,1,1.3,5.085q.419,2.121.674,4.3a61.206,61.206,0,0,1,.4,6.183C428.8,65.307,428.8,65.476,428.8,65.646Z" transform="translate(-32.837 0)" fill="#e9f3fe"/>
        <path id="Path_2" data-name="Path 2" d="M373.11,512.707h-32.06l-.336-2.449a.516.516,0,0,0-.045-.155c.208-3.761,1.056-6.843,1.206-9.034a2.348,2.348,0,0,0-.2-2.262l.266.041c-1.337-1.178-2-9.159-2.049-9.845a2.681,2.681,0,0,0-.047-.338c-.117-.752-.485-2.551-1.36-3.266l-3.666.261s-1.415.674-2.462,3.78h0a2.337,2.337,0,0,0-.495,1.171,1.92,1.92,0,0,0,.711,1.93c-.007-.054-.011-.109-.014-.163.124,1.6.524,3.576,1.259,3.655,0,0,.306.014.754-.016a6.332,6.332,0,0,1-.221,1.79l-.24.045h0a1.132,1.132,0,0,0-.147.031h-.014a.964.964,0,0,0-.116.031c-.225.057-.472.153-.685.225,0,0-2.364.645-5.794,6.278h-.509c-.066-.028-.131-.058-.2-.09a2.043,2.043,0,0,0-.189-.08l.025-.565.07-1.6.033-.764h.106l-.068-.517h-2.4l-.1.517h.106l.047.764.1,1.6.02.315a.732.732,0,0,0-.386.143.335.335,0,0,0-.087.277h-1.152l.032-.736.069-1.6.035-.764h.105l-.068-.514h-2.4l-.1.517h.105l.048.764.1,1.6.046.718-.313-.044a4.767,4.767,0,0,1-.675-.267c-.582-.292-2.138-.486-2.473-.174s.35,1.574,1.768,1.607a8.974,8.974,0,0,1,1.146.1,34.8,34.8,0,0,0,3.747,1.465c.685.218,1.4.42,2.085.574a10.679,10.679,0,0,0,1.774.266,10.1,10.1,0,0,0,1.819-1c.346.135.718.274,1.105.412l-.177,2.053c-.064.464-.093,1.816-.1,3.321h-30.28c-.179-1.262-.466-2.813-.524-3.452a23.776,23.776,0,0,1,.02-3.4c.945-.315,1.842-.668,2.524-.95a10.464,10.464,0,0,0,2.034,1.156c.069,0,.138-.007.21-.014h.009l.205-.02h.028l.192-.023.054-.007.169-.025.084-.014.143-.023.113-.021.117-.022.138-.027.1-.02.159-.035L306,505.8h.012c.161-.036.324-.074.495-.116l.028-.006c.162-.042.326-.085.495-.131l.036-.009c.162-.046.325-.093.487-.141l.036-.011c.171-.051.34-.1.507-.156a34.822,34.822,0,0,0,3.747-1.465,8.946,8.946,0,0,1,1.145-.1c1.42-.038,2.1-1.3,1.769-1.614s-1.886-.116-2.473.176a4.706,4.706,0,0,1-.675.267c-2.027.293-3.592.371-4.627.471a.472.472,0,0,0-.04-.495c-.3-.287-1.582-.172-2.326.066-3.628-4.966-6.15-6.544-6.15-6.544a1.1,1.1,0,0,0-.134-.056c1.668-1.2-.611-1.247-.117-5.269.24-1.959-.371-5.092-4.281-4.591s-5.14,4.343-4.353,6.05-1.134,2.119-1.739,3.957c-.518,1.578-.7,3.536-1.538,4.416-2.33,2.435,1.255,5.993,4.339,6.364a9.713,9.713,0,0,1-.03.973,3.416,3.416,0,0,1-.057.39c-.216,1.113-.939,3.015-1.4,4.475h-2.192a1.42,1.42,0,0,0-1.416,1.416v31.718a1.419,1.419,0,0,0,1.416,1.416H373.11a1.419,1.419,0,0,0,1.416-1.416V514.123A1.42,1.42,0,0,0,373.11,512.707Zm-73.271-9.274c.015-.2.027-.392.04-.58.167.184.335.359.5.526Z" transform="translate(-250.241 -425.38)" fill="#9fc1f4" opacity="0.4"/>
        <path id="Path_3" data-name="Path 3" d="M1182.213,512.707h-22.708l-.336-2.449a.563.563,0,0,0-.045-.155c.208-3.761,1.056-6.843,1.205-9.034a2.347,2.347,0,0,0-.2-2.262l.266.041c-1.337-1.178-2-9.159-2.049-9.845a2.709,2.709,0,0,0-.047-.338c-.124-.752-.485-2.551-1.36-3.266l-3.672.261s-1.411.679-2.453,3.78h0a2.349,2.349,0,0,0-.495,1.171,1.921,1.921,0,0,0,.711,1.93c-.007-.054-.011-.109-.013-.163.124,1.6.524,3.576,1.259,3.655,0,0,.305.014.754-.016a6.337,6.337,0,0,1-.221,1.79l-.24.045h0a1.122,1.122,0,0,0-.147.031h-.012a.92.92,0,0,0-.118.031c-.225.057-.474.153-.685.225,0,0-2.364.645-5.794,6.278h-.51c-.066-.028-.131-.058-.2-.09a2.044,2.044,0,0,0-.189-.08l.025-.565.071-1.6.033-.764h.106l-.068-.517h-2.4l-.1.517h.106l.047.764.1,1.6.02.315a.733.733,0,0,0-.386.143.336.336,0,0,0-.086.277h-1.152l.032-.736.069-1.6.033-.764h.106l-.067-.517h-2.4l-.1.517h.1l.045.7a2.81,2.81,0,0,0-.611.2,4.7,4.7,0,0,1-.674.267c-2.027.293-3.594.371-4.628.471a.47.47,0,0,0-.04-.495c-.3-.287-1.582-.172-2.326.066-3.622-4.961-6.15-6.539-6.15-6.539a.967.967,0,0,0-.133-.056c1.668-1.2-.61-1.247-.124-5.269.24-1.959-.371-5.092-4.281-4.591s-5.136,4.341-4.349,6.05-1.135,2.119-1.738,3.957c-.52,1.578-.7,3.536-1.54,4.416-2.323,2.435,1.261,5.995,4.345,6.368a9.519,9.519,0,0,1-.031.973,3.3,3.3,0,0,1-.057.39c-.216,1.113-.938,3.015-1.4,4.475h-13.118a1.37,1.37,0,0,0-1.366,1.36v31.815a1.37,1.37,0,0,0,1.366,1.36h80a1.37,1.37,0,0,0,1.36-1.36v-31.81A1.37,1.37,0,0,0,1182.213,512.707Zm-56.207-9.274c.013-.2.027-.392.038-.58.168.184.335.359.5.526Zm.331,9.274c-.179-1.262-.465-2.813-.524-3.452a23.621,23.621,0,0,1,.021-3.4c.943-.315,1.841-.668,2.524-.95a10.418,10.418,0,0,0,2.034,1.156c.068,0,.137-.007.209-.014h.009l.207-.02h.027l.186-.026.054-.007.17-.025.085-.014.142-.023.114-.021.116-.022.138-.027.1-.02.159-.035.056-.011h.012c.161-.036.324-.074.495-.116l.029-.006c.163-.042.326-.085.495-.131l.036-.009c.163-.046.325-.093.487-.141l.036-.011q.256-.077.508-.156c.557-.177,1.1-.371,1.607-.564a2.04,2.04,0,0,0,1.663.866,8.97,8.97,0,0,1,1.145.1,34.856,34.856,0,0,0,3.733,1.463c.686.218,1.4.42,2.086.574a10.687,10.687,0,0,0,1.773.266,10.072,10.072,0,0,0,1.812-1c.346.135.718.274,1.1.412l-.176,2.053c-.064.464-.093,1.817-.1,3.321Zm12.805-9.047h.012v.021l.046.718-.314-.044a4.756,4.756,0,0,1-.674-.267,2.679,2.679,0,0,0-.544-.183l.327-.148A8.986,8.986,0,0,1,1139.143,503.66Z" transform="translate(-964.72 -425.38)" fill="#9fc1f4" opacity="0.4"/>
        <path id="Path_4" data-name="Path 4" d="M2821.3,478.62c0-.148-.123-1.756-2.568-1.84,0,0,1.2.143,1.412.673,0,0-.82-.653-1.484-.443s-1.06,1.379-1.063,1.763.371,1.625.79,1.731a1.3,1.3,0,0,0,.513,0,5.815,5.815,0,0,0-.328.587c-.977,2,.031,3.964.858,3.748.531-.14.68.766.68.766l5.152-4.171S2823.368,477.518,2821.3,478.62Z" transform="translate(-2469.2 -417.826)" fill="#2c3a64"/>
        <path id="Path_5" data-name="Path 5" d="M2947.335,677.41s1.5-.057,1.749.193a1.95,1.95,0,0,1-.343,1.907c-.468.407-1.751-1.125-1.751-1.125Z" transform="translate(-2582.591 -593.643)" fill="#ed985f"/>
        <path id="Path_6" data-name="Path 6" d="M2856.287,585.8a3.568,3.568,0,0,0-1.663,3.4c.112,2.484,3.482,6.838,5.173,7.872,1.341.82,6.44,1.042,6.44,1.042l.148-1.005s-4.765-1.935-5.44-2.68C2859.514,592.832,2857.614,585.252,2856.287,585.8Z" transform="translate(-2501.642 -513.34)" fill="#ed985f"/>
        <path id="Path_7" data-name="Path 7" d="M2778.668,574.846c-.025.068-.053.136-.084.2-.872,1.876-3.563,5-3.686,7.148a9.806,9.806,0,0,0,.355,2.893c1.495,6.014-10.324.89-9.656-.666,1.329-3.091,3.184-7.512,3.184-7.512,0-.022-.018-3.132,0-4.355V572.3c0-.371,0-.648-.008-.72.338-1.23.99-3.284.99-3.284a6.509,6.509,0,0,1,2.565-.152c.058,0,.42.033.707.066a13.751,13.751,0,0,1,3.615,1.091l.65.271q.36.155.634.292a4.925,4.925,0,0,1,1.03.634C2778.071,571.079,2779.355,573.025,2778.668,574.846Z" transform="translate(-2423.604 -497.837)" fill="#739cf3"/>
        <path id="Path_8" data-name="Path 8" d="M2769.3,685.9l-1.155.3v-.011c-2,.532-7.347-1.484-7.347-1.484s-1.937,1.7-1.684,5.788c.124,1.993-.361,2.252.225,2.158a70.115,70.115,0,0,1,7.649,0l.069-.294c.159-.019.293-.036.38-.05.3-.051.59-.089.865-.116a15.063,15.063,0,0,1,1.843-.078.17.17,0,0,0,.172-.184C2769.838,686.952,2769.3,685.9,2769.3,685.9Z" transform="translate(-2417.881 -600.045)" fill="#35488b"/>
        <path id="Path_9" data-name="Path 9" d="M2829.711,547.117a3.235,3.235,0,0,0-.171,1.348,1.813,1.813,0,0,1-1.236.659c-1.175.115-2.375-1.75-2.375-1.75a5.27,5.27,0,0,0,1.615-3.074l.147.069,2.483,1.167S2829.907,546.343,2829.711,547.117Z" transform="translate(-2476.5 -476.997)" fill="#ffb27d"/>
        <path id="Path_10" data-name="Path 10" d="M2772.457,574.078c-.006-.061-.155-.148-.4-.247.072-.658.162-1.829.184-3.663q-.274-.137-.634-.292a12.92,12.92,0,0,1-.322,3.675c-.963-.315-2.313-.679-3.238-.917a39.248,39.248,0,0,0-.989-4.151l-.7-.063a13.877,13.877,0,0,1,.847,4l-.158-.037c-.456-.1-.651,1.816-.689,1.925-.69,1.925-2.462,1.69-3.064,1.762s-4.177,7.44-4.21,8.746,8.475,2.089,10.582,1.964S2772.489,574.438,2772.457,574.078Z" transform="translate(-2417.917 -498.134)" fill="#2c3a64"/>
        <path id="Path_11" data-name="Path 11" d="M2842.633,546.027s-.265.806-.459,1.58a3.193,3.193,0,0,1-2.024-2.747Z" transform="translate(-2488.962 -477.487)" fill="#ed985f"/>
        <path id="Path_12" data-name="Path 12" d="M2841.484,516.467s-3.471-.8-2.938-2.958.445-3.71,2.683-3.285,2.464,1.349,2.461,2.112S2842.4,516.621,2841.484,516.467Z" transform="translate(-2487.507 -447.073)" fill="#ffb27d"/>
        <path id="Path_13" data-name="Path 13" d="M2837.7,508.334c-.371-.781-.812-.742-1.087-.6a2.489,2.489,0,0,0-3.23-.276,4.234,4.234,0,0,1-1.951,2.095,2.949,2.949,0,0,0,2.079.534,2.511,2.511,0,0,0,1.379-.519,8.288,8.288,0,0,1-1.809,1.35c1.934-.371,3.231-2.61,3.365-2.844a2.821,2.821,0,0,1,.5,1.192c.036.591-.167,1.74.172,1.783C2837.118,511.044,2838.258,509.5,2837.7,508.334Z" transform="translate(-2481.32 -444.293)" fill="#2c3a64"/>
        <path id="Path_14" data-name="Path 14" d="M2802.314,584.656l-.292,1.063s-.445-.079-1.13-.216h-.012l-.073-.014c-.43-.088-.948-.2-1.506-.325a19.74,19.74,0,0,1-4.989-1.649c-1.876-1.19-4.533-7.858-4.659-10.641,0-.147-.008-.288,0-.422.02-2.4,1.213-2.72,1.213-2.72.479-.2,1.037.633,1.607,1.922,1.205,2.7,2.486,7.419,3.3,8.824.342.594,2.277,1.8,3.957,2.761.587.338,1.143.647,1.587.89C2801.915,584.446,2802.314,584.656,2802.314,584.656Z" transform="translate(-2444.705 -499.258)" fill="#ffb27d"/>
        <path id="Path_15" data-name="Path 15" d="M2792.444,571.606a3.113,3.113,0,0,0-2.824.8c.021-2.4,1.214-2.72,1.214-2.72C2791.314,569.485,2791.871,570.32,2792.444,571.606Z" transform="translate(-2444.68 -499.22)" fill="#739cf3"/>
        <path id="Path_16" data-name="Path 16" d="M2869.87,587.66s.836,1.458.961,1.834a1.74,1.74,0,0,0-1.521.791S2869.347,587.869,2869.87,587.66Z" transform="translate(-2514.517 -514.995)" fill="#739cf3"/>
        <path id="Path_17" data-name="Path 17" d="M2893.826,680.387a4.977,4.977,0,0,0,4.977-4.977h-9.953A4.975,4.975,0,0,0,2893.826,680.387Z" transform="translate(-2531.641 -591.895)" fill="#b84c42"/>
        <path id="Path_18" data-name="Path 18" d="M2897.168,679.879a4.444,4.444,0,0,1-5.3-4.359h1.715A4.44,4.44,0,0,0,2897.168,679.879Z" transform="translate(-2534.286 -591.991)" fill="#d66c67"/>
        <path id="Path_19" data-name="Path 19" d="M2902.35,658.509s-1.236-1.855-1.787-1.731.97.957,1.52,1.646Z" transform="translate(-2541.802 -575.561)" fill="#d8dfeb"/>
        <path id="Path_20" data-name="Path 20" d="M2900.8,665.961h-9.291a2.332,2.332,0,0,1,1.731-.525,3.566,3.566,0,0,0,1.451-.479,2.855,2.855,0,0,1,2.856.113,3.882,3.882,0,0,0,2.266.563A1.788,1.788,0,0,1,2900.8,665.961Z" transform="translate(-2533.972 -582.445)" fill="#f0d170"/>
        <path id="Path_21" data-name="Path 21" d="M2884.8,687.844c-.532.22-1.282,1-2.473.532a17.347,17.347,0,0,0-2.381-.716h-.013l-.073-.014h0l.469-1.376.041.01a8.471,8.471,0,0,0,2.618.247c.812-.188,2.188.8,2.188.8S2885.33,687.623,2884.8,687.844Z" transform="translate(-2523.762 -601.412)" fill="#ffb27d"/>
        <path id="Path_22" data-name="Path 22" d="M2874.125,681.6c-.531.22-1.282,1-2.473.532a17.307,17.307,0,0,0-2.381-.716h-.012l-.073-.014c-.43-.088-.948-.2-1.506-.325a2.978,2.978,0,0,0,.424-1.933c.588.338,1.142.647,1.588.89a8.482,8.482,0,0,0,2.618.247c.812-.188,2.187.8,2.187.8S2874.656,681.374,2874.125,681.6Z" transform="translate(-2513.088 -595.163)" fill="#739cf3"/>
        <path id="Path_23" data-name="Path 23" d="M2624.852,706.17a1.327,1.327,0,0,0-1.272,1.36v31.819a1.32,1.32,0,0,0,1.272,1.36h46.934a50.154,50.154,0,0,0,6.73-7.147q1.274-1.622,2.473-3.391c.172-.247.341-.5.511-.759,1.335-2.014,2.6-4.15,3.787-6.384q.517-.976,1.013-1.978,1.306-2.634,2.453-5.416a.406.406,0,0,0,.02-.05q.82-1.988,1.548-4.042.942-2.65,1.718-5.383Z" transform="translate(-2299.171 -618.843)" fill="#9fc1f4"/>
        <path id="Path_24" data-name="Path 24" d="M2273.85,499.8s.23-.47,1.375-.341a1.811,1.811,0,0,1,1.524,1.845,49.072,49.072,0,0,0,1.336,8.463.875.875,0,0,1-.964,1.13l-2.6-.391Z" transform="translate(-1992.686 -437.684)" fill="#163560"/>
        <path id="Path_25" data-name="Path 25" d="M2271.17,502.038s1.223-.412,1.867.2a1.292,1.292,0,0,1,.278,1.421Z" transform="translate(-1990.337 -439.842)" fill="#c65447"/>
        <path id="Path_26" data-name="Path 26" d="M2240,505.439s.023-2.7,4.361-2.385a2.124,2.124,0,0,1,1.743,1.133c.487.955.7,2.633-.877,5.324Z" transform="translate(-1963.021 -440.829)" fill="#163560"/>
        <path id="Path_27" data-name="Path 27" d="M2247.458,559.328l-.978,3.821-2.824.138-1.406-2.1a4.593,4.593,0,0,0,1.484-3.779v-.031a6.162,6.162,0,0,0-.067-.81l2-.611,1.525-.465a11.607,11.607,0,0,0-.067,2.6A2.742,2.742,0,0,0,2247.458,559.328Z" transform="translate(-1964.993 -486.803)" fill="#e49963"/>
        <path id="Path_28" data-name="Path 28" d="M2234.788,604.439l-10.248-.012s1.275-6.872.567-9.124a13.052,13.052,0,0,1,.035-5.542c1.029-2.446,1.292-4.735,1.749-4.855.248-.065.456-.2.7-.247a13.164,13.164,0,0,1,7.3.66c.9,2.269-1.031,3.974-1.125,9.1A48.672,48.672,0,0,0,2234.788,604.439Z" transform="translate(-1949.473 -512.153)" fill="#e49963"/>
        <path id="Path_29" data-name="Path 29" d="M2159.29,586.454c-.495-.909-3.182-.924-3.182-.924a5.029,5.029,0,0,1-3.339,1.282c-1.71-.01-.922-1.216-.922-1.216a1.009,1.009,0,0,0-.184.041,1.621,1.621,0,0,0-.795.6c.011-.224.018-.356.018-.356s-2.5.684-6.1,6.784c-.106.18-.409.151-1.113.013-.9-.174-2.731-.152-5.5-.558,0,0-.1.068-.124.371a4.484,4.484,0,0,1-.124.866,34.52,34.52,0,0,0,3.759,1.471c.685.218,1.4.42,2.086.574a10.668,10.668,0,0,0,1.773.266,11.785,11.785,0,0,0,3.1-1.991c-.137.972-.205,1.668-.2,1.746a19.3,19.3,0,0,1-.033,2.3s7.261,1.978,9.4.962a.893.893,0,0,0,.585-.769c.209-3.957,1.136-7.172,1.228-9.385A4.012,4.012,0,0,0,2159.29,586.454Z" transform="translate(-1873.572 -513.128)" fill="#f4be61"/>
        <path id="Path_30" data-name="Path 30" d="M2282.464,627.379a1.94,1.94,0,0,1,2.512,1.979c-.087,1.337-.193,2.9-.314,5.166a.891.891,0,0,1-.585.769L2282,630.976l.466-3.6Z" transform="translate(-1999.828 -549.726)" fill="#f2a83d"/>
        <path id="Path_31" data-name="Path 31" d="M2232.171,605.557l-.989-7.2a.582.582,0,0,0-.124-.283c-1.237-1.565-1.372-6.456-1.374-8.322a.72.72,0,0,0-.7-.728,12.518,12.518,0,0,1,1.36-3.006l-.257-.041c-.144-.022-.4-.047-.4-.047a12.324,12.324,0,0,0-1.54,3.1h-.031a21.444,21.444,0,0,1-5.238,0h.167a14.182,14.182,0,0,1,1.36-3.041,6.805,6.805,0,0,0-.777.247,9.987,9.987,0,0,0-1.395,2.71.567.567,0,0,0-.517.523l-.291,3.383-.4,4.633c-.143,1.025-.107,6.385-.091,8.161a.566.566,0,0,0,.56.569h10.126a.57.57,0,0,0,.549-.658Z" transform="translate(-1946.301 -513.479)" fill="#ee9849"/>
        <path id="Path_32" data-name="Path 32" d="M2257.327,558.047a8.42,8.42,0,0,0-3.4-.68h-.042l.04-.031c.2-.147,1.1-.811,1.938-1.421l1.526-.465A11.636,11.636,0,0,0,2257.327,558.047Z" transform="translate(-1975.194 -486.768)" fill="#d68d5d"/>
        <path id="Path_33" data-name="Path 33" d="M2238.938,520.232s4.305.2,4.387-2.487.691-4.465-2.054-4.7-3.311.769-3.556,1.658S2237.819,520.112,2238.938,520.232Z" transform="translate(-1960.954 -449.578)" fill="#e49963"/>
        <path id="Path_34" data-name="Path 34" d="M2234.586,510.726s-1.918,1.151-1.713,2.638a1.918,1.918,0,0,1-.711-1.93,2.789,2.789,0,0,1,2.745-2.274,13.506,13.506,0,0,1,2.059.151Z" transform="translate(-1956.134 -446.201)" fill="#163560"/>
        <path id="Path_35" data-name="Path 35" d="M2248.156,511.907c-.764.405,2.394.742,2.587,2.033s1.7,1.779,1.7,1.779S2254.358,508.625,2248.156,511.907Z" transform="translate(-1970.065 -447.849)" fill="#163560"/>
        <path id="Path_36" data-name="Path 36" d="M2244,558.971s.031.273.7.31c0,0,.559.031.576-.262A1.828,1.828,0,0,0,2244,558.971Z" transform="translate(-1966.526 -489.777)" fill="#fff"/>
        <path id="Path_37" data-name="Path 37" d="M2197.75,597.473a30.4,30.4,0,0,0,5.5,2.093,11.5,11.5,0,0,0,2.048.329,10.394,10.394,0,0,0,4.848-3.781c4.05-5.672.924-6.284.924-6.284s-2.706,1.688-6.527,7.06c-.133.188-.469.146-1.338-.029-.929-.188-2.776-.166-5.327-.54a1.39,1.39,0,0,0-.069.4C2197.746,597.386,2197.75,597.473,2197.75,597.473Z" transform="translate(-1925.995 -516.897)" fill="#f4be61"/>
        <path id="Path_38" data-name="Path 38" d="M2122.523,635.006c-.889-.173-2.778-.187-5.5-.58a4.69,4.69,0,0,1-.675-.268c-.583-.292-2.138-.486-2.473-.174s.349,1.574,1.768,1.608a9.259,9.259,0,0,1,1.145.094,34.206,34.206,0,0,0,3.747,1.466c.685.218,1.4.421,2.086.574A5.031,5.031,0,0,0,2122.523,635.006Z" transform="translate(-1852.418 -555.451)" fill="#a86337"/>
        <path id="Path_39" data-name="Path 39" d="M2173,614.14l-.034.764-.069,1.6-.032.736h-2.028l-.046-.736-.1-1.6-.048-.764Z" transform="translate(-1902.238 -538.201)" fill="#c65447"/>
        <path id="Path_40" data-name="Path 40" d="M2172.281,609.96h-2.4l-.1.517h2.568Z" transform="translate(-1901.484 -534.538)" fill="#dce3f1"/>
        <path id="Path_41" data-name="Path 41" d="M2173.3,620.32l-.069,1.6h-2.106l-.1-1.6Z" transform="translate(-1902.58 -543.617)" fill="#e57970"/>
        <path id="Path_42" data-name="Path 42" d="M2143.255,614.14l-.033.764-.071,1.6-.03.736h-2.029l-.046-.736-.1-1.6-.047-.764Z" transform="translate(-1876.175 -538.201)" fill="#c65447"/>
        <path id="Path_43" data-name="Path 43" d="M2142.54,609.96h-2.4l-.1.517h2.568Z" transform="translate(-1875.421 -534.538)" fill="#dce3f1"/>
        <path id="Path_44" data-name="Path 44" d="M2143.555,620.32l-.07,1.6h-2.105l-.1-1.6Z" transform="translate(-1876.508 -543.617)" fill="#e57970"/>
        <path id="Path_45" data-name="Path 45" d="M2133.727,639.716H2124.1a.269.269,0,0,1-.269-.267h0a.268.268,0,0,1,.269-.268h9.632a.268.268,0,0,1,.268.268h0a.268.268,0,0,1-.272.267Z" transform="translate(-1861.216 -560.145)" fill="#1c468a"/>
        <path id="Path_46" data-name="Path 46" d="M2177.327,639.623a3.008,3.008,0,0,1-.051-2.705c-.928-.188-2.79-.27-5.339-.643h0a5.758,5.758,0,0,1-1.045-.38c-.618-.312-2.282-.519-2.635-.187s.371,1.68,1.888,1.722a7.571,7.571,0,0,1,1.632.182A34.862,34.862,0,0,0,2177.327,639.623Z" transform="translate(-1900.073 -556.954)" fill="#b77446"/>
        <path id="Path_47" data-name="Path 47" d="M2238.792,487.51s-1.415.674-2.462,3.78h1.572Z" transform="translate(-1959.805 -427.229)" fill="#ee9849"/>
        <path id="Path_48" data-name="Path 48" d="M2248.8,489.437s4.435.069,5.967-.434c0,0-.29-2.689-1.4-3.6l-3.674.261S2248.588,488.318,2248.8,489.437Z" transform="translate(-1970.712 -425.38)" fill="#f4be61"/>
        <rect id="Rectangle_2" data-name="Rectangle 2" width="88.971" height="34.547" rx="11.45" transform="translate(229.724 87.327)" fill="#9fc1f4"/>
        <path id="Path_49" data-name="Path 49" d="M385.11,985.252H.371A.371.371,0,0,1,0,984.881H0a.371.371,0,0,1,.371-.371H385.11a.371.371,0,0,1,.371.371h0A.371.371,0,0,1,385.11,985.252Z" transform="translate(0 -862.774)" fill="#2e3552"/>
        <path id="Path_50" data-name="Path 50" d="M1155.258,18.792q-1.978-.716-3.968-1.525h-.007c-64.446-24.327-65.26-2.786-100.107-4.322-20.174-.889-39.908-23.123-66.583-7.2l-.333.208V16.373c0,1.335,1.394,2.426,3.091,2.426h98.066v101.4a1.5,1.5,0,0,0,1.437,1.553,1.383,1.383,0,0,0,1.014-.456,1.617,1.617,0,0,0,.422-1.1V18.792Z" transform="translate(-862.555 -0.015)" fill="#d2e4ff" opacity="0.6"/>
        <rect id="Rectangle_3" data-name="Rectangle 3" width="82.739" height="20.346" rx="8.48" transform="translate(234.074 29.226)" fill="#d2e4ff" opacity="0.6"/>
        <path id="Path_51" data-name="Path 51" d="M1958.246,270.27h-17.9a1.011,1.011,0,1,0,0,2.023h17.9a1.011,1.011,0,1,0,0-2.023Z" transform="translate(-1699.53 -236.851)" fill="#9fc1f4" opacity="0.4"/>
        <path id="Path_52" data-name="Path 52" d="M1958.246,310.45h-17.905a1.011,1.011,0,0,0,0,2.023h17.9a1.011,1.011,0,0,0,0-2.023Z" transform="translate(-1699.53 -272.062)" fill="#9fc1f4" opacity="0.4"/>
        <path id="Path_53" data-name="Path 53" d="M1958.246,350.63h-17.905a1.011,1.011,0,0,0,0,2.023h17.9a1.011,1.011,0,0,0,0-2.023Z" transform="translate(-1699.53 -307.274)" fill="#9fc1f4" opacity="0.4"/>
        <path id="Path_54" data-name="Path 54" d="M2175.676,270.27h-17.9a1.011,1.011,0,1,0,0,2.023h17.9a1.011,1.011,0,1,0,0-2.023Z" transform="translate(-1890.074 -236.851)" fill="#9fc1f4" opacity="0.4"/>
        <path id="Path_55" data-name="Path 55" d="M2175.676,310.45h-17.9a1.011,1.011,0,0,0,0,2.023h17.9a1.011,1.011,0,0,0,0-2.023Z" transform="translate(-1890.074 -272.062)" fill="#9fc1f4" opacity="0.4"/>
        <path id="Path_56" data-name="Path 56" d="M2175.676,350.63h-17.9a1.011,1.011,0,0,0,0,2.023h17.9a1.011,1.011,0,0,0,0-2.023Z" transform="translate(-1890.074 -307.274)" fill="#9fc1f4" opacity="0.4"/>
        <rect id="Rectangle_4" data-name="Rectangle 4" width="22.277" height="11.961" rx="5.98" transform="translate(290.427 33.419)" fill="#9fc1f4" opacity="0.4"/>
        <rect id="Rectangle_5" data-name="Rectangle 5" width="82.739" height="20.346" rx="8.48" transform="translate(131.792 29.226)" fill="#d2e4ff" opacity="0.6"/>
        <path id="Path_57" data-name="Path 57" d="M1131.066,270.27h-17.9a1.011,1.011,0,1,0,0,2.023h17.9a1.011,1.011,0,0,0,0-2.023Z" transform="translate(-974.631 -236.851)" fill="#9fc1f4" opacity="0.4"/>
        <path id="Path_58" data-name="Path 58" d="M1131.066,310.45h-17.9a1.011,1.011,0,0,0,0,2.023h17.9a1.011,1.011,0,0,0,0-2.023Z" transform="translate(-974.632 -272.062)" fill="#9fc1f4" opacity="0.4"/>
        <path id="Path_59" data-name="Path 59" d="M1131.066,350.63h-17.9a1.011,1.011,0,0,0,0,2.023h17.9a1.011,1.011,0,0,0,0-2.023Z" transform="translate(-974.632 -307.274)" fill="#9fc1f4" opacity="0.4"/>
        <path id="Path_60" data-name="Path 60" d="M1348.5,270.27h-17.9a1.011,1.011,0,1,0,0,2.023h17.9a1.011,1.011,0,1,0,0-2.023Z" transform="translate(-1165.176 -236.851)" fill="#9fc1f4" opacity="0.4"/>
        <path id="Path_61" data-name="Path 61" d="M1348.5,310.45h-17.9a1.011,1.011,0,0,0,0,2.023h17.9a1.011,1.011,0,1,0,0-2.023Z" transform="translate(-1165.176 -272.062)" fill="#9fc1f4" opacity="0.4"/>
        <path id="Path_62" data-name="Path 62" d="M1348.5,350.63h-17.9a1.011,1.011,0,0,0,0,2.023h17.9a1.011,1.011,0,1,0,0-2.023Z" transform="translate(-1165.176 -307.274)" fill="#9fc1f4" opacity="0.4"/>
        <rect id="Rectangle_6" data-name="Rectangle 6" width="22.277" height="11.961" rx="5.98" transform="translate(188.145 33.419)" fill="#9fc1f4" opacity="0.4"/>
        <path id="Path_63" data-name="Path 63" d="M393.529,237.417v18.25a1.052,1.052,0,0,1-1.047,1.049H311.837a1.051,1.051,0,0,1-1.047-1.049v-3.79c14.388-2.547,29.429-.2,50.7-15.507h30.994A1.051,1.051,0,0,1,393.529,237.417Z" transform="translate(-272.36 -207.143)" fill="#d2e4ff" opacity="0.6"/>
        <path id="Path_64" data-name="Path 64" d="M2692.764,256.706h-68.289a.982.982,0,0,1-.9-1.047V237.407a.985.985,0,0,1,.9-1.047h55.963a34.377,34.377,0,0,1,5.092,5.29A41.968,41.968,0,0,1,2692.764,256.706Z" transform="translate(-2299.171 -207.134)" fill="#d2e4ff" opacity="0.6"/>
        <rect id="Rectangle_7" data-name="Rectangle 7" width="17.018" height="2.023" rx="1.011" transform="translate(328.535 33.419)" fill="#9fc1f4" opacity="0.4"/>
        <rect id="Rectangle_8" data-name="Rectangle 8" width="17.018" height="2.023" rx="1.011" transform="translate(328.535 38.388)" fill="#9fc1f4" opacity="0.4"/>
        <rect id="Rectangle_9" data-name="Rectangle 9" width="17.018" height="2.023" rx="1.011" transform="translate(328.535 43.356)" fill="#9fc1f4" opacity="0.4"/>
        <rect id="Rectangle_10" data-name="Rectangle 10" width="17.018" height="2.023" rx="1.011" transform="translate(351.494 33.419)" fill="#9fc1f4" opacity="0.4"/>
        <rect id="Rectangle_11" data-name="Rectangle 11" width="17.018" height="2.023" rx="1.011" transform="translate(351.494 38.388)" fill="#9fc1f4" opacity="0.4"/>
        <rect id="Rectangle_12" data-name="Rectangle 12" width="17.018" height="2.023" rx="1.011" transform="translate(351.494 43.356)" fill="#9fc1f4" opacity="0.4"/>
        <rect id="Rectangle_13" data-name="Rectangle 13" width="7.067" height="11.961" rx="3.533" transform="translate(373.267 33.419)" fill="#9fc1f4" opacity="0.4"/>
        <path id="Path_65" data-name="Path 65" d="M2045.26,658.91h7.091l1.134,4.575h-7.01Z" transform="translate(-1792.361 -577.435)" fill="#9fc1f4"/>
        <path id="Path_66" data-name="Path 66" d="M2060.69,670.88h3.12l1.2,4.43h-3.282Z" transform="translate(-1805.883 -587.925)" fill="#9fc1f4"/>
        <path id="Path_67" data-name="Path 67" d="M2085.92,670.88h.211l1.315,4.43h-.357Z" transform="translate(-1827.994 -587.925)" fill="#8fb0e2"/>
        <path id="Path_68" data-name="Path 68" d="M2102.61,658.91h.124l1.147,4.575h-.137Z" transform="translate(-1842.62 -577.435)" fill="#8fb0e2"/>
        <path id="Path_69" data-name="Path 69" d="M2637.1,635.75h10.528l1.684,6.792H2638.9Z" transform="translate(-2311.02 -557.139)" fill="#9fc1f4"/>
        <path id="Path_70" data-name="Path 70" d="M2660.01,653.52h4.632l1.774,6.577h-4.873Z" transform="translate(-2331.097 -572.711)" fill="#9fc1f4"/>
        <path id="Path_71" data-name="Path 71" d="M2697.469,653.52h.313l1.951,6.577h-.531Z" transform="translate(-2363.925 -572.711)" fill="#8fb0e2"/>
        <path id="Path_72" data-name="Path 72" d="M2722.24,635.75h.183l1.7,6.792h-.2Z" transform="translate(-2385.632 -557.139)" fill="#8fb0e2"/>
        <path id="Path_73" data-name="Path 73" d="M1966.066,932.291c.053.66.989.6,2.049.471s.77.2,2.25.208,1.989-.484,2.058-.7c.063-.188-.652-.341-1.416-.521l-.289-.069a3.891,3.891,0,0,1-2.176-1.408c-.642-.824-1.229-4.575-1.229-4.575l-2.312.434a30.626,30.626,0,0,1,1.484,4.265c.062.472-.274.788-.353,1.2A2.633,2.633,0,0,0,1966.066,932.291Z" transform="translate(-1722.026 -811.236)" fill="#b77446"/>
        <path id="Path_74" data-name="Path 74" d="M1975.683,974.619c.421-.1.778.14,2.258.15s1.988-.483,2.058-.7c.063-.188-.652-.342-1.416-.521l-.008.014a4.151,4.151,0,0,1-2.165.4c-.99-.093-2.011-.495-2.7-.569a2.6,2.6,0,0,0-.065.688C1973.7,974.75,1974.431,974.927,1975.683,974.619Z" transform="translate(-1729.602 -853.038)" fill="#365da4"/>
        <path id="Path_75" data-name="Path 75" d="M1920.119,732.774a3.788,3.788,0,0,1-1.176.5,2.357,2.357,0,0,1-1.251-.017s-4.11-10.322-3.876-13.809c.006-.084.009-.173.01-.267a14.631,14.631,0,0,0-.23-2.339c-.056-.34-.124-.7-.191-1.066-.164-.866-.371-1.788-.593-2.734-.1-.415-.2-.836-.305-1.255-1.034-4.127-2.3-8.194-2.3-8.194s7.419-2.422,7.837-.158a45.07,45.07,0,0,1,.457,9.665,76.769,76.769,0,0,0,.3,11.5A63.715,63.715,0,0,0,1920.119,732.774Z" transform="translate(-1674.01 -615.61)" fill="#365da4"/>
        <path id="Path_76" data-name="Path 76" d="M1930.1,770.179a14.632,14.632,0,0,0-.229-2.34c-.056-.34-.124-.7-.191-1.066-.164-.865-.371-1.788-.594-2.734-.1-.415-.2-.836-.305-1.255.146-1.26.264-2.124.264-2.124A10.558,10.558,0,0,1,1930.1,770.179Z" transform="translate(-1690.284 -666.604)" fill="#285493"/>
        <path id="Path_77" data-name="Path 77" d="M1897.924,937.338c.053.66.989.66,2.041.529s.777.14,2.258.15,1.987-.484,2.057-.7c.062-.188-.652-.341-1.416-.521l-.289-.069a6.342,6.342,0,0,1-2.176-1.408c-.7-.528-.21-3.085-.21-3.085l-2.177-.778s.329,2.573.329,3.989c0,.477-.274.788-.353,1.2A2.544,2.544,0,0,0,1897.924,937.338Z" transform="translate(-1663.242 -816.284)" fill="#b77446"/>
        <path id="Path_78" data-name="Path 78" d="M1899.965,974.637c.247-.057.777.14,2.258.149s1.987-.483,2.057-.7c.062-.188-.652-.341-1.416-.521l-.01.014a4.136,4.136,0,0,1-2.169.406c-.99-.093-2.012-.495-2.7-.569a2.544,2.544,0,0,0-.064.688C1897.977,974.768,1898.608,974.952,1899.965,974.637Z" transform="translate(-1663.242 -853.055)" fill="#365da4"/>
        <path id="Path_79" data-name="Path 79" d="M1890.014,684.715s-2.413,12.029-2.822,18.575-.917,11.967-.917,11.967a3.182,3.182,0,0,1-1.131.156,4.175,4.175,0,0,1-1.144-.234s-2.391-9.85-1.6-13.792.133-7.58-.247-10.85a9.09,9.09,0,0,1,3.017-8.354C1886.635,680.7,1890.014,684.715,1890.014,684.715Z" transform="translate(-1649.346 -597.541)" fill="#365da4"/>
        <path id="Path_80" data-name="Path 80" d="M1870.495,493.952c.24-1.959-.371-5.092-4.281-4.591s-5.14,4.341-4.351,6.049-1.135,2.121-1.739,3.957c-.519,1.578-.7,3.538-1.539,4.417-2.706,2.834,2.6,7.194,5.8,6.274,5.824-1.674,6.573-1.924,6.367-6.5-.106-2.349-1.93-3.253-.772-3.932C1872.773,497.988,1869.952,498.384,1870.495,493.952Z" transform="translate(-1628.116 -428.804)" fill="#163560"/>
        <path id="Path_81" data-name="Path 81" d="M1904.75,543.248a10.764,10.764,0,0,0-1.313-.218,5.51,5.51,0,0,1-.176-2.365l-2.908-.885c-.139,3.091-.417,3.478-.476,3.525a13.253,13.253,0,0,0-1.926.618s1.855,10.623,1.06,12.649a21.411,21.411,0,0,0-1.1,3.827l8.656.108a86.459,86.459,0,0,1,.278-9.421C1907.245,548.625,1904.75,543.248,1904.75,543.248Z" transform="translate(-1663.231 -473.036)" fill="#a86337"/>
        <path id="Path_82" data-name="Path 82" d="M1916.68,507.813s-3.482.7-3.884-1.476-1.122-3.549,1.083-4.087,2.793.211,3.1.9S1917.575,507.574,1916.68,507.813Z" transform="translate(-1675.891 -439.985)" fill="#b77446"/>
        <path id="Path_83" data-name="Path 83" d="M1907.052,574.505c-.026-.3-.124-.371-.124-.371-2.766.407-4.6.383-5.5.559-.7.136-.989.156-1.113-.015-3.821-5.373-6.525-7.061-6.525-7.061a4.566,4.566,0,0,0-1.417-.328s-.161,2.044-1.211,2.217c-1.817.3-3.28-1.36-3.709-2.034a7.392,7.392,0,0,0-2.7,1.224,3.507,3.507,0,0,0-.247,2.456,3.312,3.312,0,0,0,.132.546c.124.341.618,2.844.84,3.844a.316.316,0,0,0,.016.07c.015.067.029.124.041.173s.023.094.032.124.011.032.016.048a8.268,8.268,0,0,1,.4,3.353,3.367,3.367,0,0,1-.1.537c-.291,1.49-1.5,4.427-1.749,5.776a1.811,1.811,0,0,0,.866.742,8.157,8.157,0,0,0,1.667.534,15.755,15.755,0,0,0,1.7.271c.371.042.768.077,1.172.1l.169.01c2.607.124,5.526.064,5.906-1.175.181-.595-.544-4.169-.642-5.232a47.449,47.449,0,0,1,.232-6.4,12.743,12.743,0,0,0,4.346,3.206,10.585,10.585,0,0,0,1.773-.267c.684-.152,1.4-.355,2.086-.572a34.5,34.5,0,0,0,3.759-1.473A4.394,4.394,0,0,1,1907.052,574.505Z" transform="translate(-1651.164 -497.144)" fill="#80bdcc"/>
        <path id="Path_84" data-name="Path 84" d="M1911.226,498.485s.061.742-1.085,1.988a4.971,4.971,0,0,0-.865,3.483s-1.93-3.627-.9-4.785A3.1,3.1,0,0,1,1911.226,498.485Z" transform="translate(-1672.137 -436.763)" fill="#163560"/>
        <path id="Path_85" data-name="Path 85" d="M1922.25,490.713a3.534,3.534,0,0,1,3.447,1.113,2.844,2.844,0,0,1,.233,2.994s-.608-1.782-1.716-2.171A4.752,4.752,0,0,1,1922.25,490.713Z" transform="translate(-1684.562 -429.952)" fill="#163560"/>
        <path id="Path_86" data-name="Path 86" d="M1938.56,537.948s.093.259.742.141c0,0,.55-.1.495-.387A1.768,1.768,0,0,0,1938.56,537.948Z" transform="translate(-1698.855 -471.191)" fill="#fff"/>
        <path id="Path_87" data-name="Path 87" d="M1891.612,600.06c-.495,1.676-.781,3.053-2.021,3.985-.4-.023-.8-.058-1.172-.1a15.77,15.77,0,0,1-1.7-.271,8.18,8.18,0,0,1-1.667-.534,1.716,1.716,0,0,1-.865-.742c.247-1.349,1.458-4.286,1.748-5.776a3.641,3.641,0,0,0,.058-.391,9.722,9.722,0,0,0-.359-3.5l-.049-.169c-.01-.036-.023-.1-.041-.173a.323.323,0,0,0-.016-.071c-.2-.946-.718-3.91-.852-4.3a3.963,3.963,0,0,1-.124-.591l1.043-1s5.976,2.551,7.3,6.073S1892.32,597.657,1891.612,600.06Z" transform="translate(-1651.208 -513.917)" fill="#5f9aa8"/>
        <path id="Path_88" data-name="Path 88" d="M1981.091,620.869a16.8,16.8,0,0,1-3.859.84,12.89,12.89,0,0,1-4.389-3.252c-.09-.407-.178-1.089.314-.893.691.277,3.247,3.557,4.214,3.627A30,30,0,0,0,1981.091,620.869Z" transform="translate(-1728.837 -541.17)" fill="#5f9aa8"/>
        <path id="Path_89" data-name="Path 89" d="M1899.354,582.824a30.313,30.313,0,0,1-5.5,2.092,11.493,11.493,0,0,1-2.048.329,10.363,10.363,0,0,1-4.842-3.781c-4.05-5.672-.924-6.284-.924-6.284s2.706,1.688,6.526,7.062c.134.188.469.145,1.338-.031.929-.187,2.776-.164,5.327-.539a1.416,1.416,0,0,1,.069.4C1899.357,582.734,1899.354,582.824,1899.354,582.824Z" transform="translate(-1651.82 -504.058)" fill="#80bdcc"/>
        <path id="Path_90" data-name="Path 90" d="M2030.9,617.75c-.331-.31-1.885-.116-2.474.176a4.743,4.743,0,0,1-.675.267c-2.72.394-4.612.408-5.5.581a5.038,5.038,0,0,0-.1,2.72c.683-.152,1.4-.355,2.086-.573a34.776,34.776,0,0,0,3.747-1.466,9.013,9.013,0,0,1,1.145-.094C2030.549,619.324,2031.229,618.062,2030.9,617.75Z" transform="translate(-1771.985 -541.226)" fill="#a86337"/>
        <path id="Path_91" data-name="Path 91" d="M1966.47,621.075c-.353-.331-2.013-.124-2.635.187a5.565,5.565,0,0,1-1.045.38h0c-2.55.371-4.411.456-5.339.643a3.008,3.008,0,0,1-.051,2.705,35.477,35.477,0,0,0,5.55-2.006,7.655,7.655,0,0,1,1.633-.183C1966.1,622.756,1966.822,621.412,1966.47,621.075Z" transform="translate(-1715.365 -544.13)" fill="#b77446"/>
        <path id="Path_92" data-name="Path 92" d="M3006.154,483.472v1.034a77.4,77.4,0,0,1-2.382,17.984h-23.977a1.462,1.462,0,0,1-1.314-1.567V478.347a1.46,1.46,0,0,1,1.314-1.567h25.953a61.135,61.135,0,0,1,.4,6.183C3006.15,483.133,3006.151,483.3,3006.154,483.472Z" transform="translate(-2610.188 -417.826)" fill="#d2e4ff" opacity="0.6"/>
        <path id="Path_93" data-name="Path 93" d="M3023.29,521.3h-11.683l.079-1.575h-.212c-.062-.712-1.36-.495-1.386,0h-.247l.1,1.575h-1.151l.079-1.575h-.213c-.062-.712-1.36-.495-1.386,0h-.253l.1,1.575h-1.152l.079-1.575h-.212c-.062-.712-1.361-.495-1.386,0h-.253l.1,1.575h-.69a.438.438,0,0,0-.437.436v.19a.438.438,0,0,0,.437.436h19.69a.438.438,0,0,0,.437-.436v-.19a.438.438,0,0,0-.443-.436Z" transform="translate(-2631.824 -455.062)" fill="#c7def9"/>
        <rect id="Rectangle_14" data-name="Rectangle 14" width="20.563" height="1.063" rx="0.532" transform="translate(371.339 75.29)" fill="#c7def9"/>
        <path id="Path_94" data-name="Path 94" d="M3018,577.619c-.118-.843-.878-.722-1.552-1.288s-1.934.479-2.929.827a2.033,2.033,0,0,0-1.085,1.484h-1.024l.411,1.575h6.766l.322-1.575h-.866A5.508,5.508,0,0,0,3018,577.619Z" transform="translate(-2639.046 -504.922)" fill="#c7def9"/>
        <path id="Path_95" data-name="Path 95" d="M3092.861,577.619c-.124-.843-.879-.722-1.552-1.288s-1.934.479-2.928.827a2.035,2.035,0,0,0-1.086,1.484h-1.023l.411,1.575h6.766l.322-1.575h-.865A5.508,5.508,0,0,0,3092.861,577.619Z" transform="translate(-2704.649 -504.922)" fill="#c7def9"/>
        <path id="Path_96" data-name="Path 96" d="M3093.421,506.963l.321-1.575h-.865a5.478,5.478,0,0,0-.046-1.018c-.123-.843-.879-.722-1.552-1.288s-1.934.48-2.929.827a2.038,2.038,0,0,0-1.086,1.484h-1.024l.411,1.575Z" transform="translate(-2704.623 -440.73)" fill="#c7def9"/>
        <path id="Path_97" data-name="Path 97" d="M3023.29,647.022h-11.683l.079-1.575h-.212c-.062-.712-1.36-.495-1.386,0h-.247l.1,1.575h-1.151l.079-1.575h-.213c-.062-.712-1.36-.495-1.386,0h-.253l.1,1.575h-1.152l.079-1.575h-.212c-.062-.712-1.361-.495-1.386,0h-.253l.1,1.575h-.69a.438.438,0,0,0-.437.436v.19a.438.438,0,0,0,.437.437h19.69a.438.438,0,0,0,.437-.437v-.184a.438.438,0,0,0-.443-.443Z" transform="translate(-2631.824 -565.237)" fill="#c7def9"/>
        <path id="Path_98" data-name="Path 98" d="M3092.861,630.1c-.124-.843-.879-.722-1.552-1.287s-1.934.479-2.928.826a2.037,2.037,0,0,0-1.086,1.484h-1.023l.411,1.575h6.766l.322-1.575h-.865A5.508,5.508,0,0,0,3092.861,630.1Z" transform="translate(-2704.649 -550.916)" fill="#c7def9"/>
        <path id="Path_99" data-name="Path 99" d="M267.719,578.428h-.006a.431.431,0,0,1-.45-.411,66.469,66.469,0,0,0-5.965-28.29c-.1-.2-.084-.659.58-.717.58-.051.94.076,1.044.279a62.909,62.909,0,0,1,2.916,8.009c1.407,4.67,2.473,12.316,2.338,20.73A.433.433,0,0,1,267.719,578.428Z" transform="translate(-228.947 -481.115)" fill="#ee9849"/>
        <path id="Path_100" data-name="Path 100" d="M378.788,578.428h-.006a.431.431,0,0,1-.45-.411,66.5,66.5,0,0,0-5.964-28.29c-.1-.2-.084-.659.579-.717.58-.051.94.076,1.045.279a63.052,63.052,0,0,1,2.915,8.009c1.407,4.67,2.473,12.316,2.339,20.73A.434.434,0,0,1,378.788,578.428Z" transform="translate(-326.283 -481.115)" fill="#ee9849"/>
        <path id="Path_101" data-name="Path 101" d="M277.46,583.4a.444.444,0,0,1-.449-.336.412.412,0,0,1,.371-.467c.4-.06,9.735-1.454,13.916-.29a.4.4,0,0,1,.3.507.47.47,0,0,1-.574.265c-3.97-1.1-13.393.3-13.488.318A.538.538,0,0,1,277.46,583.4Z" transform="translate(-242.755 -509.898)" fill="#ee9849"/>
        <path id="Path_102" data-name="Path 102" d="M286.093,605.086a.445.445,0,0,1-.45-.336.413.413,0,0,1,.371-.467c.4-.061,9.735-1.455,13.916-.291a.4.4,0,0,1,.3.507.469.469,0,0,1-.573.265c-3.973-1.105-13.394.3-13.489.317A.408.408,0,0,1,286.093,605.086Z" transform="translate(-250.319 -528.902)" fill="#ee9849"/>
        <path id="Path_103" data-name="Path 103" d="M309.122,770.31h28.143s-.655-2.72-16.954-2.313C308.776,768.283,309.122,770.31,309.122,770.31Z" transform="translate(-270.898 -672.996)" fill="#ee9849"/>
        <path id="Path_104" data-name="Path 104" d="M290.6,814.377c3.264-14.527,2.424-23.438,2.42-23.553-.009-.224.46-.427.712-.434s1.382-.065,1.512.124c.171.247.828,11.231-4.036,23.865Z" transform="translate(-254.667 -692.645)" fill="#e58638"/>
        <path id="Path_105" data-name="Path 105" d="M450.008,814.377c-3.263-14.527-2.424-23.438-2.42-23.553.009-.224-.46-.427-.712-.434s-1.382-.065-1.512.124c-.171.247-.828,11.231,4.036,23.865Z" transform="translate(-390.183 -692.645)" fill="#e58638"/>
        <path id="Path_106" data-name="Path 106" d="M511.418,814.377c-3.263-14.527-2.424-23.438-2.42-23.553.009-.224-.46-.427-.712-.434s-1.382-.065-1.512.124c-.171.247-.828,11.231,4.035,23.865Z" transform="translate(-443.999 -692.645)" fill="#ce6d25"/>
        <path id="Path_107" data-name="Path 107" d="M357.42,814.377c3.263-14.527,2.421-23.438,2.421-23.553-.009-.224.46-.427.712-.434s1.382-.065,1.512.124c.171.247.828,11.231-4.036,23.865Z" transform="translate(-313.225 -692.645)" fill="#ce6d25"/>
        <path id="Path_108" data-name="Path 108" d="M333.46,787.848H305.034a.435.435,0,0,1-.434-.434h0a.435.435,0,0,1,.434-.434H333.46a.435.435,0,0,1,.434.434h0A.435.435,0,0,1,333.46,787.848Z" transform="translate(-266.936 -689.669)" fill="#e58638"/>
        <path id="Path_109" data-name="Path 109" d="M1268.4,639.312h0a.371.371,0,0,1-.382-.349,56.522,56.522,0,0,0-5.07-24.049c-.089-.173-.072-.56.494-.61.495-.042.8.064.888.239a53.186,53.186,0,0,1,2.473,6.808,62.5,62.5,0,0,1,1.988,17.622A.371.371,0,0,1,1268.4,639.312Z" transform="translate(-1106.746 -538.337)" fill="#ee9849"/>
        <path id="Path_110" data-name="Path 110" d="M1362.807,639.312h0a.371.371,0,0,1-.382-.349,56.518,56.518,0,0,0-5.07-24.049c-.089-.173-.072-.56.495-.61.495-.042.8.064.888.239a53.117,53.117,0,0,1,2.473,6.808,62.5,62.5,0,0,1,1.988,17.622A.371.371,0,0,1,1362.807,639.312Z" transform="translate(-1189.482 -538.337)" fill="#ee9849"/>
        <path id="Path_111" data-name="Path 111" d="M1276.631,643.539a.378.378,0,0,1-.383-.287.351.351,0,0,1,.318-.4c.336-.051,8.276-1.237,11.83-.247a.339.339,0,0,1,.247.432.4.4,0,0,1-.487.225c-3.375-.939-11.385.257-11.465.27A.414.414,0,0,1,1276.631,643.539Z" transform="translate(-1118.435 -562.804)" fill="#ee9849"/>
        <path id="Path_112" data-name="Path 112" d="M1283.97,661.979a.378.378,0,0,1-.382-.287.351.351,0,0,1,.318-.4c.337-.051,8.275-1.237,11.829-.247a.339.339,0,0,1,.255.432.4.4,0,0,1-.487.225c-3.376-.94-11.385.257-11.465.27A.644.644,0,0,1,1283.97,661.979Z" transform="translate(-1124.868 -578.964)" fill="#ee9849"/>
        <path id="Path_113" data-name="Path 113" d="M1303.543,802.427h23.92s-.558-2.311-14.413-1.966C1303.25,800.7,1303.543,802.427,1303.543,802.427Z" transform="translate(-1142.358 -701.453)" fill="#ee9849"/>
        <path id="Path_114" data-name="Path 114" d="M1287.8,839.876c2.773-12.348,2.06-19.924,2.057-20.019-.007-.19.391-.362.606-.371s1.173-.057,1.285.106c.145.213.7,9.548-3.43,20.279Z" transform="translate(-1128.562 -718.144)" fill="#e58638"/>
        <path id="Path_115" data-name="Path 115" d="M1423.308,839.876c-2.774-12.348-2.061-19.924-2.057-20.019.007-.19-.391-.362-.606-.371s-1.174-.057-1.285.106c-.144.213-.7,9.548,3.43,20.279Z" transform="translate(-1243.76 -718.144)" fill="#e58638"/>
        <path id="Path_116" data-name="Path 116" d="M1475.508,839.876c-2.773-12.348-2.06-19.924-2.056-20.019.006-.19-.392-.362-.607-.371s-1.174-.057-1.285.106c-.145.213-.7,9.548,3.43,20.279Z" transform="translate(-1289.506 -718.144)" fill="#ce6d25"/>
        <path id="Path_117" data-name="Path 117" d="M1344.6,839.876c2.773-12.348,2.061-19.924,2.058-20.019-.008-.19.391-.362.606-.371s1.173-.057,1.285.106c.146.213.7,9.548-3.43,20.279Z" transform="translate(-1178.339 -718.144)" fill="#ce6d25"/>
        <path id="Path_118" data-name="Path 118" d="M1324.217,817.322h-24.166a.371.371,0,0,1-.371-.371h0a.371.371,0,0,1,.371-.371h24.166a.371.371,0,0,1,.371.371h0a.371.371,0,0,1-.371.371Z" transform="translate(-1138.973 -715.609)" fill="#e58638"/>
        <path id="Path_119" data-name="Path 119" d="M1202,579.328H1202a.432.432,0,0,0,.45-.411,66.494,66.494,0,0,1,5.964-28.291c.1-.2.084-.659-.58-.716-.58-.051-.94.076-1.044.28a62.9,62.9,0,0,0-2.916,8.009c-1.406,4.67-2.473,12.316-2.338,20.73A.436.436,0,0,0,1202,579.328Z" transform="translate(-1052.957 -481.904)" fill="#ee9849"/>
        <path id="Path_120" data-name="Path 120" d="M1090.891,579.328h0a.433.433,0,0,0,.452-.411,66.468,66.468,0,0,1,5.964-28.291c.1-.2.084-.659-.58-.716-.58-.051-.94.076-1.044.28a62.9,62.9,0,0,0-2.916,8.009c-1.407,4.67-2.473,12.316-2.338,20.73A.434.434,0,0,0,1090.891,579.328Z" transform="translate(-955.586 -481.904)" fill="#ee9849"/>
        <path id="Path_121" data-name="Path 121" d="M1137.888,584.3a.445.445,0,0,0,.45-.336.413.413,0,0,0-.371-.467c-.4-.061-9.735-1.454-13.916-.291a.4.4,0,0,0-.3.507.469.469,0,0,0,.573.265c3.971-1.1,13.394.3,13.488.317A.4.4,0,0,0,1137.888,584.3Z" transform="translate(-984.784 -510.687)" fill="#ee9849"/>
        <path id="Path_122" data-name="Path 122" d="M1129.252,605.963a.444.444,0,0,0,.449-.336.411.411,0,0,0-.371-.468c-.4-.061-9.735-1.455-13.916-.292a.4.4,0,0,0-.3.508.47.47,0,0,0,.574.265c3.972-1.105,13.392.3,13.488.317A.414.414,0,0,0,1129.252,605.963Z" transform="translate(-977.214 -529.67)" fill="#ee9849"/>
        <path id="Path_123" data-name="Path 123" d="M1010.284,771.21H982.14s.655-2.72,16.955-2.314C1010.629,769.182,1010.284,771.21,1010.284,771.21Z" transform="translate(-860.697 -673.785)" fill="#ee9849"/>
        <path id="Path_124" data-name="Path 124" d="M1194.46,815.293c-3.264-14.524-2.425-23.437-2.421-23.549.009-.224-.46-.427-.712-.434s-1.381-.066-1.512.124c-.171.247-.827,11.232,4.036,23.865Z" transform="translate(-1042.582 -693.451)" fill="#e58638"/>
        <path id="Path_125" data-name="Path 125" d="M1035.05,815.293c3.263-14.524,2.425-23.437,2.42-23.549-.007-.224.461-.427.713-.434s1.381-.066,1.511.124c.172.247.828,11.232-4.035,23.865Z" transform="translate(-907.065 -693.451)" fill="#e58638"/>
        <path id="Path_126" data-name="Path 126" d="M973.64,815.293c3.263-14.524,2.425-23.437,2.42-23.549-.007-.224.461-.427.714-.434s1.381-.066,1.512.124c.171.247.827,11.232-4.036,23.865Z" transform="translate(-853.248 -693.451)" fill="#ce6d25"/>
        <path id="Path_127" data-name="Path 127" d="M1127.641,815.293c-3.263-14.524-2.425-23.437-2.421-23.549.009-.224-.46-.427-.712-.434s-1.381-.066-1.512.124c-.171.247-.827,11.232,4.036,23.865Z" transform="translate(-984.025 -693.451)" fill="#ce6d25"/>
        <path id="Path_128" data-name="Path 128" d="M977.774,788.768h28.43a.435.435,0,0,0,.434-.434h0a.435.435,0,0,0-.434-.434h-28.43a.435.435,0,0,0-.434.434h0A.435.435,0,0,0,977.774,788.768Z" transform="translate(-856.491 -690.475)" fill="#e58638"/>
        <path id="Path_129" data-name="Path 129" d="M589.627,617.808s1.645-1.024,2.359-.866,2.668.715,2.732,1.521-2.794,2.08-4.905,1.36S589.627,617.808,589.627,617.808Z" transform="translate(-516.015 -540.642)" fill="#e49963"/>
        <path id="Path_130" data-name="Path 130" d="M524.769,912.088a.842.842,0,0,0,.481.777h0c.56.308,1.453.072,2.523.025.136-.006.349.258.459.258h.152c1.058.026.946.342,2.957.514,2.292.2,3.137-.506,3.272-.825.114-.271-.865-.578-1.969-.929l-.161-.052c-.146-.046-.293-.1-.439-.142-1.308-.435-2.6-.951-2.917-2.275-.341-1.4.682-5.317.682-5.317l-3.632-.392s-.35,4.1-.578,5.374a13.554,13.554,0,0,1-.618,1.808c-.012.041-.025.082-.036.124A3.955,3.955,0,0,0,524.769,912.088Z" transform="translate(-459.881 -791.983)" fill="#d38957"/>
        <path id="Path_131" data-name="Path 131" d="M534.8,963.879c-.072.171-.224.67-1.186.873h-3.644l-.033-.015a6.991,6.991,0,0,0-2.918-.606,8.95,8.95,0,0,1-1.042-.043h0a1.389,1.389,0,0,1-.474-.147h0c-.021-.012-.042-.023-.062-.037h0a.436.436,0,0,1-.053-.032h0a1.069,1.069,0,0,1-.094-.065c-.016-.011-.03-.022-.044-.035l-.041-.038-.03-.028c-.016-.017-.032-.037-.048-.057h0c-.009-.012-.017-.023-.025-.036a.31.31,0,0,1-.026-.04h0a.278.278,0,0,1-.019-.035h0l-.011-.024c0-.011-.011-.023-.016-.035a.462.462,0,0,1-.019-.052.289.289,0,0,1-.013-.042.35.35,0,0,0-.014-.057.261.261,0,0,1-.007-.046.313.313,0,0,1,0-.032V963.2a.609.609,0,0,1,0-.067v-.179a.532.532,0,0,1,0-.059.288.288,0,0,1,.009-.085V962.8a.114.114,0,0,1,.009-.053.435.435,0,0,0,.014-.08c.008-.047.017-.093.027-.138a.335.335,0,0,1,.012-.057c.01-.043.021-.087.031-.124a.253.253,0,0,1,.017-.064l.033-.124a.252.252,0,0,1,.017-.064l.037-.124c1.093.254,2.612,1.015,4.141,1.3l.069.012a6.69,6.69,0,0,0,2.175.015,6.4,6.4,0,0,0,1.271-.327C533.932,963.3,534.916,963.608,534.8,963.879Z" transform="translate(-460.068 -843.021)" fill="#2f5791"/>
        <path id="Path_132" data-name="Path 132" d="M529.429,977.407v-.73l-.067-.01-1.632-.257.061.115h0l.04.074.12.225h0l.31.581Z" transform="translate(-462.476 -855.676)" fill="#2f5791"/>
        <path id="Path_133" data-name="Path 133" d="M369.714,680.91l11.757-1.12s17.994.082,19.669,2.457c0,0,3.215,2.226-.419,11.43s-7.9,18.4-7.9,18.4a8.292,8.292,0,0,1-2.576.181,10.094,10.094,0,0,1-1.381-.247s.82-13.735,2.635-19.079,2.374-4.305-.838-4.009-13.547,2.672-18.3,2.078S369.714,680.91,369.714,680.91Z" transform="translate(-323.592 -595.733)" fill="#b74b42"/>
        <path id="Path_134" data-name="Path 134" d="M506.439,912.088a.843.843,0,0,0,.482.777h0c.559.308,1.453.072,2.521.025.137-.006.349.258.459.258h.152c1.057.026.946.342,2.956.514,2.291.2,3.136-.506,3.271-.825.114-.271-.865-.578-1.968-.929l-.159-.052c-.146-.046-.293-.1-.44-.142-1.308-.435-2.6-.951-2.917-2.275-.34-1.4.684-5.317.684-5.317l-3.632-.392s-.35,4.1-.579,5.374a13.391,13.391,0,0,1-.618,1.808q-.021.062-.037.124A4.059,4.059,0,0,0,506.439,912.088Z" transform="translate(-443.817 -791.983)" fill="#e49963"/>
        <path id="Path_135" data-name="Path 135" d="M353.952,689l11.026-.931s17.992.079,19.669,2.379c0,0,2.72,1.7-.913,10.618s-7.31,18.724-7.31,18.724a9.281,9.281,0,0,1-1.8.031,2.8,2.8,0,0,1-1.652-.5s.256-12.2,2.071-17.373,2.514-4.649-.7-4.362-12.241,2.541-18.47,1.349C351.173,698.033,353.952,689,353.952,689Z" transform="translate(-309.471 -602.989)" fill="#c65447"/>
        <path id="Path_136" data-name="Path 136" d="M516.477,963.827a.141.141,0,0,1-.009.043,1.287,1.287,0,0,1-.989.826c-.061.017-.124.033-.193.047h-3.65a7.243,7.243,0,0,0-.685-.268,6.573,6.573,0,0,0-1.476-.313h0c-.284-.027-.547-.037-.788-.04a3.1,3.1,0,0,1-1.579-.228h0a.437.437,0,0,1-.053-.032h0a1.018,1.018,0,0,1-.094-.066c-.015-.011-.03-.022-.043-.035l-.042-.038c-.009-.01-.019-.019-.029-.028l-.028-.032a.3.3,0,0,1-.026-.033l-.015-.021c-.01-.012-.017-.025-.026-.037a.237.237,0,0,1-.02-.035q-.016-.028-.03-.058h0a.343.343,0,0,1-.015-.04c0-.01-.009-.021-.011-.029h0l-.011-.037a.332.332,0,0,0-.01-.046c0-.016-.006-.03-.009-.046s0-.02,0-.03h0v-.112a3.96,3.96,0,0,1,.187-1.056c.01-.041.022-.081.036-.124a21.154,21.154,0,0,1,2.09.7,13.559,13.559,0,0,0,2.05.6,6.693,6.693,0,0,0,2.336.012,6.292,6.292,0,0,0,1.181-.312c.355.112.7.221.989.326l.166.059.148.057c.048.017.094.036.136.055l.064.027.061.027c.038.017.075.036.109.054l.049.026c.031.017.061.035.086.052s.04.028.057.041l.033.03.016.017a.193.193,0,0,1,.048.07.091.091,0,0,1,0,.017h0Z" transform="translate(-443.999 -843.013)" fill="#365da4"/>
        <path id="Path_137" data-name="Path 137" d="M511.1,976.677v.73h-1.166l-.471-.88h0l-.061-.115,1.633.257Z" transform="translate(-446.412 -855.676)" fill="#365da4"/>
        <path id="Path_138" data-name="Path 138" d="M494.825,483.229a1.167,1.167,0,0,1-.088.293c-.466,1.024-10.151,2.328-11.361,1.677-.54-.292-1.328-5.175-2.032-10.486-.866-6.565-1.615-13.783-1.615-13.783s4.02,1.269,4.485,3.41.559,15.365,1.769,16.012,6.332.093,8.1.371A4.606,4.606,0,0,1,494.825,483.229Z" transform="translate(-420.411 -403.935)" fill="#ee9849"/>
        <path id="Path_139" data-name="Path 139" d="M419.376,332.557a3.694,3.694,0,0,0-2.548-.487,1.181,1.181,0,0,1,.537-.256,3.954,3.954,0,0,0-1.41.371s-3.687-1.888-5.395,2.954c0,0,.294-.371.7-.781-.989,2.786.01,7,3.12,7.749C416.4,342.589,427.088,338.756,419.376,332.557Z" transform="translate(-359.794 -290.779)" fill="#163560"/>
        <path id="Path_140" data-name="Path 140" d="M441.544,427.187a5.586,5.586,0,0,1-3.431.627,4.45,4.45,0,0,1-2.285-2.191c.59-.117.76-.929.748-4.413l.267.052,4.486.889s-.1,1.412-.105,2.741C441.22,426.006,441.289,427.069,441.544,427.187Z" transform="translate(-381.937 -369.127)" fill="#e49963"/>
        <path id="Path_141" data-name="Path 141" d="M448.526,422.519s-.1,1.412-.105,2.741c-2.511-.07-3.833-2.36-4.381-3.63Z" transform="translate(-389.134 -369.495)" fill="#d68d5d"/>
        <path id="Path_142" data-name="Path 142" d="M428.457,352.361a13.2,13.2,0,0,1-1.631-3.857c-.226-1.269.42-5.972,5.148-5.295a6.411,6.411,0,0,1,2.662,1.007c1.026.692,2.508,2.19.852,6.294l-.43,1.386Z" transform="translate(-374.014 -300.713)" fill="#163560"/>
        <path id="Path_143" data-name="Path 143" d="M444.486,367.974s-5.935.1-5.944-3.6-.774-6.183,3.018-6.4,4.531,1.192,4.832,2.427S446.03,367.85,444.486,367.974Z" transform="translate(-384.256 -313.691)" fill="#e49963"/>
        <path id="Path_144" data-name="Path 144" d="M430.758,352.07s-1.626,4.34-4.12,4.983-3.578-.027-3.578-.027a7.066,7.066,0,0,0,2.312-4.176S429.532,350,430.758,352.07Z" transform="translate(-370.748 -307.877)" fill="#163560"/>
        <path id="Path_145" data-name="Path 145" d="M498.78,501.481c-.1-.422.786-.742,1-.364a7.884,7.884,0,0,1,.652,2.3,14.847,14.847,0,0,1,0,4.78Z" transform="translate(-437.098 -439.006)" fill="#e58638"/>
        <path id="Path_146" data-name="Path 146" d="M482.06,355.234a5.255,5.255,0,0,1,1.511,1.912c.3.942.429,2.881.989,2.816,0,0,1.225-2.95-.152-4.62C482.953,353.572,482.06,355.234,482.06,355.234Z" transform="translate(-422.453 -310.689)" fill="#163560"/>
        <path id="Path_147" data-name="Path 147" d="M476.42,418.737s.11.47,1.28.4c0,0,.982-.061.952-.577A3.159,3.159,0,0,0,476.42,418.737Z" transform="translate(-417.51 -366.695)" fill="#fff"/>
        <path id="Path_148" data-name="Path 148" d="M513.261,571.635a1.168,1.168,0,0,1-.088.293c-.466,1.024-10.15,2.328-11.361,1.677-.54-.292-1.49-6.363-.807-11.795.732,3.106.955,9.477,2.67,9.777C505.618,571.927,510.721,571.278,513.261,571.635Z" transform="translate(-438.846 -492.342)" fill="#e58638"/>
        <path id="Path_149" data-name="Path 149" d="M374.367,469.813c-2.408,11.6-.392,13.385-1.645,14.522-.006,0-1.113.482-1.113.495-1.3,1.13-1.337-.24-5.434,1.536A65.851,65.851,0,0,1,359.537,489a13.654,13.654,0,0,1-2.287.514c-1.317.155-2.3-.075-2.62-.964-.931-2.584,3.539-9.447,2.421-14.13-.009-.04-.019-.082-.026-.124a5.1,5.1,0,0,1-.054-1.4c.209-2.613,1.855-6.41,3.569-9.652,1.887-3.577,3.847-6.478,4.022-6.374,4.978,2.955,5.428.495,5.428.495S375.188,465.855,374.367,469.813Z" transform="translate(-310.666 -400.376)" fill="#ee9849"/>
        <path id="Path_150" data-name="Path 150" d="M371.936,546.695h0c-1.3,1.13-1.731-.077-5.83,1.7a65.862,65.862,0,0,1-6.639,2.631,14.359,14.359,0,0,0-2.288.514c-1.317.154-2.3-.075-2.62-.965-.931-2.584,3.539-9.447,2.421-14.13-.009-.04-.019-.082-.026-.124a4.3,4.3,0,0,1-.054-1.4c.235-1.978,1.7-4.139,3.35-7.276,1.105,1.168,9.414-.187,7.449,11.36C367.1,542.552,371.424,543.948,371.936,546.695Z" transform="translate(-310.605 -462.405)" fill="#e58638"/>
        <path id="Path_151" data-name="Path 151" d="M606.479,623.3h0a1.95,1.95,0,0,0,3.416-1.287v-.762a2.016,2.016,0,0,0-.016-.247H606a13.522,13.522,0,0,0,.086,1.445A1.786,1.786,0,0,0,606.479,623.3Z" transform="translate(-531.068 -544.213)" fill="#c45446"/>
        <path id="Path_152" data-name="Path 152" d="M619.2,621h-.526a1.8,1.8,0,0,1,.016.247v.76A1.958,1.958,0,0,1,617,623.942a1.865,1.865,0,0,0,.262.018,1.959,1.959,0,0,0,1.952-1.953v-.76A1.993,1.993,0,0,0,619.2,621Z" transform="translate(-540.707 -544.213)" fill="#e37970"/>
        <rect id="Rectangle_15" data-name="Rectangle 15" width="1.594" height="0.239" transform="translate(77.671 79.817) rotate(180)" fill="#c45446"/>
        <path id="Path_153" data-name="Path 153" d="M487.11,684.855a6.158,6.158,0,0,1,2.67-.093c.838.341,2.515,1.211,2.359,1.675s-2.142.715-2.98.247-1.459.124-2.483-.217S487.11,684.855,487.11,684.855Z" transform="translate(-426.179 -599.976)" fill="#e49963"/>
        <path id="Path_154" data-name="Path 154" d="M374.378,456.9s-6.755.09-7.966,3.35-.838,14.714.931,18.158,11.826,8.1,12.944,8.285,1.815-1.536,1.77-1.722-10.57-8.706-10.523-9.592S374.378,456.9,374.378,456.9Z" transform="translate(-320.487 -400.404)" fill="#ee9849"/>
        <path id="Path_155" data-name="Path 155" d="M805.046,545.432a28.337,28.337,0,0,0-2.1-2.338,6.424,6.424,0,0,0-2.094-.594c-.093.087-.1.214.1.392s.973.628.866.679-2.436-1.113-2.771-.717.19,2,1.086,2.767,3.571,1.1,3.739,1.207C805.3,547.745,805.046,545.432,805.046,545.432Z" transform="translate(-700.156 -475.409)" fill="#ed975d"/>
        <path id="Path_156" data-name="Path 156" d="M909.24,914.4a.813.813,0,0,1-.481.752h0a5.766,5.766,0,0,1-2.611.285c-.136,0-.26-.01-.371-.01h-.152c-1.058.025-.946.331-2.957.495-2.292.189-3.137-.495-3.272-.8-.114-.263.866-.56,1.969-.9l.161-.05.439-.138c1.308-.422,2.6-.921,2.918-2.2.34-1.36-.684-5.158-.684-5.158l3.632-.38s.35,3.969.577,5.206a12.794,12.794,0,0,0,.618,1.751c.012.04.025.079.036.124A3.742,3.742,0,0,1,909.24,914.4Z" transform="translate(-788.177 -794.226)" fill="#e49963"/>
        <path id="Path_157" data-name="Path 157" d="M909.257,963.717a.814.814,0,0,1-.481.752h0a6.669,6.669,0,0,1-2.609.277h-.523c-1.058.025-.946.331-2.957.495-2.292.189-3.137-.495-3.272-.8-.114-.264.866-.56,1.969-.9a7,7,0,0,0,3.517.291c1.528-.279,3.048-1.016,4.14-1.262.012.039.025.079.036.124a3.745,3.745,0,0,1,.181,1.024Z" transform="translate(-788.194 -843.547)" fill="#c65447"/>
        <path id="Path_158" data-name="Path 158" d="M718.987,886.6c-.2,1.009-1.638.841-3.245.449s-1.225.074-3.511-.179-2.979-1.105-3.049-1.44c-.062-.3,1.067-.408,2.279-.548l.459-.054c1.368-.172,2.369-1.055,3.612-1.779,1.177-.686,2.933-3.484,2.933-3.484l3.136.247s-1.646,2.5-2.281,3.586a3.814,3.814,0,0,0-.308,2.137A4.044,4.044,0,0,1,718.987,886.6Z" transform="translate(-621.489 -770.801)" fill="#e49963"/>
        <path id="Path_159" data-name="Path 159" d="M715.742,924.737c-1.607-.393-1.225.074-3.511-.179s-2.979-1.105-3.049-1.441c-.062-.3,1.067-.408,2.279-.548l.011.024a6.448,6.448,0,0,0,3.274,1.019c1.551.037,3.194-.407,4.265-.39a4.045,4.045,0,0,1-.025,1.072C718.785,925.3,717.349,925.13,715.742,924.737Z" transform="translate(-621.489 -808.493)" fill="#c65447"/>
        <path id="Path_160" data-name="Path 160" d="M885.65,738.73l6.758,18.177a6.183,6.183,0,0,0,2.033-.187,8.747,8.747,0,0,0,1.965-.957s-1.675-17.448-4.748-21.084S885.65,738.73,885.65,738.73Z" transform="translate(-776.138 -642.98)" fill="#365da4"/>
        <path id="Path_161" data-name="Path 161" d="M810.674,676.858s-19.413-6.565-23.741-5.169S769.6,698.951,769.6,698.951a2.507,2.507,0,0,0,1.094.691,10.293,10.293,0,0,0,2.547.261s11.733-10.057,13.129-12.983,1.956-5.728,3.352-5.448,18.018,6.844,21.789,2.933a10.892,10.892,0,0,0,2.786-8.992Z" transform="translate(-674.438 -588.463)" fill="#466aa5"/>
        <path id="Path_162" data-name="Path 162" d="M992.8,350.872a11.016,11.016,0,0,1-.826-3.8,11.554,11.554,0,0,0,1.36,4.2c4.037,2.651,11.776,11.5,11.623,13.18,0,0,2.72-4.624,2.774-4.652,0,0,5.028-6.394-.931-10.057-3.03-1.862-3.014-4.251-2.887-6.326s-.826-11-6.893-8.672a4.006,4.006,0,0,0-1.41-.371,1.189,1.189,0,0,1,.537.255,4.7,4.7,0,0,0-2.549.487C991.37,336.385,989.38,347.725,992.8,350.872Z" transform="translate(-868.427 -293.017)" fill="#b74b42"/>
        <path id="Path_163" data-name="Path 163" d="M1012.059,429.829a5.6,5.6,0,0,0,3.431.626,4.444,4.444,0,0,0,2.285-2.191c-.59-.116-.76-.927-.742-4.413l-.266.053-4.487.888s.1,1.412.106,2.743C1012.383,428.65,1012.315,429.709,1012.059,429.829Z" transform="translate(-886.917 -371.441)" fill="#e49963"/>
        <path id="Path_164" data-name="Path 164" d="M1013.8,425.168s.1,1.412.106,2.743c2.51-.072,3.833-2.362,4.381-3.63Z" transform="translate(-888.442 -371.817)" fill="#d68d5d"/>
        <path id="Path_165" data-name="Path 165" d="M998.731,355a13.206,13.206,0,0,0,1.632-3.857c.225-1.269-.422-5.972-5.149-5.295a6.411,6.411,0,0,0-2.662,1.007c-1.026.694-2.508,2.19-.852,6.294l.431,1.387Z" transform="translate(-868.424 -303.027)" fill="#b74b42"/>
        <path id="Path_166" data-name="Path 166" d="M993.013,370.624s5.935.1,5.943-3.6.774-6.183-3.018-6.4-4.532,1.192-4.829,2.426S991.471,370.5,993.013,370.624Z" transform="translate(-868.496 -316.013)" fill="#e49963"/>
        <path id="Path_167" data-name="Path 167" d="M1008.8,354.689s1.627,4.341,4.123,4.983,3.578-.027,3.578-.027a7.066,7.066,0,0,1-2.312-4.176S1010.026,352.629,1008.8,354.689Z" transform="translate(-884.061 -310.174)" fill="#b74b42"/>
        <path id="Path_168" data-name="Path 168" d="M990.746,357.877a5.242,5.242,0,0,0-1.51,1.912c-.3.942-.43,2.882-1,2.815,0,0-1.225-2.95.152-4.618C989.853,356.215,990.746,357.877,990.746,357.877Z" transform="translate(-865.604 -313.005)" fill="#b74b42"/>
        <path id="Path_169" data-name="Path 169" d="M869.724,477.064c.585-2.456-1.407-7.222-3.488-11.169-1.887-3.576-3.847-6.478-4.022-6.374-4.978,2.955-5.428.495-5.428.495s-4.521.6-5.8,2.806c-1.771,3.048-3.7,12.193-5.6,12.058-.866-.063-9.622-3.352-9.622-3.352a3.836,3.836,0,0,0-1.179,3.042,92.308,92.308,0,0,0,7.977,4.741c1.933.977,3.68,1.661,4.5,1.467,1.666-.392,4.266-4.251,5.671-6.524l.01-.015c1.793,10.152-.645,12.464.59,13.535,1.3,1.13,3.166-.538,7.262,1.237,2.688,1.166,6.417,2.851,8.927,3.145,1.317.155,2.3-.074,2.62-.963C873.08,488.611,868.612,481.748,869.724,477.064Z" transform="translate(-731.359 -402.698)" fill="#699dee"/>
        <path id="Path_170" data-name="Path 170" d="M1001.877,421.38s-.11.47-1.28.4c0,0-.982-.061-.952-.576A3.154,3.154,0,0,1,1001.877,421.38Z" transform="translate(-876.037 -369.012)" fill="#fff"/>
        <path id="Path_171" data-name="Path 171" d="M1055.115,568.85c-.32.889-1.3,1.113-2.62.963-1.738-.757-9.244-3.665-9.16-5.636.124-2.917,1.443-3.01.512-6.61-.742-2.892,6.182-8.268,7.3-9.437,2.081,3.947,2.138,4.134,1.553,6.589C1051.578,559.4,1056.046,566.266,1055.115,568.85Z" transform="translate(-914.325 -480.353)" fill="#3b76ca"/>
        <path id="Path_172" data-name="Path 172" d="M909.552,575.156c-1.4,2.273-4.005,6.132-5.671,6.524-.821.194-2.568-.495-4.5-1.467a11.7,11.7,0,0,0,4.113.225c1.443-.14,1.862-1.909,4.144-4.563C909.116,574.156,909.48,574.589,909.552,575.156Z" transform="translate(-788.171 -503.598)" fill="#3b76ca"/>
        <path id="Path_173" data-name="Path 173" d="M987.392,617.653a1.278,1.278,0,0,0-.8-.015v-.371a1.994,1.994,0,0,0-.016-.247h-3.873a2.018,2.018,0,0,0-.016.247v.759a1.95,1.95,0,0,0,3.417,1.288h0a3.061,3.061,0,0,0,1.21-.57C987.6,618.4,987.7,617.842,987.392,617.653Zm-.205.7c-.1.247-.537.388-.753.442a1.918,1.918,0,0,0,.156-.642.565.565,0,0,1,.495-.262C987.234,617.921,987.311,618.036,987.187,618.355Z" transform="translate(-861.179 -540.725)" fill="#c45446"/>
        <path id="Path_174" data-name="Path 174" d="M985.248,617.247v.76a1.959,1.959,0,0,0,1.948,1.951,1.838,1.838,0,0,0,.262-.019,1.958,1.958,0,0,1-1.689-1.934v-.759a1.8,1.8,0,0,1,.016-.247h-.526A1.993,1.993,0,0,0,985.248,617.247Z" transform="translate(-863.421 -540.707)" fill="#e37970"/>
        <rect id="Rectangle_16" data-name="Rectangle 16" width="1.594" height="0.239" transform="translate(122.664 79.081)" fill="#c45446"/>
        <path id="Path_175" data-name="Path 175" d="M1008.328,618.361a3.563,3.563,0,0,0-2.444-.742c-1.188.236-1.77,1.047-1.723,1.419a2.121,2.121,0,0,0,1.583,1.514,17.079,17.079,0,0,0,3.492-.559Z" transform="translate(-879.993 -541.218)" fill="#e49963"/>
        <path id="Path_176" data-name="Path 176" d="M1037.052,459.54s4.841.3,6.516,2.636c2.359,3.29,6.457,16.723,5.339,19.8,0,0-4.6.483-7.878.483-1.713,0-6.85-.545-6.85-.545a4.344,4.344,0,0,1,.14-2.473c.5-.8,8.567-2.111,8.939-2.483s-4.655-7.263-4.655-8.381S1037.052,459.54,1037.052,459.54Z" transform="translate(-906.193 -402.717)" fill="#699dee"/>
        <path id="Path_177" data-name="Path 177" d="M564.33,650.93H498.476a1.28,1.28,0,0,0-1.276,1.277v1.667a1.28,1.28,0,0,0,1.276,1.276H530.3v32.265c-5.6.224-10.366,2.145-12.311,4.758h26.748c-1.931-2.622-6.624-4.532-12.224-4.758V655.15h31.82a1.28,1.28,0,0,0,1.277-1.276v-1.667A1.281,1.281,0,0,0,564.33,650.93Z" transform="translate(-435.721 -570.442)" fill="#2b478b"/>
        <path id="Path_178" data-name="Path 178" d="M1502.394,692.91h-44.006a.981.981,0,0,0-.978.978v1.731a.981.981,0,0,0,.978.978h21.036v28.2c-4.887.194-8.986,1.855-10.686,4.136l23.306.024c-1.686-2.292-5.79-3.957-10.685-4.158V696.6h21.035a.98.98,0,0,0,.978-.978v-1.731a.98.98,0,0,0-.978-.979Z" transform="translate(-1277.199 -607.231)" fill="#2b478b"/>
        <path id="Path_179" data-name="Path 179" d="M66.639,484.063c-1.688.423-12.51.282-12.229,1.688S62,489.406,66.076,488.14c0,0-4.5,11.1-10.4,10.542s-7.731-4.214-11.387-4.5-6.324.7-4.491,1.685,8.011.324,10.963,2.832,5.342,4.057-.14,5.181a28.683,28.683,0,0,1-12.107-.36,52.512,52.512,0,0,1-.906-13.15q.068-1.037.189-2.073a34.771,34.771,0,0,1,6.981-17.572,17.615,17.615,0,0,1,6.118-1.144s-6.889,11.668-4.638,11.387,9.985-12.088,9.985-12.088,11.385-2.1,13.212,4.639S68.325,483.642,66.639,484.063Z" transform="translate(-32.872 -410.633)" fill="#6bb7bf"/>
        <path id="Path_180" data-name="Path 180" d="M64.863,525.74C50.4,531.595,42.5,536.569,38.25,540.472q.068-1.037.189-2.074C47.887,531.344,64.024,526.019,64.863,525.74Z" transform="translate(-33.52 -460.732)" fill="#599dad"/>
        <path id="Path_181" data-name="Path 181" d="M53.343,784.621c-.495-1.538-.941-3.13-1.343-4.761l.1-.11s4.855,1.751,6.007,3.177C58.108,782.927,53.924,783.964,53.343,784.621Z" transform="translate(-45.57 -683.333)" fill="#599dad"/>
        <path id="Path_182" data-name="Path 182" d="M72.621,822.015c-1.484,2.526-3.355,2.634-3.974,2.255-.495-.305-2.615-2.473-3.606-3.064q-.466-1.237-.91-2.539c-.045-.124-.088-.262-.132-.4q-.157-.468-.309-.944c1.052.451,6.441-.618,6.441-.618S74.1,819.49,72.621,822.015Z" transform="translate(-55.815 -715.723)" fill="#599dad"/>
        <path id="Path_183" data-name="Path 183" d="M72.636,832.177a65.578,65.578,0,0,0-6.314-2.4c-.045-.124-.088-.262-.132-.4A58.757,58.757,0,0,1,72.636,832.177Z" transform="translate(-58.006 -726.826)" fill="#599dad"/>
        <path id="Path_184" data-name="Path 184" d="M1548.4,939.8s2.618,2.616,3.267,3.257,3.091.36,3.755,2.25h-6.638a7.339,7.339,0,0,0-4.2-1.143s-.487-1.808,0-2.508a5.313,5.313,0,0,0,.667-1.855Z" transform="translate(-1353.397 -823.593)" fill="#a53934"/>
        <path id="Path_185" data-name="Path 185" d="M1546.14,974.627l.335,1.142h2.349V974.8A6.486,6.486,0,0,0,1546.14,974.627Z" transform="translate(-1354.958 -854.055)" fill="#a53934"/>
        <path id="Path_186" data-name="Path 186" d="M1544.356,783.48s-.124,12.406.883,19.329h3.149l2.226-13.072Z" transform="translate(-1353.39 -686.602)" fill="#233862"/>
        <path id="Path_187" data-name="Path 187" d="M1370.838,759.912h-3.149c-.151-.157-9.811-10.17-11.319-16.462a16.9,16.9,0,0,0-1.988-.033c-.317.015-.649.04-.979.081-1.461.183-20.615.884-21.62-.124s-.6-6.791-.6-6.791l1.882-1,1.99-1.055s22.089.347,24.391,2.084S1367.137,749.907,1370.838,759.912Z" transform="translate(-1166.508 -643.705)" fill="#365da4"/>
        <path id="Path_188" data-name="Path 188" d="M1623.865,939.8s2.618,2.624,3.267,3.268,3.085.36,3.755,2.257h-6.637a7.325,7.325,0,0,0-4.2-1.146s-.487-1.813,0-2.515a5.391,5.391,0,0,0,.67-1.863Z" transform="translate(-1419.536 -823.593)" fill="#b64c41"/>
        <path id="Path_189" data-name="Path 189" d="M1621.59,974.628l.335,1.142h2.349V974.8A6.488,6.488,0,0,0,1621.59,974.628Z" transform="translate(-1421.079 -854.055)" fill="#b64c41"/>
        <path id="Path_190" data-name="Path 190" d="M1354.341,750.882c-.317.015-.649.039-.979.08-1.461.183-20.615.884-21.62-.124s-.6-6.791-.6-6.791l1.882-1,3.164,1.342S1335.718,750.367,1354.341,750.882Z" transform="translate(-1166.473 -651.171)" fill="#2d427c"/>
        <path id="Path_191" data-name="Path 191" d="M1373.724,576.711a1.808,1.808,0,0,0-1.548-1.282,6.413,6.413,0,0,0-1.876.151,4.439,4.439,0,0,1-2.091-.225,56.925,56.925,0,0,1-5.907-2.362c-2.4-1.494-6.743-11.182-8.221-10a4.7,4.7,0,0,0-.866,4.9c1.045,3.1,5.193,7.37,7.715,8.058a53.2,53.2,0,0,0,7.364.815c.8.1,1.892.568,2.183.59.322.026,1.04-.453,1.537-.382C1373.831,577.234,1373.724,576.711,1373.724,576.711Z" transform="translate(-1185.615 -493.291)" fill="#ea8e50"/>
        <path id="Path_192" data-name="Path 192" d="M1326.419,529.276a43.45,43.45,0,0,1-6.059-.427,12.2,12.2,0,0,0,.877-4.55v-.009l.7.037,3.306.177a1.261,1.261,0,0,1-.01.132c-.031.446-.124,1.905-.113,2.728a3.538,3.538,0,0,0,.22,1.031C1325.7,528.706,1326.06,528.994,1326.419,529.276Z" transform="translate(-1157.096 -459.461)" fill="#ffb07b"/>
        <path id="Path_193" data-name="Path 193" d="M1288.18,439.3c-.048-.189-.655-2.226-3.825-1.633,0,0,1.588-.158,2.005.462a2.6,2.6,0,0,0-2.038-.146c-.8.46-.968,2.075-.866,2.571s.935,1.978,1.51,2a1.7,1.7,0,0,0,.659-.146,7.476,7.476,0,0,0-.256.848c-.684,2.855,1.168,5.086,2.17,4.575.642-.33,1.093.79,1.093.79l5.433-6.828S1290.52,437.3,1288.18,439.3Z" transform="translate(-1124.732 -383.455)" fill="#2c3a64"/>
        <path id="Path_194" data-name="Path 194" d="M1331.153,527.145c-2-.237-3.284-2-3.883-3.067l-.021-.038.721.068,3.3.309C1331.236,524.862,1331.138,526.323,1331.153,527.145Z" transform="translate(-1163.134 -459.242)" fill="#ea8e50"/>
        <path id="Path_195" data-name="Path 195" d="M1328.382,480.286s-4.69-.043-4.618-2.968-.484-4.893,2.514-4.988,3.551,1.032,3.764,2.013S1329.6,480.221,1328.382,480.286Z" transform="translate(-1160.079 -413.921)" fill="#ffb07b"/>
        <path id="Path_196" data-name="Path 196" d="M1319.119,468.452c-.7-.9-1.255-.718-1.568-.463a3.28,3.28,0,0,0-4.232.566,5.577,5.577,0,0,1-1.909,3.248,3.887,3.887,0,0,0,2.824.094,3.354,3.354,0,0,0,1.624-1.06,10.969,10.969,0,0,1-1.941,2.25c2.38-1.027,3.41-4.276,3.513-4.62a3.705,3.705,0,0,1,.989,1.39c.215.749.281,2.282.728,2.242C1319.149,472.1,1320.171,469.8,1319.119,468.452Z" transform="translate(-1149.253 -409.654)" fill="#2c3a64"/>
        <path id="Path_197" data-name="Path 197" d="M1390.925,608.39s3.014,3.9,3.7,3.957.365,2.655,0,3.322-2.712,2.1-4.21.559S1390.925,608.39,1390.925,608.39Z" transform="translate(-1218.001 -533.162)" fill="#a53934"/>
        <path id="Path_198" data-name="Path 198" d="M1311.875,570.009c-2.238.319-6.144.594-6.91,1.826s-5.629.371-6.028-.411.834-7.089.194-8.161a82.222,82.222,0,0,1-3-7.771,16.767,16.767,0,0,1-.519-1.71c-.152-.932-.727-4.283,1.581-5.266,0,0,1.113-.48,1.211-.875a2.218,2.218,0,0,0,.026-.4h0c0-.534-.01-1.265.51-1.056a5.213,5.213,0,0,0,2.564.882c1.162-.062,2.168-.577,2.32-.247s-.271.781,0,1,3.67,2.281,4.72,5.291a13.136,13.136,0,0,1,.853,3.992v.428a26.308,26.308,0,0,0-.014,3.24c.005.053.011.106.019.16.171,1.267.356,2.466.545,3.392a4.664,4.664,0,0,0,.566,1.751C1311.418,566.995,1314.113,569.689,1311.875,570.009Z" transform="translate(-1135.252 -478.613)" fill="#b64c41"/>
        <path id="Path_199" data-name="Path 199" d="M1327.664,589.443a5.615,5.615,0,0,0-.371-.731,5.95,5.95,0,0,0-1.767-1.583,12.2,12.2,0,0,0-2.693.5s-8.8.116-10.2-.742c-1.826-1.124-6.264-5.773-9.353-8.145-1.471-1.131-2.637-1.745-3.068-1.214,0,0-1.176,1.129.3,3.917q.124.234.273.483c1.889,3.142,9.15,9.2,12.062,9.4s10.309-2.286,10.309-2.286a1.619,1.619,0,0,1,1.166.094c.4.3,1.925.247,2.143.456C1326.876,589.986,1327.762,589.748,1327.664,589.443Z" transform="translate(-1139.05 -505.949)" fill="#ffb07b"/>
        <path id="Path_200" data-name="Path 200" d="M1309.887,635.526c-.764,1.237-5.629.371-6.028-.41s.833-7.089.194-8.161a82.248,82.248,0,0,1-3-7.771.511.511,0,0,1,.628-.34c1.967.54,11.292,7.7,13.182,9.169a4.716,4.716,0,0,0,.566,1.751S1309.6,632.1,1309.887,635.526Z" transform="translate(-1140.174 -542.303)" fill="#a53934"/>
        <path id="Path_201" data-name="Path 201" d="M1336.871,605.888c-2.86-1.217-9.959-8.1-10.062-8.2.082.029,2.372-.989,7.914,4.055a9.189,9.189,0,0,1,1.756,2.28A7.1,7.1,0,0,1,1336.871,605.888Z" transform="translate(-1162.748 -523.728)" fill="#a53934"/>
        <path id="Path_202" data-name="Path 202" d="M1298.685,577a6.526,6.526,0,0,1,2.771,1.269c1.371,1.066,8.215,7.752,9.36,8.037s3.611.148,3.586.866-.578,4.254-1.308,4.893-4.6.943-6.273-.124-9.994-11.084-9.476-13.248S1298.685,577,1298.685,577Z" transform="translate(-1136.907 -505.618)" fill="#b64c41"/>
        <path id="Path_203" data-name="Path 203" d="M1312.7,556.28a16.665,16.665,0,0,0-3.06,0s1.113-.48,1.211-.875a2.253,2.253,0,0,0,.026-.4c.117.481.476.709,1.436.754S1313.431,556.462,1312.7,556.28Z" transform="translate(-1147.702 -486.374)" fill="#a53934"/>
        <path id="Path_204" data-name="Path 204" d="M1546.779,822.342h0c-.151-.157-9.811-10.17-11.319-16.462a3.732,3.732,0,0,1,3.8,1.228C1540.694,808.995,1546.779,822.342,1546.779,822.342Z" transform="translate(-1345.599 -706.134)" fill="#2d427c"/>
        <path id="Path_205" data-name="Path 205" d="M2450.7,519.171a1.832,1.832,0,0,0,.091-.531c.069-2.267.585-3.773-1.731-3.975s-2.8.65-3.005,1.4.089,4.575,1.033,4.676a6.572,6.572,0,0,0,.742-.021c.02.247.054.68.094,1.156.076.908.165,1.971.191,2.216l2.567-.124,1.36-1.689A7.411,7.411,0,0,1,2450.7,519.171Z" transform="translate(-2143.541 -451)" fill="#e49963"/>
        <path id="Path_206" data-name="Path 206" d="M2401.209,736.635a21.429,21.429,0,0,1-1.689,2.416c-1.855,2.349-3.88,4.28-4.233,6.107a8.076,8.076,0,0,1-.327,1.171c-.147.418-.329.858-.539,1.315a40.414,40.414,0,0,1-3.144,5.375c-2.035,3.016-3.948,5.531-3.948,5.531l-3.51-.15c.14-.352,1.671-4.516,3.719-9.6.832-2.065,1.716-4.262,2.568-6.382l.34-.843.768-1.909,3.455-8.581s7.684-2.911,8.482-1.025C2403.81,731.612,2403.273,733.135,2401.209,736.635Z" transform="translate(-2089.058 -639.226)" fill="#163560"/>
        <path id="Path_207" data-name="Path 207" d="M2360.859,954.073s-.179,2.9-.742,2.937c-.074.006-2.844.006-2.844.006l-3.533-.021a1.148,1.148,0,0,1,1.056-1.031,4.789,4.789,0,0,0,3.386-2.27C2358.842,952.258,2360.859,954.073,2360.859,954.073Z" transform="translate(-2062.698 -835.284)" fill="#163560"/>
        <path id="Path_208" data-name="Path 208" d="M2463.987,892.94s2.441,1.569,2.2,2.078c-.032.067-1.381,2.483-1.381,2.483l-1.74,3.075a1.147,1.147,0,0,1-.386-1.424,4.787,4.787,0,0,0-.332-4.063C2461.424,893.813,2463.987,892.94,2463.987,892.94Z" transform="translate(-2157.702 -782.527)" fill="#163560"/>
        <path id="Path_209" data-name="Path 209" d="M2449.943,566.323a23.7,23.7,0,0,1,3.833-.7c.364.14.538.857.538.857l-5.564.957A2.717,2.717,0,0,1,2449.943,566.323Z" transform="translate(-2145.959 -495.672)" fill="#e58638"/>
        <path id="Path_210" data-name="Path 210" d="M2445.073,506.191s.9,2.509,1.4,2.258.962-.46,1.088.335-.377,1.882,1.3,1.589,2.917-5.132,2.258-5.812C2449.213,502.6,2442.459,503.87,2445.073,506.191Z" transform="translate(-2142.217 -441.323)" fill="#163560"/>
        <path id="Path_211" data-name="Path 211" d="M2443.033,591.94c-.919,1.084-8.731.8-11.02-.114a1.65,1.65,0,0,1-.4-.216c-1.345-1.077,1.691-2.023-1.706-10.23v-.012c-2.134-6.075.677-7.838,1.662-8.735,0,0,4.77-1.449,7.373-.643C2442.315,573.036,2444.02,590.773,2443.033,591.94Z" transform="translate(-2128.76 -501.049)" fill="#ee9849"/>
        <path id="Path_212" data-name="Path 212" d="M2440.352,652.514c-.155,1.113-1.054,3.874-2.8,3.915a1.664,1.664,0,0,1-.4-.216c-1.346-1.077,1.691-2.023-1.706-10.23v-.012c.569-.39,1.484-.832,2.086-.156C2438.437,646.851,2440.511,651.358,2440.352,652.514Z" transform="translate(-2134.294 -565.652)" fill="#e58638"/>
        <path id="Path_213" data-name="Path 213" d="M2373.775,732.38s-9.51,5.922-10.587,9.96,12.83,12.651,12.83,12.651a7.075,7.075,0,0,0,1.794-2.333s-6.285-7.532-7.649-9.219c-.837-1.036,12.383-3.586,14-6.1a6.15,6.15,0,0,0,1.038-4.626Z" transform="translate(-2070.926 -641.82)" fill="#1c468a"/>
        <path id="Path_214" data-name="Path 214" d="M2322.624,689.313s-1.458-.626-1.936-.329a5.829,5.829,0,0,0-1.4,1.642c-.1.261-.134.638.327.557s.495-.078.495-.078a4.552,4.552,0,0,1,.959-.624c.184-.006.972.354,1.348-.077A1.329,1.329,0,0,0,2322.624,689.313Z" transform="translate(-2032.453 -603.72)" fill="#e49963"/>
        <path id="Path_215" data-name="Path 215" d="M2354.011,580.41a6.4,6.4,0,0,0-2.428,3.23c-1.044,2.555-2.429,8.285-2.811,8.532s-6.11,1.152-7.816,1.816c0,0-.668,1.2-.036,1.7s8.306.224,8.771.1c3.873-1,5.908-8.644,6.37-9.818S2354.011,580.41,2354.011,580.41Z" transform="translate(-2051.224 -508.642)" fill="#ee9849"/>
        <path id="Path_216" data-name="Path 216" d="M2465.422,822.739v-4.046h4.131a.294.294,0,0,0,.293-.293v-1.1a.294.294,0,0,0-.293-.293h-4.131V803.968a.781.781,0,0,0-.778-.778h-.834a.781.781,0,0,0-.779.778v13.039H2458.9a.294.294,0,0,0-.293.293v1.1a.3.3,0,0,0,.293.293h4.127v4.046c-3.051.23-5.66,1.448-6.346,2.868H2471.6C2470.919,824.187,2468.474,822.969,2465.422,822.739Z" transform="translate(-2152.908 -703.875)" fill="#163560"/>
        <rect id="Rectangle_17" data-name="Rectangle 17" width="21.175" height="5.384" rx="2.692" transform="translate(300.729 98.189)" fill="#ee9849"/>
        <path id="Path_217" data-name="Path 217" d="M728.811,612.28l-.052,1.181-.108,2.469-.049,1.138h-3.135l-.072-1.138-.153-2.469-.073-1.181Z" transform="translate(-635.502 -536.571)" fill="#c45446"/>
        <path id="Path_218" data-name="Path 218" d="M727.705,605.83h-3.712l-.153.8h3.969Z" transform="translate(-634.336 -530.918)" fill="#dde3f2"/>
        <path id="Path_219" data-name="Path 219" d="M729.277,621.83l-.108,2.469h-3.256l-.153-2.469Z" transform="translate(-636.019 -544.94)" fill="#e37970"/>
        <path id="Path_220" data-name="Path 220" d="M775.206,613.5l-.021.485-.016.357-.1,2.275-.009.194-.049,1.138h-3.134l-.071-1.138-.012-.194-.142-2.275-.022-.357-.04-.644.009-.021a1.945,1.945,0,0,1,1.17.147c.439.279.916-.266,1.316-.106s.425.359.742.226A1.565,1.565,0,0,1,775.206,613.5Z" transform="translate(-676.182 -537.453)" fill="#e37970"/>
        <path id="Path_221" data-name="Path 221" d="M775.141,612.28l-.015.338-.021.486-.016.357-.1,2.275-.009.194-.049,1.138H771.8l-.07-1.138-.012-.194-.142-2.275-.022-.357-.04-.644-.011-.179Z" transform="translate(-676.103 -536.571)" fill="#e37970" opacity="0.2"/>
        <path id="Path_222" data-name="Path 222" d="M775.248,598.951v-.057a1.824,1.824,0,0,0-3.648,0v.057Z" transform="translate(-676.191 -523.242)" fill="#e37970" opacity="0.2"/>
        <path id="Path_223" data-name="Path 223" d="M782.678,589.016l-.158-.02c.009-.1.519-6.848.6-7.3a.866.866,0,0,1,.589-.648h.009l2.552-.452.027.157-2.547.451a.706.706,0,0,0-.472.522C783.2,582.169,782.681,588.992,782.678,589.016Z" transform="translate(-685.76 -508.808)" fill="#c45446"/>
        <path id="Path_224" data-name="Path 224" d="M775.465,618.94l-.016.357-.1,2.275h-3.275l-.142-2.275-.022-.357Z" transform="translate(-676.463 -542.407)" fill="#c45446"/>
        <path id="Path_225" data-name="Path 225" d="M681.35,628.042c.01-.031,0-.561.9-.753s.627-.639.627-.639,1.3.635,1.044,1.392S681.35,628.042,681.35,628.042Z" transform="translate(-597.1 -549.164)" fill="#dde3f2"/>
        <path id="Path_226" data-name="Path 226" d="M680.458,637.531H677.83l-.45-1.9h3.47Z" transform="translate(-593.621 -557.034)" fill="#e37970"/>
        <path id="Path_227" data-name="Path 227" d="M1674.586,647.74h-3.712l-.153.8h.164l.073,1.181.155,2.469.07,1.138h3.135l.049-1.138.107-2.469.052-1.181h.165Z" transform="translate(-1464.134 -567.646)" fill="#365da4"/>
        <path id="Path_228" data-name="Path 228" d="M1626.273,668.56s.268.448-.627.639a1.15,1.15,0,0,0-.8.471h-.586l.45,1.9h2.627l.392-1.9h-.385C1627.265,669.045,1626.273,668.56,1626.273,668.56Z" transform="translate(-1423.419 -585.892)" fill="#365da4"/>
        <path id="Path_229" data-name="Path 229" d="M1499.008,622.755a.289.289,0,0,0-.371.172l-2.877,7.913h-8.408a.288.288,0,0,0,0,.575h8.624a.288.288,0,0,0,.28-.256l2.922-8.037A.287.287,0,0,0,1499.008,622.755Z" transform="translate(-1303.203 -545.735)" fill="#a53934"/>
        <path id="Path_230" data-name="Path 230" d="M2929.746,753.2s-5.036-2.82-2.686-6.649a10.017,10.017,0,0,1,3.9-2.955s-1.074,5.708,0,5.842.742-6.447.742-6.447,5.306-2.552,7.387-2.349c0,0-3.291,5.574-2.216,5.441s4.768-5.776,4.768-5.776,5.441-1.006,6.314,2.217-.538,4.835-1.344,5.036-5.978.135-5.842.806,3.626,1.746,5.573,1.141c0,0-2.148,5.306-4.969,5.038s-3.693-2.014-5.441-2.149-3.022.335-2.149.806,3.833.153,5.239,1.353,2.552,1.938-.067,2.473-7.322.2-8.261-1.814Z" transform="translate(-2564.578 -648.636)" fill="#466aa5"/>
        <path id="Path_231" data-name="Path 231" d="M2950.1,767.41s-14.1,4.568-15.716,9.672a10.7,10.7,0,0,1-1.343,4.9h0a9.473,9.473,0,0,0-1.313,4.522h.811a10.872,10.872,0,0,1,.552-3.627h0c0-.01.009-.018.012-.028.038-.087.093-.209.161-.356v-.007c.164-.32.276-.559.345-.732h0a8.407,8.407,0,0,1,1.708-2.651C2935.326,779.1,2932.169,774.663,2950.1,767.41Z" transform="translate(-2569.217 -672.519)" fill="#325384"/>
        <path id="Path_232" data-name="Path 232" d="M2813.505,810.811s3.823-2.139,2.039-5.044a7.593,7.593,0,0,0-2.955-2.242s.815,4.328,0,4.433-.562-4.892-.562-4.892-4.025-1.936-5.6-1.783c0,0,2.5,4.229,1.681,4.128s-3.618-4.382-3.618-4.382-4.126-.764-4.789,1.682.408,3.667,1.019,3.821,4.534.1,4.433.611-2.752,1.326-4.229.866c0,0,1.631,4.025,3.771,3.821s2.8-1.528,4.127-1.63,2.293.255,1.63.611-2.9.118-3.974,1.026-1.935,1.47.051,1.878,5.554.152,6.268-1.376Z" transform="translate(-2453.33 -701.882)" fill="#466aa5"/>
        <path id="Path_233" data-name="Path 233" d="M2829.508,834h.45a6.268,6.268,0,0,0-.619-1.339,8.133,8.133,0,0,1-1.019-3.719c-1.222-3.872-11.922-7.336-11.922-7.336,13.6,5.5,11.209,8.865,11.209,8.865a6.278,6.278,0,0,1,1.293,2.009v.006h0c.055.132.141.317.268.568h0l.115.255A4.979,4.979,0,0,1,2829.508,834Z" transform="translate(-2468.149 -720.017)" fill="#325384"/>
        <path id="Path_234" data-name="Path 234" d="M2873.722,922.743a8.233,8.233,0,0,0,8.233-8.233H2865.49A8.233,8.233,0,0,0,2873.722,922.743Z" transform="translate(-2511.169 -801.43)" fill="#77a4e5"/>
        <path id="Path_235" data-name="Path 235" d="M2882.864,922.68a8.237,8.237,0,0,1-9.254-8.17h2.045a8.233,8.233,0,0,0,7.209,8.17Z" transform="translate(-2518.285 -801.43)" fill="#7cace5"/>
        <path id="Path_236" data-name="Path 236" d="M2880.923,977.276H2864.23a1.016,1.016,0,0,1,1.016-1.016h14.659a1.016,1.016,0,0,1,1.016,1.016Z" transform="translate(-2510.065 -855.544)" fill="#77a4e5"/>
        <rect id="Rectangle_18" data-name="Rectangle 18" width="16.923" height="0.252" transform="translate(354.05 113.08)" fill="#466aa5"/>
      </g>
    </g>
    <g id="Ellipse_13" data-name="Ellipse 13" transform="matrix(0.951, -0.309, 0.309, 0.951, 324.552, 293.921)" fill="none" stroke="#fff" stroke-width="7" stroke-dasharray="19">
      <circle cx="41.048" cy="41.048" r="41.048" stroke="none"/>
      <circle cx="41.048" cy="41.048" r="37.548" fill="none"/>
    </g>
  </g>
</svg>
