<svg xmlns="http://www.w3.org/2000/svg" viewBox="0 0 244.06 102.68"><defs><style>.cls-1{fill:#fff;}</style></defs><g id="Layer_2" data-name="Layer 2"><g id="Ñëîé_1" data-name="Ñëîé 1"><path class="cls-1" d="M244.06,77c0,20.27-18.2,25.68-40.67,25.68H40.69C18.22,102.68,0,97.27,0,77Zm0-51.31C244.06,5.41,225.86,0,203.39,0H40.69C18.22,0,0,5.41,0,25.69ZM30.61,45.54c10.19,7.89,27.41,7.89,37.61,0,16.61-12.83,42.62-12.83,59.21,0,10.21,7.89,27.43,7.89,37.61,0,16.63-12.83,42.62-12.83,59.23,0,5.34,4.14,12.61,6,19.78,5.8-.13-10-9.16-18.13-20.33-18.13H20.36a21.78,21.78,0,0,0-11.78,3.4A46.74,46.74,0,0,1,30.61,45.54ZM213.47,56.91C203.26,49,186,49,175.86,56.91c-8.3,6.42-19,9.64-29.62,9.64s-21.31-3.22-29.59-9.64C106.45,49,89.23,49,79,56.91c-16.58,12.84-42.6,12.84-59.21,0C14.46,52.77,7.2,50.9,0,51.11c0,.15,0,.3,0,.45C0,61.7,9.11,69.91,20.36,69.91H223.72a21.65,21.65,0,0,0,12.62-4A46.76,46.76,0,0,1,213.47,56.91Z"/></g></g></svg>