<svg xmlns="http://www.w3.org/2000/svg" viewBox="0 0 3202.28 990.51"><defs><style>.cls-1{fill:#e9f3fe;}.cls-12,.cls-2{fill:#9fc1f4;}.cls-2{opacity:0.4;}.cls-3{fill:#2c3a64;}.cls-4{fill:#ed985f;}.cls-5{fill:#739cf3;}.cls-6{fill:#35488b;}.cls-7{fill:#ffb27d;}.cls-8{fill:#b84c42;}.cls-9{fill:#d66c67;}.cls-10{fill:#d8dfeb;}.cls-11{fill:#f0d170;}.cls-13{fill:#163560;}.cls-14{fill:#c65447;}.cls-15{fill:#e49963;}.cls-16{fill:#f4be61;}.cls-17{fill:#f2a83d;}.cls-18{fill:#ee9849;}.cls-19{fill:#d68d5d;}.cls-20{fill:#fff;}.cls-21{fill:#a86337;}.cls-22{fill:#dce3f1;}.cls-23{fill:#e57970;}.cls-24{fill:#1c468a;}.cls-25{fill:#b77446;}.cls-26{fill:#2e3552;}.cls-27{fill:#d2e4ff;opacity:0.6;}.cls-28{fill:#8fb0e2;}.cls-29{fill:#365da4;}.cls-30{fill:#285493;}.cls-31{fill:#80bdcc;}.cls-32{fill:#5f9aa8;}.cls-33{fill:#c7def9;}.cls-34{fill:#e58638;}.cls-35{fill:#ce6d25;}.cls-36{fill:#d38957;}.cls-37{fill:#2f5791;}.cls-38{fill:#b74b42;}.cls-39{fill:#c45446;}.cls-40,.cls-55{fill:#e37970;}.cls-41{fill:#ed975d;}.cls-42{fill:#466aa5;}.cls-43{fill:#699dee;}.cls-44{fill:#3b76ca;}.cls-45{fill:#2b478b;}.cls-46{fill:#6bb7bf;}.cls-47{fill:#599dad;}.cls-48{fill:#a53934;}.cls-49{fill:#233862;}.cls-50{fill:#b64c41;}.cls-51{fill:#2d427c;}.cls-52{fill:#ea8e50;}.cls-53{fill:#ffb07b;}.cls-54{fill:#dde3f2;}.cls-55{opacity:0.2;}.cls-56{fill:#325384;}.cls-57{fill:#77a4e5;}.cls-58{fill:#7cace5;}</style></defs><g id="Layer_2" data-name="Layer 2"><g id="_Layer_" data-name="&lt;Layer&gt;"><path class="cls-1" d="M3202.28,530.9c0,2.77,0,5.56,0,8.36-.42,48.26-7.29,97.54-19.26,145.44-1.79,7.21-3.72,14.39-5.74,21.54-32.51,114.5-93.49,218.88-163.82,279.38l-2.22,1.89-363-.35-382.73-.37-2126.07-2S114,946.23,88.61,887.63q-1.42-3.27-2.84-6.64h0c-3.77-8.9-7.51-18.22-11.15-27.91q-3.77-10-7.36-20.53c-.36-1-.71-2.12-1.07-3.2q-1.27-3.78-2.5-7.63c-.29-.84-.55-1.69-.83-2.55v0c-4-12.44-7.61-25.31-10.86-38.5q-3.59-14.46-6.42-29.41c-6.5-34.41-9.7-70.4-7.33-106.35q.55-8.39,1.53-16.77C45.48,578.76,62.37,530,96.28,486c21.92-28.41,50.95-54.78,88.68-78,42.65-26.25,83.9-38.81,125.83-46.24,116.36-20.6,238-1.59,410-125.41q17.21-12.41,35.12-26.76C835.68,145.47,911.71,92,984.26,48L987,46.32c215.73-128.78,375.33,51.07,538.48,58.26C1807.25,117,1813.83-57.21,2335,139.51l.06,0q15.72,5.94,32.09,12.33a533.05,533.05,0,0,0,116.93,30.72q11.63,1.71,23.23,2.8a376.32,376.32,0,0,0,103.33-4.2c210-38.52,353.69-12.94,446.86,49.06q4.5,3,8.84,6.12a303.85,303.85,0,0,1,48.22,42.78c32.06,35.25,54.41,76.7,68.51,121.76A393.16,393.16,0,0,1,3193.55,442q3.39,17.15,5.45,34.74a495,495,0,0,1,3.23,50C3202.25,528.16,3202.26,529.52,3202.28,530.9Z"/><path class="cls-2" d="M993.67,706.24H734.39l-2.72-19.81a4.17,4.17,0,0,0-.36-1.25c1.68-30.42,8.54-55.34,9.75-73.06,2.81-9.59,1-15.13-1.61-18.29l2.15.33c-10.81-9.53-16.14-74.07-16.57-79.62a21.77,21.77,0,0,0-.38-2.73c-.95-6.08-3.92-20.63-11-26.41L684,487.51s-11.44,5.45-19.91,30.57h0a18.9,18.9,0,0,0-4,9.47c-1.38,11.27,5.75,15.61,5.75,15.61-.06-.44-.09-.88-.11-1.32,1,12.94,4.24,28.92,10.18,29.56,0,0,2.47.11,6.1-.13a51.22,51.22,0,0,1-1.79,14.48l-1.94.36,0,0a9,9,0,0,0-1.19.25l-.11,0a7.66,7.66,0,0,0-.94.25c-1.82.46-3.82,1.24-5.54,1.82,0,0-19.12,5.22-46.86,50.77h-4.12c-.53-.23-1.06-.47-1.58-.73a16.38,16.38,0,0,0-1.53-.65l.2-4.57.57-12.91.27-6.18h.86l-.55-4.18H598.33l-.8,4.18h.86l.38,6.18.81,12.91.16,2.55a5.91,5.91,0,0,0-3.12,1.16,2.71,2.71,0,0,0-.7,2.24H586.6l.26-5.95.56-12.91.28-6.18h.85L588,610H568.59l-.8,4.18h.85l.39,6.18.8,12.91.37,5.81-2.53-.36a38.59,38.59,0,0,1-5.46-2.16c-4.71-2.36-17.29-3.93-20-1.41s2.83,12.73,14.3,13a72.51,72.51,0,0,1,9.27.77,281.47,281.47,0,0,0,30.3,11.85c5.54,1.76,11.33,3.4,16.86,4.64a86.5,86.5,0,0,0,14.35,2.15A81.64,81.64,0,0,0,642,659.45c2.8,1.09,5.81,2.22,8.94,3.33l-1.43,16.6c-.52,3.75-.75,14.69-.83,26.86H403.8c-1.45-10.21-3.77-22.75-4.24-27.92-.73-8.1-.43-17.79.16-27.51,7.64-2.55,14.9-5.4,20.41-7.68a84.68,84.68,0,0,0,16.45,9.35c.56,0,1.12-.06,1.7-.11h.07l1.66-.16.23,0,1.55-.19.44-.06,1.37-.2.68-.11,1.16-.19.91-.17.95-.18,1.12-.22.77-.16,1.29-.28.45-.09.1,0c1.3-.29,2.62-.6,4-.94l.23-.05c1.31-.34,2.64-.69,4-1.06l.29-.07c1.31-.37,2.63-.75,3.94-1.14l.29-.09c1.38-.41,2.75-.83,4.1-1.26a281.47,281.47,0,0,0,30.3-11.85,72.5,72.5,0,0,1,9.26-.77c11.48-.31,17-10.53,14.31-13.05s-15.25-.94-20,1.42a38.13,38.13,0,0,1-5.46,2.16c-16.39,2.37-29.05,3-37.42,3.81.59-1.72.51-3.2-.32-4-2.46-2.32-12.79-1.39-18.81.53C410.4,583.84,390,571.08,390,571.08a8.79,8.79,0,0,0-1.08-.45c13.49-9.71-4.94-10.08-.95-42.61,1.94-15.84-3-41.18-34.62-37.13s-41.57,35.12-35.2,48.93-9.17,17.14-14.06,32c-4.19,12.76-5.65,28.6-12.44,35.71C272.81,627.22,301.8,656,326.74,659a78.54,78.54,0,0,1-.24,7.87,27.56,27.56,0,0,1-.46,3.15c-1.75,9-7.59,24.38-11.31,36.19H297a11.48,11.48,0,0,0-11.45,11.45V974.17A11.48,11.48,0,0,0,297,985.62H993.67a11.48,11.48,0,0,0,11.45-11.45V717.69A11.48,11.48,0,0,0,993.67,706.24Zm-592.56-75c.12-1.6.22-3.17.32-4.69,1.35,1.49,2.71,2.9,4.06,4.25Z"/><path class="cls-2" d="M1758.93,706.24H1575.28l-2.72-19.81a4.49,4.49,0,0,0-.36-1.25c1.68-30.42,8.54-55.34,9.75-73.06,2.81-9.59,1-15.13-1.61-18.29l2.15.33c-10.81-9.53-16.14-74.07-16.57-79.62a21.77,21.77,0,0,0-.38-2.73c-1-6.08-3.92-20.63-11-26.41l-29.7,2.11S1513.43,493,1505,518.08h0a19,19,0,0,0-4,9.47c-1.38,11.27,5.75,15.61,5.75,15.61-.06-.44-.09-.88-.11-1.32,1,12.94,4.24,28.92,10.18,29.56,0,0,2.47.11,6.1-.13a51.22,51.22,0,0,1-1.79,14.48l-1.94.36,0,0a9,9,0,0,0-1.19.25l-.1,0a7.36,7.36,0,0,0-.95.25c-1.82.46-3.83,1.24-5.54,1.82,0,0-19.12,5.22-46.86,50.77h-4.12c-.53-.23-1.06-.47-1.58-.73a16.38,16.38,0,0,0-1.53-.65l.2-4.57.57-12.91.27-6.18h.86l-.55-4.18h-19.42l-.8,4.18h.86l.38,6.18.81,12.91.16,2.55a5.91,5.91,0,0,0-3.12,1.16,2.71,2.71,0,0,0-.7,2.24h-9.32l.26-5.95.56-12.91.27-6.18h.86l-.54-4.18h-19.42l-.8,4.18h.85l.36,5.69a22.7,22.7,0,0,0-4.94,1.61,38,38,0,0,1-5.45,2.16c-16.39,2.37-29.06,3-37.43,3.81.6-1.72.51-3.2-.32-4-2.46-2.32-12.79-1.39-18.81.53-29.29-40.12-49.73-52.88-49.73-52.88a7.91,7.91,0,0,0-1.08-.45c13.49-9.71-4.93-10.08-1-42.61,1.94-15.84-3-41.18-34.62-37.13S1215,526,1221.37,539.82s-9.18,17.14-14.06,32c-4.2,12.76-5.66,28.6-12.45,35.71-18.79,19.69,10.2,48.48,35.14,51.5a78.63,78.63,0,0,1-.25,7.87,27.56,27.56,0,0,1-.46,3.15c-1.75,9-7.59,24.38-11.31,36.19H1111.89a11.08,11.08,0,0,0-11.05,11v257.3a11.08,11.08,0,0,0,11.05,11h647a11.08,11.08,0,0,0,11-11V717.28A11.08,11.08,0,0,0,1758.93,706.24Zm-454.56-75c.11-1.6.22-3.17.31-4.69,1.36,1.49,2.71,2.9,4.07,4.25Zm2.68,75c-1.45-10.21-3.76-22.75-4.24-27.92-.73-8.1-.43-17.79.17-27.51,7.63-2.55,14.89-5.4,20.41-7.68a84.35,84.35,0,0,0,16.45,9.35c.55,0,1.11-.06,1.69-.11h.07l1.67-.16.22,0L1345,652l.44-.06,1.37-.2.69-.11,1.15-.19.92-.17.94-.18,1.12-.22.77-.16,1.29-.28.45-.09.1,0c1.3-.29,2.62-.6,4-.94l.23-.05c1.32-.34,2.64-.69,4-1.06l.29-.07c1.32-.37,2.63-.75,3.94-1.14a2.46,2.46,0,0,0,.29-.09q2.07-.62,4.11-1.26c4.5-1.43,8.93-3,13-4.56a16.49,16.49,0,0,0,13.45,7,72.5,72.5,0,0,1,9.26.77A281.85,281.85,0,0,0,1437,660.77c5.55,1.76,11.34,3.4,16.87,4.64a86.55,86.55,0,0,0,14.34,2.15,81.48,81.48,0,0,0,14.65-8.11c2.8,1.09,5.81,2.22,8.93,3.33l-1.42,16.6c-.52,3.75-.75,14.69-.83,26.86Zm103.56-73.17h.1v.17l.37,5.81-2.54-.36a38.49,38.49,0,0,1-5.45-2.16,21.61,21.61,0,0,0-4.4-1.48l2.64-1.2A72.68,72.68,0,0,1,1410.61,633.07Z"/><path class="cls-3" d="M2847.55,491.66c0-1.2-1-14.2-20.77-14.88,0,0,9.73,1.16,11.42,5.44,0,0-6.63-5.28-12-3.58s-8.57,11.15-8.6,14.26,3,13.14,6.39,14a10.54,10.54,0,0,0,4.15,0,47.07,47.07,0,0,0-2.66,4.75c-7.9,16.21.25,32.06,6.94,30.31,4.29-1.13,5.5,6.19,5.5,6.19l41.67-33.73S2864.25,482.75,2847.55,491.66Z"/><path class="cls-4" d="M2949.78,677.45s12.12-.46,14.15,1.56,1,12.13-2.78,15.42-14.16-9.1-14.16-9.1Z"/><path class="cls-4" d="M2868.11,586s-14.36,7.39-13.45,27.48,28.16,55.3,41.84,63.66c10.84,6.63,52.08,8.43,52.08,8.43l1.2-8.13s-38.53-15.65-44-21.67C2894.21,642.87,2878.85,581.57,2868.11,586Z"/><path class="cls-5" d="M2871.5,622.79c-.2.55-.43,1.1-.68,1.64-7.05,15.17-28.82,40.46-29.81,57.81-.34,6,.41,13.53,2.87,23.4,12.09,48.64-83.49,7.2-78.09-5.39,10.75-25,25.75-60.75,25.75-60.75,0-.18-.14-25.33,0-35.22V604c0-.46,0-.9,0-1.31v-.48c0-3,0-5.24-.06-5.82,2.73-9.95,8-26.56,8-26.56,7.46-3,20.74-1.23,20.74-1.23.47,0,3.4.27,5.72.53,10,1.12,28.7,7.77,29.23,8.82,0,0,4.4,1.83,5.26,2.19q2.91,1.25,5.13,2.36c6,3,8.33,5.13,8.33,5.13C2866.67,592.32,2877.06,608.06,2871.5,622.79Z"/><path class="cls-6" d="M2842,694.35l-9.34,2.45v-.09c-16.18,4.3-59.42-12-59.42-12s-15.67,13.78-13.62,46.81c1,16.12-2.92,18.21,1.82,17.45,13.66-2.19,61.74,0,61.86,0l.56-2.38c1.29-.15,2.37-.29,3.07-.4,2.42-.41,4.77-.72,7-.94a122,122,0,0,1,14.9-.63,1.37,1.37,0,0,0,1.39-1.49C2846.37,702.84,2842,694.35,2842,694.35Z"/><path class="cls-7" d="M2856.51,567.08c-1.21,4.85-2.08,9.52-1.38,10.9a14.67,14.67,0,0,1-10,5.33c-9.5.93-19.2-14.15-19.2-14.15,3.41-1.77,9.52-10.42,13.06-24.86l1.19.56,20.08,9.44S2858.09,560.82,2856.51,567.08Z"/><path class="cls-3" d="M2867.27,614.18c-.05-.49-1.25-1.2-3.24-2,.58-5.32,1.31-14.79,1.49-29.62q-2.22-1.11-5.13-2.36c.24,6,.36,19.52-2.6,29.72-7.79-2.55-18.71-5.49-26.19-7.42-.88-5.27-3-16-8-33.57l-5.69-.51s6.88,18.25,6.85,32.37l-1.28-.3c-3.69-.79-5.26,14.69-5.57,15.57-5.58,15.57-19.91,13.67-24.78,14.25s-33.78,60.17-34.05,70.73,68.54,16.89,85.58,15.88S2867.53,617.09,2867.27,614.18Z"/><path class="cls-4" d="M2860.23,554.3s-2.14,6.52-3.71,12.78c-11.73-3.27-15.3-15.61-16.37-22.22Z"/><path class="cls-7" d="M2862.7,561.21s-28.07-6.5-23.76-23.92,3.6-30,21.7-26.57,19.93,10.91,19.9,17.08S2870.11,562.45,2862.7,561.21Z"/><path class="cls-3" d="M2882.12,517.91c-3-6.32-6.57-6-8.79-4.86-13.19-12.2-26.12-2.23-26.12-2.23a34.25,34.25,0,0,1-15.78,16.94s4.32,4.42,16.81,4.32c3.82,0,7.66-1.78,11.15-4.2a67,67,0,0,1-14.63,10.92c15.64-3,26.13-21.11,27.21-23,1.32,2,3.86,6.12,4.07,9.64.29,4.78-1.35,14.07,1.39,14.42C2877.43,539.83,2886.65,527.38,2882.12,517.91Z"/><path class="cls-7" d="M2892.08,690.64l-2.36,8.6s-3.6-.64-9.14-1.75l-.1,0-.59-.11c-3.48-.71-7.67-1.6-12.18-2.63-14.44-3.31-32.12-8.13-40.35-13.34-15.17-9.62-36.66-63.55-37.68-86.06,0-1.19-.07-2.33,0-3.41.16-19.39,9.81-22,9.81-22,3.88-1.61,8.39,5.12,13,15.54,9.75,21.85,20.11,60,26.7,71.36,2.77,4.8,18.42,14.53,32,22.33,4.75,2.73,9.24,5.23,12.84,7.2C2888.85,688.94,2892.08,690.64,2892.08,690.64Z"/><path class="cls-5" d="M2812.46,585.4c-12.89-3.56-22.84,6.51-22.84,6.51.17-19.39,9.82-22,9.82-22C2803.32,568.25,2807.82,575,2812.46,585.4Z"/><path class="cls-5" d="M2873.84,587.66s6.76,11.79,7.77,14.83c0,0-8.76-.34-12.3,6.4C2869.31,608.89,2869.61,589.35,2873.84,587.66Z"/><path class="cls-8" d="M2929.09,715.66a40.25,40.25,0,0,0,40.25-40.25h-80.49A40.24,40.24,0,0,0,2929.09,715.66Z"/><path class="cls-9" d="M2934.72,710.77a35.94,35.94,0,0,1-42.85-35.25h13.87A35.91,35.91,0,0,0,2934.72,710.77Z"/><path class="cls-10" d="M2915.85,670.82s-10-15-14.45-14,7.85,7.74,12.29,13.31Z"/><path class="cls-11" d="M2966.65,675.41h-75.14c2.09-1.83,6.6-4.72,14-4.25,0,0,7.63-.8,11.73-3.87s16.39-4.33,23.1.91,14.22,3.87,18.32,4.55C2962.11,673.33,2965.34,673.82,2966.65,675.41Z"/><path class="cls-7" d="M2919.81,699c-4.3,1.78-10.37,8.09-20,4.3a140.12,140.12,0,0,0-19.26-5.79l-.1,0-.59-.11h0l3.79-11.13.33.08c2.22.5,15.17,3.33,21.17,2,6.57-1.52,17.69,6.45,17.69,6.45S2924.1,697.21,2919.81,699Z"/><path class="cls-5" d="M2919.81,699c-4.3,1.78-10.37,8.09-20,4.3a140.12,140.12,0,0,0-19.26-5.79l-.1,0-.59-.11c-3.48-.71-7.67-1.6-12.18-2.63a24.13,24.13,0,0,0,3.43-15.63c4.75,2.73,9.24,5.23,12.84,7.2,2.22.5,15.17,3.33,21.17,2,6.57-1.52,17.69,6.45,17.69,6.45S2924.1,697.21,2919.81,699Z"/><path class="cls-12" d="M2633.87,706.24c-5.66,0-10.29,5-10.29,11V974.57c0,6.09,4.63,11,10.29,11h379.57c18.95-16.3,37.23-35.79,54.43-57.8q10.3-13.12,20-27.42c1.39-2,2.76-4.08,4.13-6.14,10.8-16.29,21-33.56,30.63-51.63q4.18-7.89,8.19-16,10.56-21.3,19.84-43.8a3.7,3.7,0,0,0,.16-.4q6.63-16.08,12.52-32.69,7.61-21.43,13.89-43.53Z"/><path class="cls-13" d="M2273.85,502.38s1.86-3.8,11.12-2.76,11.89,9.37,12.32,14.92c.34,4.46,3.84,46.93,10.8,68.44a7.07,7.07,0,0,1-7.79,9.14l-21-3.16Z"/><path class="cls-14" d="M2271.17,503s9.89-3.33,15.1,1.61,2.25,11.49,2.25,11.49Z"/><path class="cls-13" d="M2240,522.52s.18-21.8,35.27-19.29a17.18,17.18,0,0,1,14.1,9.16c3.94,7.72,5.66,21.29-7.09,43.06Z"/><path class="cls-15" d="M2284.37,586.53l-7.91,30.9-22.84,1.12-11.37-17c10.63-8.06,12.13-22.18,12-30.56,0-.08,0-.16,0-.25a49.19,49.19,0,0,0-.54-6.55l16.21-4.94,12.34-3.76a93.74,93.74,0,0,0-.54,21C2282.49,584,2284.37,586.53,2284.37,586.53Z"/><path class="cls-15" d="M2307.42,746.34l-82.88-.1s10.31-55.58,4.59-73.79.28-44.82.28-44.82c8.32-19.78,10.45-38.29,14.15-39.26,2-.53,3.68-1.63,5.67-2,32.56-6.51,59,5.34,59,5.34,7.31,18.35-8.34,32.14-9.1,73.58C2298.41,706,2307.42,746.34,2307.42,746.34Z"/><path class="cls-16" d="M2310.68,593c-4-7.35-25.73-7.47-25.73-7.47-2.06,2.49-13.17,10.45-27,10.37s-7.46-9.83-7.46-9.83a8,8,0,0,0-1.49.33,13.09,13.09,0,0,0-6.43,4.89c.09-1.81.14-2.88.14-2.88s-20.25,5.53-49.32,54.86c-.86,1.46-3.31,1.22-9,.11-7.26-1.41-22.09-1.23-44.46-4.51,0,0-.77.55-1,3a36.37,36.37,0,0,1-1,7,279.11,279.11,0,0,0,30.4,11.9c5.54,1.76,11.34,3.4,16.87,4.64a86.39,86.39,0,0,0,14.34,2.15s11.56-4.44,25.08-16.1c-1.11,7.86-1.66,13.49-1.61,14.12a156.18,156.18,0,0,1-.27,18.61s58.72,16,76,7.78c2.85-1.35,4.58-3.37,4.73-6.22,1.69-32,9.19-58,9.93-75.9C2313.74,603,2313,597.38,2310.68,593Z"/><path class="cls-17" d="M2285.75,628a15.69,15.69,0,0,1,20.32,16c-.71,10.81-1.57,23.42-2.54,41.78-.15,2.85-1.88,4.87-4.73,6.22L2282,657.09l3.77-29.11Z"/><path class="cls-18" d="M2311.91,744.66l-8-58.23a4.71,4.71,0,0,0-1-2.29c-10-12.66-11.09-52.21-11.11-67.3a5.83,5.83,0,0,0-5.68-5.89c.22-.68,6.29-19.25,11-24.31l-2.08-.33c-1.16-.18-3.22-.38-3.22-.38s-8.65,12.22-12.46,25.06l-.25,0a173.39,173.39,0,0,1-42.36,0h1.35s6.23-18.91,11-24.59a55.34,55.34,0,0,0-6.29,2c-2.95,4.25-8.43,12.46-11.28,21.92a4.59,4.59,0,0,0-4.18,4.23L2225,641.91l-3.21,37.47c-1.16,8.29-.87,51.64-.74,66a4.58,4.58,0,0,0,4.53,4.6h81.89A4.61,4.61,0,0,0,2311.91,744.66Z"/><path class="cls-19" d="M2281.69,576.45c-9.82-5.24-25-5.5-27.46-5.5h-.34l.33-.25c1.63-1.19,8.91-6.56,15.67-11.49l12.34-3.76A93.74,93.74,0,0,0,2281.69,576.45Z"/><path class="cls-15" d="M2248.13,571.4s34.82,1.59,35.48-20.11,5.59-36.11-16.61-38-26.78,6.22-28.76,13.41S2239.09,570.43,2248.13,571.4Z"/><path class="cls-13" d="M2251.92,521.83s-15.51,9.31-13.85,21.33c0,0-7.14-4.34-5.75-15.61s12.66-18.39,22.2-18.39a109.1,109.1,0,0,1,16.65,1.22Z"/><path class="cls-13" d="M2249,518.05c-6.18,3.28,19.36,6,20.92,16.44s13.74,14.39,13.74,14.39S2299.15,491.51,2249,518.05Z"/><path class="cls-20" d="M2244,559.59s.25,2.21,5.62,2.51c0,0,4.52.25,4.66-2.12C2254.24,560,2250.09,557.79,2244,559.59Z"/><path class="cls-16" d="M2197.75,651.64s23.82,12,44.48,16.93a92.9,92.9,0,0,0,16.56,2.66S2281,664.4,2298,640.65c32.75-45.87,7.47-50.82,7.47-50.82s-21.88,13.65-52.78,57.1c-1.08,1.52-3.79,1.18-10.82-.24-7.51-1.52-22.45-1.34-43.08-4.37a11.52,11.52,0,0,0-.56,3.22C2197.72,650.94,2197.75,651.64,2197.75,651.64Z"/><path class="cls-21" d="M2184.41,643.38c-7.19-1.4-22.47-1.51-44.48-4.69a38.22,38.22,0,0,1-5.46-2.17c-4.72-2.36-17.29-3.93-20-1.41s2.82,12.73,14.3,13a75.12,75.12,0,0,1,9.26.76,277,277,0,0,0,30.3,11.86c5.54,1.76,11.34,3.4,16.87,4.64A40.67,40.67,0,0,0,2184.41,643.38Z"/><polygon class="cls-14" points="2189.69 614.14 2189.42 620.32 2188.86 633.23 2188.6 639.18 2172.2 639.18 2171.83 633.23 2171.03 620.32 2170.64 614.14 2189.69 614.14"/><polygon class="cls-22" points="2190.01 609.96 2170.58 609.96 2169.78 614.14 2190.55 614.14 2190.01 609.96"/><polygon class="cls-23" points="2189.42 620.32 2188.86 633.23 2171.83 633.23 2171.03 620.32 2189.42 620.32"/><polygon class="cls-14" points="2159.95 614.14 2159.68 620.32 2159.11 633.23 2158.86 639.18 2142.46 639.18 2142.09 633.23 2141.28 620.32 2140.9 614.14 2159.95 614.14"/><polygon class="cls-22" points="2160.26 609.96 2140.84 609.96 2140.04 614.14 2160.81 614.14 2160.26 609.96"/><polygon class="cls-23" points="2159.68 620.32 2159.11 633.23 2142.09 633.23 2141.28 620.32 2159.68 620.32"/><path class="cls-24" d="M2203.87,643.51H2126a2.17,2.17,0,0,1-2.17-2.16h0a2.17,2.17,0,0,1,2.17-2.17h77.9a2.17,2.17,0,0,1,2.17,2.17h0A2.17,2.17,0,0,1,2203.87,643.51Z"/><path class="cls-25" d="M2242.23,668.57a24.33,24.33,0,0,1-.41-21.88c-7.51-1.52-22.56-2.18-43.18-5.2v0a46.42,46.42,0,0,1-8.45-3.07c-5-2.52-18.46-4.2-21.31-1.51s3,13.59,15.27,13.93a61.25,61.25,0,0,1,13.2,1.47C2199.29,653.24,2222.46,663.82,2242.23,668.57Z"/><path class="cls-18" d="M2256.24,487.51s-11.44,5.45-19.91,30.57l12.71,0Z"/><path class="cls-16" d="M2249,518.05s35.87.56,48.25-3.51c0,0-2.34-21.75-11.34-29.14l-29.71,2.11S2247.26,509,2249,518.05Z"/><rect class="cls-12" x="1857.84" y="706.24" width="719.53" height="279.39" rx="11.45"/><path class="cls-26" d="M3114.49,990.51H3a3,3,0,0,1-3-3H0a3,3,0,0,1,3-3H3114.49a3,3,0,0,1,3,3h0A3,3,0,0,1,3114.49,990.51Z"/><path class="cls-27" d="M2367.17,151.86q-16-5.79-32.09-12.33l-.06,0C1813.83-57.21,1807.25,117,1525.43,104.58c-163.15-7.19-322.75-187-538.48-58.26L984.26,48v84.29c0,10.8,11.27,19.62,25,19.62h793.09V971.92c0,6.9,5.23,12.56,11.62,12.56a11.19,11.19,0,0,0,8.2-3.69,13.07,13.07,0,0,0,3.41-8.87V151.86Z"/><rect class="cls-27" x="1893.02" y="236.36" width="669.13" height="164.54" rx="8.48"/><path class="cls-2" d="M2092.31,270.27h-144.8a8.18,8.18,0,0,0,0,16.36h144.8a8.18,8.18,0,0,0,0-16.36Z"/><path class="cls-2" d="M2092.31,310.45h-144.8a8.18,8.18,0,0,0,0,16.36h144.8a8.18,8.18,0,0,0,0-16.36Z"/><path class="cls-2" d="M2092.31,350.63h-144.8a8.18,8.18,0,0,0,0,16.36h144.8a8.18,8.18,0,0,0,0-16.36Z"/><path class="cls-2" d="M2309.74,270.27h-144.8a8.18,8.18,0,1,0,0,16.36h144.8a8.18,8.18,0,1,0,0-16.36Z"/><path class="cls-2" d="M2309.74,310.45h-144.8a8.18,8.18,0,1,0,0,16.36h144.8a8.18,8.18,0,1,0,0-16.36Z"/><path class="cls-2" d="M2309.74,350.63h-144.8a8.18,8.18,0,1,0,0,16.36h144.8a8.18,8.18,0,1,0,0-16.36Z"/><rect class="cls-2" x="2348.76" y="270.27" width="180.16" height="96.73" rx="12.67"/><rect class="cls-27" x="1065.84" y="236.36" width="669.13" height="164.54" rx="8.48"/><path class="cls-2" d="M1265.13,270.27h-144.8a8.18,8.18,0,1,0,0,16.36h144.8a8.18,8.18,0,0,0,0-16.36Z"/><path class="cls-2" d="M1265.13,310.45h-144.8a8.18,8.18,0,1,0,0,16.36h144.8a8.18,8.18,0,0,0,0-16.36Z"/><path class="cls-2" d="M1265.13,350.63h-144.8a8.18,8.18,0,1,0,0,16.36h144.8a8.18,8.18,0,0,0,0-16.36Z"/><path class="cls-2" d="M1482.56,270.27h-144.8a8.18,8.18,0,0,0,0,16.36h144.8a8.18,8.18,0,1,0,0-16.36Z"/><path class="cls-2" d="M1482.56,310.45h-144.8a8.18,8.18,0,0,0,0,16.36h144.8a8.18,8.18,0,1,0,0-16.36Z"/><path class="cls-2" d="M1482.56,350.63h-144.8a8.18,8.18,0,0,0,0,16.36h144.8a8.18,8.18,0,1,0,0-16.36Z"/><rect class="cls-2" x="1521.58" y="270.27" width="180.16" height="96.73" rx="12.67"/><path class="cls-27" d="M979.92,244.84V392.43a8.51,8.51,0,0,1-8.47,8.48H319.26a8.5,8.5,0,0,1-8.47-8.48V361.78c116.36-20.6,238-1.59,410-125.41H971.45A8.5,8.5,0,0,1,979.92,244.84Z"/><path class="cls-27" d="M3183.09,400.9H2630.82c-4,0-7.24-3.81-7.24-8.47V244.83c0-4.65,3.27-8.47,7.24-8.47h452.59a278.19,278.19,0,0,1,41.18,42.78C3152,314.39,3171.05,355.84,3183.09,400.9Z"/><rect class="cls-2" x="2656.95" y="270.27" width="137.63" height="16.36" rx="7.56"/><rect class="cls-2" x="2656.95" y="310.45" width="137.63" height="16.36" rx="7.56"/><rect class="cls-2" x="2656.95" y="350.63" width="137.63" height="16.36" rx="7.56"/><rect class="cls-2" x="2842.63" y="270.27" width="137.63" height="16.36" rx="7.56"/><rect class="cls-2" x="2842.63" y="310.45" width="137.63" height="16.36" rx="7.56"/><rect class="cls-2" x="2842.63" y="350.63" width="137.63" height="16.36" rx="7.56"/><rect class="cls-2" x="3018.71" y="270.27" width="57.15" height="96.73" rx="7.13"/><polygon class="cls-12" points="2045.26 658.91 2102.61 658.91 2111.78 695.91 2055.09 695.91 2045.26 658.91"/><polygon class="cls-12" points="2060.69 670.88 2085.92 670.88 2095.59 706.71 2069.05 706.71 2060.69 670.88"/><polygon class="cls-28" points="2085.92 670.88 2087.63 670.88 2098.26 706.71 2095.37 706.71 2085.92 670.88"/><polygon class="cls-28" points="2102.61 658.91 2103.61 658.91 2112.89 695.91 2111.78 695.91 2102.61 658.91"/><polygon class="cls-12" points="2637.1 635.75 2722.24 635.75 2735.86 690.68 2651.69 690.68 2637.1 635.75"/><polygon class="cls-12" points="2660.01 653.52 2697.47 653.52 2711.82 706.71 2672.41 706.71 2660.01 653.52"/><polygon class="cls-28" points="2697.47 653.52 2700 653.52 2715.78 706.71 2711.49 706.71 2697.47 653.52"/><polygon class="cls-28" points="2722.24 635.75 2723.72 635.75 2737.5 690.68 2735.86 690.68 2722.24 635.75"/><path class="cls-25" d="M1973.62,979c.43,5.34,8,4.87,16.57,3.81s6.23,1.6,18.2,1.68,16.08-3.91,16.64-5.63c.51-1.52-5.27-2.76-11.45-4.21l-2.34-.56a31.47,31.47,0,0,1-17.6-11.39c-5.19-6.66-9.94-37-9.94-37L1965,929.21s10.89,26,12,34.49c.5,3.82-2.22,6.37-2.85,9.72A21.16,21.16,0,0,0,1973.62,979Z"/><path class="cls-29" d="M1990.13,983.26c3.4-.83,6.29,1.13,18.26,1.21s16.08-3.91,16.64-5.63c.51-1.52-5.27-2.76-11.45-4.21l-.07.11A33.53,33.53,0,0,1,1996,978c-8-.75-16.26-4-21.81-4.6a21.16,21.16,0,0,0-.53,5.56C1974.05,984.32,1980,985.75,1990.13,983.26Z"/><path class="cls-29" d="M1990.35,947.54s-4.9,3.24-9.51,4.08c-6.91,1.26-10.12-.14-10.12-.14S1937.48,868,1939.37,839.8c.05-.68.07-1.4.08-2.16a118.37,118.37,0,0,0-1.86-18.92c-.45-2.75-1-5.64-1.54-8.62-1.33-7-3-14.46-4.8-22.11-.79-3.36-1.62-6.76-2.47-10.15-8.36-33.38-18.57-66.27-18.57-66.27s60-19.59,63.38-1.28c1.31,7,5.64,35.16,3.69,78.16a621.14,621.14,0,0,0,2.43,93A515.21,515.21,0,0,0,1990.35,947.54Z"/><path class="cls-30" d="M1939.45,837.64a118.37,118.37,0,0,0-1.86-18.92c-.45-2.75-1-5.64-1.54-8.62-1.33-7-3-14.46-4.8-22.11-.79-3.36-1.62-6.76-2.47-10.15,1.18-10.19,2.14-17.18,2.14-17.18S1955.83,794.5,1939.45,837.64Z"/><path class="cls-25" d="M1897.94,979c.43,5.34,8,5.34,16.51,4.28s6.28,1.13,18.26,1.21,16.07-3.91,16.64-5.63c.5-1.52-5.27-2.76-11.45-4.21l-2.34-.56c-7-1.72-11.61-6.89-17.6-11.39-5.67-4.27-1.7-24.95-1.7-24.95l-17.6-6.29s2.66,20.81,2.66,32.26c0,3.86-2.22,6.37-2.86,9.72A20.74,20.74,0,0,0,1897.94,979Z"/><path class="cls-29" d="M1914.45,983.26c2-.46,6.28,1.13,18.26,1.21s16.07-3.91,16.64-5.63c.5-1.52-5.27-2.76-11.45-4.21l-.08.11a33.47,33.47,0,0,1-17.54,3.28c-8-.75-16.27-4-21.82-4.6a20.74,20.74,0,0,0-.52,5.56C1898.37,984.32,1903.47,985.81,1914.45,983.26Z"/><path class="cls-29" d="M1946.35,705s-19.52,97.28-22.82,150.22-7.41,96.78-7.41,96.78a25.76,25.76,0,0,1-9.15,1.26,33.76,33.76,0,0,1-9.25-1.89s-19.34-79.66-12.94-111.54,1.07-61.3-2-87.75c-4.41-37.92,12.56-55.54,24.4-67.56S1946.35,705,1946.35,705Z"/><path class="cls-13" d="M1960.18,526.87c1.94-15.84-3-41.18-34.62-37.13s-41.57,35.11-35.19,48.92-9.18,17.15-14.06,32c-4.2,12.76-5.66,28.61-12.45,35.72-21.88,22.92,21,58.18,46.87,50.74,47.1-13.54,53.16-15.56,51.49-52.56-.86-19-15.61-26.31-6.24-31.8C1978.6,559.51,1955.79,562.71,1960.18,526.87Z"/><path class="cls-21" d="M1953.23,567.83a87,87,0,0,0-10.62-1.76c-3.1-9.35-1.42-19.13-1.42-19.13l-23.52-7.16c-1.13,25-3.38,28.13-3.85,28.51a107.23,107.23,0,0,0-15.58,5s15,85.91,8.57,102.3a173.25,173.25,0,0,0-8.9,30.95l70,.87s-1-56.28,2.25-76.19S1953.23,567.83,1953.23,567.83Z"/><path class="cls-25" d="M1947.33,548.54s-28.16,5.65-31.41-11.94-9.07-28.7,8.76-33.05,22.59,1.71,25.1,7.31S1954.57,546.61,1947.33,548.54Z"/><path class="cls-31" d="M2069.44,625.64c-.21-2.45-1-3-1-3-22.37,3.29-37.19,3.1-44.46,4.52-5.7,1.1-8,1.26-9-.12-30.9-43.45-52.77-57.1-52.77-57.1s-2.33-1.39-11.46-2.65c0,0-1.31,16.53-9.8,17.93-14.69,2.42-26.52-11-30-16.45,0,0-16.86,4.26-21.82,9.9-3.55,4.06-3.09,13.76-2,19.86a26.92,26.92,0,0,0,1.07,4.42c1,2.76,5,23,6.79,31.09,0,.2.09.39.13.57.12.54.23,1,.33,1.4a.06.06,0,0,1,0,0c.1.43.19.76.26,1s.09.26.13.39a0,0,0,0,0,0,0,66.87,66.87,0,0,1,3.24,27.12,27.28,27.28,0,0,1-.8,4.34c-2.35,12.05-12.12,35.8-14.14,46.71,1.17,2.46,3.81,4.41,7,6a66.06,66.06,0,0,0,13.48,4.32,127.53,127.53,0,0,0,13.72,2.19c3,.34,6.21.62,9.48.81l1.37.08c21.08,1,44.69.52,47.76-9.5,1.47-4.81-4.4-33.72-5.19-42.31-1.36-15.09.87-35.75,1.88-51.76,17.29,19.07,35.15,25.93,35.15,25.93a85.59,85.59,0,0,0,14.34-2.16c5.53-1.23,11.33-2.87,16.87-4.63a279,279,0,0,0,30.4-11.91A35.48,35.48,0,0,1,2069.44,625.64Z"/><path class="cls-13" d="M1933.57,499.16s.49,6-8.77,16.08-7,28.17-7,28.17-15.61-29.33-7.28-38.7S1933.57,499.16,1933.57,499.16Z"/><path class="cls-13" d="M1922.25,491.39s14-4.68,27.88,9c6,5.89,5.08,17.48,1.88,24.21,0,0-4.92-14.41-13.88-17.56S1922.25,491.39,1922.25,491.39Z"/><path class="cls-20" d="M1938.56,539.88s.75,2.09,6,1.14c0,0,4.45-.79,4-3.13C1948.65,537.89,1944.11,536.71,1938.56,539.88Z"/><path class="cls-32" d="M1944.21,696.66c-4,13.55-6.32,24.69-16.34,32.23-3.27-.19-6.48-.47-9.48-.81a127.53,127.53,0,0,1-13.72-2.19,66.06,66.06,0,0,1-13.48-4.32c-3.23-1.55-5.87-3.5-7-6,2-10.91,11.79-34.66,14.14-46.71a30,30,0,0,0,.47-3.16,78.63,78.63,0,0,0-2.91-28.3,0,0,0,0,1,0,0l-.39-1.37a.06.06,0,0,0,0,0c-.08-.29-.19-.78-.33-1.4,0-.18-.08-.37-.13-.57-1.6-7.65-5.81-31.62-6.89-34.75a31.66,31.66,0,0,1-1-4.78l8.43-8.1s48.33,20.63,59,49.11S1949.94,677.23,1944.21,696.66Z"/><path class="cls-32" d="M2040.05,644.54c-10.7,3.39-22.34,6.36-31.21,6.79,0,0-18.09-7-35.5-26.3-.73-3.29-1.44-8.81,2.54-7.22,5.59,2.24,26.26,28.77,34.08,29.33C2015.55,647.54,2031.46,645.65,2040.05,644.54Z"/><path class="cls-31" d="M2001.87,637s-23.82,12-44.48,16.92a92.9,92.9,0,0,1-16.56,2.66s-22.21-6.83-39.16-30.58c-32.75-45.87-7.47-50.82-7.47-50.82s21.88,13.65,52.78,57.11c1.08,1.52,3.79,1.17,10.82-.25,7.51-1.51,22.45-1.33,43.08-4.36a11.48,11.48,0,0,1,.56,3.21C2001.9,636.27,2001.87,637,2001.87,637Z"/><path class="cls-21" d="M2093.91,618.87c-2.67-2.51-15.24-.94-20,1.42a38.59,38.59,0,0,1-5.46,2.16c-22,3.19-37.3,3.3-44.49,4.7a40.75,40.75,0,0,0-.82,22c5.53-1.23,11.33-2.87,16.87-4.63a281.57,281.57,0,0,0,30.3-11.86,73,73,0,0,1,9.26-.76C2091.08,631.6,2096.58,621.39,2093.91,618.87Z"/><path class="cls-25" d="M2030.75,622.27c-2.85-2.68-16.28-1-21.31,1.51a45,45,0,0,1-8.45,3.07v0c-20.62,3-35.67,3.69-43.18,5.2a24.33,24.33,0,0,1-.41,21.88c19.77-4.74,42.94-15.33,44.89-16.22a61.81,61.81,0,0,1,13.2-1.48C2027.73,635.87,2033.6,625,2030.75,622.27Z"/><path class="cls-27" d="M3202.28,530.9c0,2.77,0,5.56,0,8.36-.42,48.26-7.29,97.54-19.26,145.44H2989.11c-5.84,0-10.63-5.7-10.63-12.67V489.45c0-7,4.79-12.67,10.63-12.67H3199a495,495,0,0,1,3.23,50C3202.25,528.16,3202.26,529.52,3202.28,530.9Z"/><path class="cls-33" d="M3165.89,535.7h-94.48l.64-12.74h-1.72c-.5-5.76-11-4-11.21,0h-2l.82,12.74h-9.31l.64-12.74h-1.72c-.5-5.76-11-4-11.21,0h-2.05l.82,12.74h-9.31l.64-12.74h-1.72c-.5-5.76-11-4-11.21,0h-2.05l.82,12.74h-5.58a3.54,3.54,0,0,0-3.53,3.53v1.54a3.54,3.54,0,0,0,3.53,3.53h159.24a3.54,3.54,0,0,0,3.53-3.53v-1.54A3.54,3.54,0,0,0,3165.89,535.7Z"/><rect class="cls-33" x="3003.12" y="608.89" width="166.3" height="8.6" rx="3.53"/><path class="cls-33" d="M3064.71,587.92c-.95-6.82-7.1-5.84-12.55-10.42s-15.64,3.87-23.69,6.69c-5.32,1.85-7.74,8-8.78,12h-8.28l3.32,12.74h54.72l2.6-12.74h-7A44.41,44.41,0,0,0,3064.71,587.92Z"/><path class="cls-33" d="M3139.57,587.92c-1-6.82-7.11-5.84-12.55-10.42s-15.64,3.87-23.69,6.69c-5.32,1.85-7.74,8-8.78,12h-8.28l3.32,12.74h54.72l2.6-12.74h-7A44.41,44.41,0,0,0,3139.57,587.92Z"/><path class="cls-33" d="M3144.31,535.64l2.6-12.74h-7a44.41,44.41,0,0,0-.37-8.23c-1-6.82-7.11-5.84-12.55-10.42s-15.64,3.88-23.69,6.69c-5.32,1.86-7.74,8-8.78,12h-8.28l3.32,12.74Z"/><path class="cls-33" d="M3165.89,661.42h-94.48l.64-12.74h-1.72c-.5-5.76-11-4-11.21,0h-2l.82,12.74h-9.31l.64-12.74h-1.72c-.5-5.76-11-4-11.21,0h-2.05l.82,12.74h-9.31l.64-12.74h-1.72c-.5-5.76-11-4-11.21,0h-2.05l.82,12.74h-5.58a3.54,3.54,0,0,0-3.53,3.53v1.54a3.54,3.54,0,0,0,3.53,3.53h159.24a3.54,3.54,0,0,0,3.53-3.53V665A3.54,3.54,0,0,0,3165.89,661.42Z"/><path class="cls-33" d="M3139.57,640.39c-1-6.82-7.11-5.84-12.55-10.41s-15.64,3.87-23.69,6.68c-5.32,1.86-7.74,8-8.78,12h-8.28l3.32,12.74h54.72l2.6-12.74h-7A44.49,44.49,0,0,0,3139.57,640.39Z"/><path class="cls-18" d="M313.56,787h-.05a3.49,3.49,0,0,1-3.64-3.32c2.07-128.79-47.73-227.81-48.24-228.79-.84-1.65-.68-5.33,4.69-5.8,4.69-.41,7.6.61,8.44,2.26.13.25,11.24,23.81,23.58,64.77,11.38,37.77,20,99.6,18.91,167.65A3.5,3.5,0,0,1,313.56,787Z"/><path class="cls-18" d="M424.62,787h-.05a3.49,3.49,0,0,1-3.64-3.32C423,654.89,373.2,555.87,372.7,554.89c-.84-1.65-.68-5.33,4.68-5.8,4.69-.41,7.6.61,8.45,2.26.13.25,11.23,23.81,23.57,64.77,11.38,37.77,20,99.6,18.92,167.65A3.51,3.51,0,0,1,424.62,787Z"/><path class="cls-18" d="M280.67,594.43a3.59,3.59,0,0,1-3.63-2.72,3.33,3.33,0,0,1,3-3.78c3.2-.49,78.73-11.76,112.54-2.35a3.22,3.22,0,0,1,2.42,4.1,3.8,3.8,0,0,1-4.64,2.14c-32.11-8.93-108.31,2.45-109.08,2.57A4.44,4.44,0,0,1,280.67,594.43Z"/><path class="cls-18" d="M289.31,616.12a3.6,3.6,0,0,1-3.64-2.72,3.34,3.34,0,0,1,3-3.78c3.2-.49,78.73-11.77,112.54-2.35a3.22,3.22,0,0,1,2.42,4.1,3.79,3.79,0,0,1-4.63,2.14c-32.13-8.94-108.32,2.45-109.09,2.56A3.31,3.31,0,0,1,289.31,616.12Z"/><path class="cls-18" d="M309.13,787h227.6s-5.3-22-137.11-18.71C306.33,770.61,309.13,787,309.13,787Z"/><path class="cls-34" d="M290.6,984.48C317,867,310.2,794.93,310.17,794c-.07-1.81,3.72-3.45,5.76-3.51s11.18-.53,12.23,1c1.38,2,6.7,90.83-32.64,193Z"/><path class="cls-34" d="M483.82,984.48C457.43,867,464.22,794.93,464.25,794c.07-1.81-3.72-3.45-5.76-3.51s-11.18-.53-12.23,1c-1.38,2-6.7,90.83,32.64,193Z"/><path class="cls-35" d="M545.23,984.48C518.84,867,525.63,794.93,525.66,794c.07-1.81-3.72-3.45-5.76-3.51s-11.18-.53-12.23,1c-1.38,2-6.7,90.83,32.63,193Z"/><path class="cls-35" d="M357.42,984.48C383.81,867,377,794.93,377,794c-.07-1.81,3.72-3.45,5.76-3.51s11.18-.53,12.23,1c1.38,2,6.7,90.83-32.64,193Z"/><path class="cls-34" d="M538,794H308.11a3.52,3.52,0,0,1-3.51-3.51h0a3.52,3.52,0,0,1,3.51-3.51H538a3.52,3.52,0,0,1,3.51,3.51h0A3.52,3.52,0,0,1,538,794Z"/><path class="cls-18" d="M1307.32,816.61h0a3,3,0,0,1-3.09-2.82c1.76-109.48-40.57-193.65-41-194.49-.72-1.4-.58-4.53,4-4.93,4-.34,6.47.52,7.18,1.93.11.21,9.55,20.24,20,55.06,9.67,32.1,17,84.66,16.08,142.51A3,3,0,0,1,1307.32,816.61Z"/><path class="cls-18" d="M1401.73,816.61h0a3,3,0,0,1-3.09-2.82c1.76-109.48-40.57-193.65-41-194.49-.72-1.4-.58-4.53,4-4.93,4-.34,6.46.52,7.18,1.93.11.21,9.55,20.24,20,55.06,9.67,32.1,17,84.66,16.08,142.51A3,3,0,0,1,1401.73,816.61Z"/><path class="cls-18" d="M1279.37,652.92a3.06,3.06,0,0,1-3.1-2.32,2.84,2.84,0,0,1,2.57-3.21c2.72-.41,66.93-10,95.67-2a2.74,2.74,0,0,1,2,3.49,3.22,3.22,0,0,1-3.94,1.82c-27.29-7.59-92.07,2.08-92.72,2.18A3.23,3.23,0,0,1,1279.37,652.92Z"/><path class="cls-18" d="M1286.7,671.36a3.06,3.06,0,0,1-3.09-2.32,2.84,2.84,0,0,1,2.57-3.21c2.72-.41,66.92-10,95.66-2a2.74,2.74,0,0,1,2.06,3.49,3.24,3.24,0,0,1-3.94,1.82c-27.3-7.6-92.07,2.08-92.72,2.18A4.9,4.9,0,0,1,1286.7,671.36Z"/><path class="cls-18" d="M1303.55,816.61H1497s-4.51-18.69-116.56-15.9C1301.18,802.68,1303.55,816.61,1303.55,816.61Z"/><path class="cls-34" d="M1287.8,984.48c22.43-99.86,16.66-161.13,16.64-161.9-.06-1.54,3.16-2.93,4.9-3s9.49-.46,10.39.86c1.17,1.72,5.69,77.22-27.74,164Z"/><path class="cls-34" d="M1452.05,984.48c-22.43-99.86-16.67-161.13-16.64-161.9.06-1.54-3.16-2.93-4.9-3s-9.49-.46-10.39.86c-1.17,1.72-5.69,77.22,27.74,164Z"/><path class="cls-35" d="M1504.25,984.48c-22.43-99.86-16.66-161.13-16.63-161.9.05-1.54-3.17-2.93-4.91-3s-9.49-.46-10.39.86c-1.17,1.72-5.69,77.22,27.74,164Z"/><path class="cls-35" d="M1344.6,984.48c22.43-99.86,16.67-161.13,16.64-161.9-.06-1.54,3.16-2.93,4.9-3s9.49-.46,10.39.86c1.18,1.72,5.69,77.22-27.74,164Z"/><path class="cls-34" d="M1498.12,822.58H1302.68a3,3,0,0,1-3-3h0a3,3,0,0,1,3-3h195.44a3,3,0,0,1,3,3h0A3,3,0,0,1,1498.12,822.58Z"/><path class="cls-18" d="M1205.31,787.9h.06a3.49,3.49,0,0,0,3.64-3.32c-2.08-128.79,47.73-227.81,48.23-228.8.84-1.65.68-5.33-4.69-5.79-4.69-.41-7.6.61-8.44,2.26-.13.25-11.24,23.81-23.58,64.77-11.37,37.77-20,99.6-18.91,167.65A3.52,3.52,0,0,0,1205.31,787.9Z"/><path class="cls-18" d="M1094.25,787.9h0a3.5,3.5,0,0,0,3.65-3.32c-2.08-128.79,47.72-227.81,48.23-228.8.84-1.65.68-5.33-4.69-5.79-4.69-.41-7.6.61-8.44,2.26-.13.25-11.24,23.81-23.58,64.77-11.38,37.77-20,99.6-18.91,167.65A3.51,3.51,0,0,0,1094.25,787.9Z"/><path class="cls-18" d="M1238.2,595.33a3.6,3.6,0,0,0,3.64-2.72,3.34,3.34,0,0,0-3-3.78c-3.2-.49-78.73-11.76-112.54-2.35a3.21,3.21,0,0,0-2.42,4.1,3.79,3.79,0,0,0,4.63,2.14c32.11-8.93,108.32,2.45,109.08,2.56A3.35,3.35,0,0,0,1238.2,595.33Z"/><path class="cls-18" d="M1229.57,617a3.59,3.59,0,0,0,3.63-2.72,3.32,3.32,0,0,0-3-3.78c-3.2-.49-78.73-11.77-112.54-2.36a3.23,3.23,0,0,0-2.42,4.11,3.8,3.8,0,0,0,4.64,2.14c32.12-8.94,108.31,2.45,109.08,2.56A3.35,3.35,0,0,0,1229.57,617Z"/><path class="cls-18" d="M1209.75,787.9H982.14s5.3-22,137.12-18.71C1212.54,771.5,1209.75,787.9,1209.75,787.9Z"/><path class="cls-34" d="M1228.28,985.37c-26.4-117.46-19.61-189.54-19.58-190.45.07-1.81-3.72-3.45-5.76-3.51s-11.17-.53-12.23,1c-1.38,2-6.69,90.84,32.64,193Z"/><path class="cls-34" d="M1035.05,985.37c26.39-117.46,19.61-189.54,19.57-190.45-.06-1.81,3.73-3.45,5.77-3.51s11.17-.53,12.22,1c1.39,2,6.7,90.84-32.63,193Z"/><path class="cls-35" d="M973.64,985.37c26.39-117.46,19.61-189.54,19.57-190.45-.06-1.81,3.73-3.45,5.77-3.51s11.17-.53,12.23,1c1.38,2,6.69,90.84-32.64,193Z"/><path class="cls-35" d="M1161.46,985.37c-26.39-117.46-19.61-189.54-19.58-190.45.07-1.81-3.72-3.45-5.76-3.51s-11.17-.53-12.23,1c-1.38,2-6.69,90.84,32.64,193Z"/><path class="cls-34" d="M980.85,794.92h229.92a3.52,3.52,0,0,0,3.51-3.51h0a3.52,3.52,0,0,0-3.51-3.51H980.85a3.52,3.52,0,0,0-3.51,3.51h0A3.52,3.52,0,0,0,980.85,794.92Z"/><path class="cls-15" d="M595.32,624.06s13.3-8.28,19.08-7,21.58,5.78,22.09,12.3-22.6,16.82-39.67,11S595.32,624.06,595.32,624.06Z"/><path class="cls-36" d="M524.77,971.32a6.81,6.81,0,0,0,3.89,6.28l0,0c4.53,2.49,11.75.58,20.4.2,1.1-.05,2.82,2.09,3.71,2.09H554c8.56.21,7.65,2.77,23.91,4.16,18.54,1.59,25.37-4.09,26.46-6.67.92-2.19-7-4.67-15.92-7.51l-1.3-.42c-1.18-.37-2.37-.77-3.55-1.15-10.58-3.52-21-7.69-23.59-18.4-2.76-11.35,5.52-43,5.52-43l-29.37-3.17s-2.83,33.13-4.67,43.46c-1,5.51-3.5,9.89-5,14.62-.1.33-.2.66-.29,1A32,32,0,0,0,524.77,971.32Z"/><path class="cls-37" d="M604.4,977.41c-.58,1.38-1.81,5.42-9.59,7.06H565.34l-.27-.12a56.56,56.56,0,0,0-23.6-4.9,72.36,72.36,0,0,1-8.43-.35h0a11.24,11.24,0,0,1-3.83-1.19h0c-.17-.1-.34-.19-.5-.3h0a3.78,3.78,0,0,1-.43-.26h0a8.53,8.53,0,0,1-.76-.53c-.13-.09-.24-.18-.36-.28l-.33-.31-.24-.23c-.13-.14-.26-.3-.39-.46l0,0c-.07-.1-.14-.19-.2-.29a2.53,2.53,0,0,1-.21-.32s0,0,0,0l0,0a2.49,2.49,0,0,1-.15-.28h0l-.09-.19c0-.09-.09-.19-.13-.28a3.52,3.52,0,0,1-.15-.42,2.24,2.24,0,0,1-.11-.34c0-.15-.08-.3-.11-.46a2.2,2.2,0,0,1-.06-.37,2.34,2.34,0,0,1,0-.26c0-.12,0-.25,0-.37a4.87,4.87,0,0,1,0-.54v-.51c0-.15,0-.3,0-.46l0-.48a4.12,4.12,0,0,1,0-.48c0-.23,0-.46.07-.69l0-.13c0-.14,0-.29.07-.43s.07-.44.11-.65c.06-.38.14-.75.22-1.12,0-.15.07-.3.1-.46.08-.35.17-.7.25-1,0-.17.09-.35.14-.52l.27-1c0-.17.09-.35.14-.52l.3-1c8.84,2.05,21.12,8.21,33.49,10.53l.56.1a54.11,54.11,0,0,0,17.59.12,51.83,51.83,0,0,0,10.28-2.64C597.36,972.74,605.32,975.22,604.4,977.41Z"/><polygon class="cls-37" points="541.47 984.47 541.47 982.3 541.47 980.63 541.47 979.45 541.47 978.57 540.93 978.49 527.73 976.41 528.22 977.34 528.23 977.35 528.23 977.35 528.55 977.95 529.52 979.77 529.53 979.77 532.04 984.47 541.47 984.47"/><path class="cls-38" d="M373,688.85l95.08-9.06s145.52.66,159.07,19.87c0,0,26,18-3.39,92.44s-63.86,148.84-63.86,148.84a67.07,67.07,0,0,1-20.83,1.46,81.61,81.61,0,0,1-11.17-2s6.63-111.08,21.31-154.3,19.2-34.82-6.78-32.42-109.56,21.61-148,16.81S373,688.85,373,688.85Z"/><path class="cls-15" d="M506.44,971.32a6.82,6.82,0,0,0,3.9,6.28l0,0c4.52,2.49,11.75.58,20.39.2,1.11-.05,2.82,2.09,3.71,2.09h1.23c8.55.21,7.65,2.77,23.91,4.16,18.53,1.59,25.36-4.09,26.45-6.67.92-2.19-7-4.67-15.92-7.51l-1.29-.42c-1.18-.37-2.37-.77-3.56-1.15-10.58-3.52-21-7.69-23.59-18.4-2.75-11.35,5.53-43,5.53-43l-29.37-3.17s-2.83,33.13-4.68,43.46c-1,5.51-3.49,9.89-5,14.62q-.17.5-.3,1A32.84,32.84,0,0,0,506.44,971.32Z"/><path class="cls-14" d="M359.73,695.6l89.17-7.53s145.51.64,159.07,19.24c0,0,22,13.78-7.38,85.87s-59.12,151.43-59.12,151.43a75,75,0,0,1-14.56.25c-10-.81-13.36-4.07-13.36-4.07s2.07-98.64,16.75-140.5,20.33-37.6-5.65-35.28-99,20.55-149.37,10.91C337.26,768.64,359.73,695.6,359.73,695.6Z"/><path class="cls-29" d="M586.15,977.06a1.15,1.15,0,0,1-.07.35c-.54,1.28-1.64,4.85-8,6.68-.49.14-1,.27-1.56.38H547q-2.88-1.29-5.54-2.17a53.28,53.28,0,0,0-11.94-2.53h0c-2.3-.22-4.42-.3-6.37-.32-5.53-.1-9.71.14-12.77-1.84h0a3.78,3.78,0,0,1-.43-.26h0a8.53,8.53,0,0,1-.76-.53c-.12-.09-.24-.18-.35-.28l-.34-.31c-.07-.08-.15-.15-.23-.23l-.23-.26a2.47,2.47,0,0,1-.21-.27,1.77,1.77,0,0,1-.12-.17c-.08-.1-.14-.2-.21-.3s-.11-.18-.16-.28a5.21,5.21,0,0,1-.24-.47s0,0,0,0a2.56,2.56,0,0,1-.12-.32c0-.08-.07-.17-.09-.24a.08.08,0,0,1,0,0s0,0,0,0a.06.06,0,0,1,0,0l-.09-.3c0-.12-.06-.24-.08-.37s-.05-.24-.07-.37a2.24,2.24,0,0,1,0-.24v0c0-.12,0-.25,0-.37s0-.36,0-.54a32,32,0,0,1,1.51-8.54c.08-.33.18-.66.29-1,4.79,1.11,10.6,3.43,16.9,5.7a109.75,109.75,0,0,0,16.58,4.83,54.13,54.13,0,0,0,18.89.1,50.84,50.84,0,0,0,9.55-2.52c2.87.91,5.63,1.79,8,2.64l1.34.48,1.2.46c.39.14.76.29,1.1.44l.52.22.49.22c.31.14.61.29.88.44l.4.21c.25.14.49.28.7.42s.32.23.46.33l.27.24.13.14a1.57,1.57,0,0,1,.39.57.74.74,0,0,1,0,.14v0A.63.63,0,0,1,586.15,977.06Z"/><polygon class="cls-29" points="523.15 978.57 523.15 984.47 513.72 984.47 509.91 977.35 509.9 977.35 509.89 977.34 509.4 976.41 522.61 978.49 523.15 978.57"/><path class="cls-18" d="M601.81,641.27a9.42,9.42,0,0,1-.71,2.37c-3.77,8.28-82.09,18.83-91.88,13.56-4.37-2.36-10.74-41.85-16.43-84.8-7-53.09-13.06-111.47-13.06-111.47s32.51,10.26,36.27,27.58S520.52,612.77,530.31,618s51.21.75,65.52,3C595.83,621.05,603.31,632.9,601.81,641.27Z"/><path class="cls-13" d="M481.86,337.87c-6.09-4.89-14.92-4.28-20.61-3.94a9.55,9.55,0,0,1,4.34-2.07c-3.52-.52-11.4,3-11.4,3s-29.82-15.27-43.63,23.89c0,0,2.38-3,5.65-6.32-8,22.53.08,56.61,25.23,62.67C457.79,419,544.23,388,481.86,337.87Z"/><path class="cls-15" d="M482.06,469.55c.16.08-15.77,8.35-27.75,5.07-11.27-3.07-18.64-17.69-18.48-17.72,4.77-.95,6.15-7.51,6.05-35.69l2.16.42,36.28,7.19s-.83,11.42-.85,22.17C479.44,460,480,468.59,482.06,469.55Z"/><path class="cls-19" d="M480.32,428.82s-.83,11.42-.85,22.17c-20.31-.57-31-19.09-35.43-29.36Z"/><path class="cls-13" d="M440.29,417.69s-10.64-16.82-13.19-31.19c-1.83-10.26,3.4-48.3,41.63-42.82a51.84,51.84,0,0,1,21.53,8.14c8.3,5.6,20.28,17.71,6.89,50.9l-3.48,11.21Z"/><path class="cls-15" d="M487.1,439s-48,.8-48.07-29.13-6.26-50,24.41-51.74,36.64,9.64,39.08,19.63S499.59,438,487.1,439Z"/><path class="cls-13" d="M485.32,357.4S472.17,392.5,452,397.7s-28.94-.22-28.94-.22a57.14,57.14,0,0,0,18.7-33.77S475.4,340.69,485.32,357.4Z"/><path class="cls-34" d="M498.84,505.25c-.84-3.41,6.36-6,8.12-2.94,3.3,5.69,4,12.86,5.27,18.58,3.76,16.32,0,38.66,0,38.66Z"/><path class="cls-13" d="M482.06,360.25s9.82,7.84,12.22,15.46,3.47,23.3,8,22.77c0,0,9.91-23.86-1.23-37.36C489.28,346.81,482.06,360.25,482.06,360.25Z"/><path class="cls-20" d="M476.42,420.87s.89,3.8,10.35,3.21c0,0,7.94-.49,7.7-4.67C494.47,419.41,486.77,416.44,476.42,420.87Z"/><path class="cls-34" d="M601.81,641.27a9.42,9.42,0,0,1-.71,2.37c-3.77,8.28-82.09,18.83-91.88,13.56-4.37-2.36-12.05-51.46-6.53-95.39,5.92,25.12,7.72,76.64,21.59,79.07C540,643.63,581.27,638.38,601.81,641.27Z"/><path class="cls-18" d="M515.17,561.56C495.7,655.4,512,669.81,501.87,679c-.05,0-9,3.9-9,4-10.55,9.14-10.81-1.94-43.95,12.42-15.78,6.85-36,15.92-53.69,21.28a110.51,110.51,0,0,1-18.5,4.16c-10.65,1.25-18.6-.61-21.19-7.8-7.53-20.9,28.62-76.4,19.58-114.27-.07-.32-.15-.66-.21-1a41.26,41.26,0,0,1-.44-11.29c1.69-21.13,15-51.84,28.86-78.06,15.26-28.93,31.11-52.39,32.53-51.55,40.26,23.9,43.9,4,43.9,4S521.81,529.55,515.17,561.56Z"/><path class="cls-34" d="M496,681.67h0c-10.55,9.14-14-.62-47.15,13.74-15.78,6.85-36,15.92-53.69,21.28-9,1.57-15.75,3-18.5,4.16-10.65,1.25-18.6-.61-21.19-7.8-7.53-20.9,28.62-76.4,19.58-114.27-.07-.32-.15-.66-.21-1a34.78,34.78,0,0,1-.44-11.29c1.9-16,13.71-33.47,27.09-58.84,8.94,9.45,76.13-1.51,60.24,91.87C456.9,648.17,491.86,659.46,496,681.67Z"/><path class="cls-39" d="M609.87,639.57h0a15.77,15.77,0,0,0,27.63-10.41V623a16.16,16.16,0,0,0-.13-2H606a109.41,109.41,0,0,0,.7,11.69A14.44,14.44,0,0,0,609.87,639.57Z"/><path class="cls-40" d="M634.8,621h-4.25a14.38,14.38,0,0,1,.13,2v6.15A15.83,15.83,0,0,1,617,644.79a14.8,14.8,0,0,0,2.12.15,15.84,15.84,0,0,0,15.79-15.79V623A16.16,16.16,0,0,0,634.8,621Z"/><rect class="cls-39" x="615.27" y="643.56" width="12.89" height="1.93" transform="translate(1243.42 1289.06) rotate(180)"/><path class="cls-15" d="M492.77,686.44s14.81-3.51,21.59-.75,20.34,9.79,19.08,13.55-17.32,5.78-24.1,2-11.8,1-20.08-1.76S492.77,686.44,492.77,686.44Z"/><path class="cls-18" d="M435.83,456.9s-54.63.73-64.42,27.09-6.78,119,7.53,146.85,95.64,65.52,104.68,67,14.68-12.42,14.31-13.93-85.48-70.41-85.1-77.57S435.83,456.9,435.83,456.9Z"/><path class="cls-41" d="M848.27,566.29s-13.95-16.91-17-18.91-16.18-5.5-16.93-4.8-.79,1.73.84,3.17,7.87,5.08,7,5.49-19.7-9-22.41-5.8,1.54,16.15,8.78,22.38,28.88,8.89,30.24,9.76C850.35,585,848.27,566.29,848.27,566.29Z"/><path class="cls-15" d="M979.07,971.85a6.58,6.58,0,0,1-3.89,6.08h0c-4.52,2.42-12.47,2.66-21.12,2.3-1.1,0-2.1-.08-3-.08h-1.23c-8.56.2-7.65,2.68-23.91,4-18.54,1.53-25.37-4-26.46-6.46-.92-2.13,7-4.53,15.92-7.28l1.3-.4,3.55-1.12c10.58-3.41,21-7.45,23.6-17.82,2.75-11-5.53-41.71-5.53-41.71l29.37-3.07s2.83,32.1,4.67,42.1c1,5.34,3.5,9.59,5,14.16.1.32.2.64.29,1A30.24,30.24,0,0,1,979.07,971.85Z"/><path class="cls-14" d="M979.07,971.85a6.58,6.58,0,0,1-3.89,6.08h0c-4.82,2.16-12.64,2.48-21.1,2.24-1.11,0-2.1,0-3,0h-1.23c-8.56.2-7.65,2.68-23.91,4-18.54,1.53-25.37-4-26.46-6.46-.92-2.13,7-4.53,15.92-7.28a56.66,56.66,0,0,0,28.44,2.35c12.36-2.26,24.65-8.22,33.48-10.21.1.32.2.64.29,1A30.24,30.24,0,0,1,979.07,971.85Z"/><path class="cls-15" d="M788.49,936.47c-1.63,8.16-13.25,6.8-26.24,3.63s-9.91.6-28.39-1.45S709.77,929.71,709.2,927c-.5-2.44,8.63-3.3,18.43-4.43l3.71-.44c11.06-1.39,19.16-8.53,29.21-14.39,9.52-5.55,23.72-28.18,23.72-28.18l25.36,2s-13.31,20.21-18.45,29c-3,5.17-2.87,12-2.49,17.28A32.71,32.71,0,0,1,788.49,936.47Z"/><path class="cls-14" d="M762.25,940.1c-13-3.18-9.91.6-28.39-1.45S709.77,929.71,709.2,927c-.5-2.44,8.63-3.3,18.43-4.43l.09.19A52.15,52.15,0,0,0,754.2,931c12.54.3,25.83-3.29,34.49-3.15a32.71,32.71,0,0,1-.2,8.67C786.86,944.63,775.24,943.27,762.25,940.1Z"/><path class="cls-29" d="M885.65,774.36l54.65,147a50,50,0,0,0,16.44-1.51c7.4-2.13,15.89-7.74,15.89-7.74S959.08,771,934.23,741.6,885.65,774.36,885.65,774.36Z"/><path class="cls-42" d="M1101.78,714.87s-157-53.09-192-41.8S769.6,893.54,769.6,893.54s2.37,3.16,8.85,5.59c6,2.26,20.6,2.11,20.6,2.11s94.89-81.33,106.18-105,15.82-46.32,27.11-44.06,145.72,55.35,176.21,23.72,22.53-72.72,22.53-72.72Z"/><path class="cls-38" d="M1005.83,467.89c-2.51-5.18-5.31-14.37-6.68-30.76.21,1.62,3,22.3,11,34,32.65,21.44,95.24,93,94,106.59,0,0,22-37.4,22.43-37.62,0,0,40.66-51.71-7.53-81.33-24.5-15.06-24.37-34.38-23.35-51.16s-6.68-89-55.75-70.13c0,0-7.88-3.5-11.4-3a9.61,9.61,0,0,1,4.34,2.06c-5.69-.34-13.82.08-20.61,3.94C994.28,350.73,978.18,442.44,1005.83,467.89Z"/><path class="cls-15" d="M1012.06,472.2c-.16.07,15.77,8.34,27.75,5.06,11.27-3.07,18.64-17.68,18.48-17.72-4.77-.94-6.15-7.5-6-35.69l-2.15.43-36.29,7.18s.83,11.42.86,22.18C1014.68,462.67,1014.13,471.23,1012.06,472.2Z"/><path class="cls-19" d="M1013.8,431.46s.83,11.42.86,22.18c20.3-.58,31-19.1,35.43-29.36Z"/><path class="cls-38" d="M1053.83,420.33s10.64-16.81,13.2-31.19c1.82-10.26-3.41-48.3-41.64-42.82a51.84,51.84,0,0,0-21.53,8.14c-8.3,5.61-20.28,17.71-6.89,50.9l3.48,11.22Z"/><path class="cls-15" d="M1007,441.65s48,.79,48.06-29.13,6.26-50-24.41-51.74S994,370.42,991.6,380.4,994.53,440.67,1007,441.65Z"/><path class="cls-38" d="M1008.8,360s13.16,35.11,33.34,40.3,28.94-.22,28.94-.22a57.14,57.14,0,0,1-18.7-33.77S1018.72,343.34,1008.8,360Z"/><path class="cls-38" d="M1012.06,362.89s-9.82,7.84-12.21,15.46-3.48,23.31-8.05,22.77c0,0-9.91-23.86,1.23-37.35C1004.84,349.45,1012.06,362.89,1012.06,362.89Z"/><path class="cls-43" d="M1119,601.42c4.73-19.86-11.38-58.41-28.21-90.33-15.26-28.92-31.11-52.39-32.53-51.55-40.26,23.9-43.9,4-43.9,4s-36.56,4.86-46.92,22.69c-14.32,24.65-29.92,98.61-45.25,97.52-7-.51-77.82-27.11-77.82-27.11s-11.79,11.05-9.53,24.6c0,0,35,23.41,64.51,38.34,15.63,7.9,29.76,13.43,36.4,11.86,13.47-3.17,34.5-34.38,45.86-52.76l.08-.12c14.5,82.1-5.22,100.8,4.77,109.46,10.54,9.14,25.6-4.35,58.73,10,21.74,9.43,51.9,23.06,72.2,25.43,10.65,1.25,18.6-.6,21.19-7.79C1146.14,694.8,1110,639.3,1119,601.42Z"/><path class="cls-20" d="M1017.7,423.51s-.89,3.8-10.35,3.21c0,0-7.94-.49-7.7-4.66C999.65,422.06,1007.35,419.08,1017.7,423.51Z"/><path class="cls-44" d="M1138.61,715.7c-2.59,7.19-10.54,9-21.19,7.79-14.05-6.12-74.76-29.64-74.08-45.58,1-23.59,11.67-24.34,4.14-53.46-6-23.39,50-66.87,59-76.32,16.83,31.92,17.29,33.43,12.56,53.29C1110,639.3,1146.14,694.8,1138.61,715.7Z"/><path class="cls-44" d="M981.64,578.71c-11.36,18.38-32.39,49.59-45.86,52.76-6.64,1.57-20.77-4-36.4-11.86,11.41,2.94,22.49,2.86,33.26,1.82,11.67-1.13,15.06-15.44,33.51-36.9C978.12,570.62,981.06,574.12,981.64,578.71Z"/><path class="cls-39" d="M1020.72,622.14c-1.48-.92-4.37-.56-6.45-.12v-3a16.19,16.19,0,0,0-.13-2H982.82a16.19,16.19,0,0,0-.13,2v6.14a15.77,15.77,0,0,0,27.63,10.42h0s7.46-1.84,9.79-4.61S1023.2,623.67,1020.72,622.14Zm-1.66,5.68c-.79,2-4.34,3.14-6.09,3.57a15.56,15.56,0,0,0,1.26-5.19c1.08-1.49,2.79-2.35,4-2.12S1020.06,625.24,1019.06,627.82Z"/><path class="cls-40" d="M985.25,619v6.15A15.84,15.84,0,0,0,1001,640.93a14.8,14.8,0,0,0,2.12-.15,15.83,15.83,0,0,1-13.66-15.64V619a14.38,14.38,0,0,1,.13-2h-4.25A16.16,16.16,0,0,0,985.25,619Z"/><rect class="cls-39" x="992.02" y="639.55" width="12.89" height="1.93"/><path class="cls-15" d="M1037.88,623.88s-10.16-7.91-19.77-6-14.31,8.47-13.93,11.48,5.46,11.48,12.8,12.24,28.24-4.52,28.24-4.52Z"/><path class="cls-43" d="M1058.29,459.54s39.15,2.42,52.7,21.32c19.08,26.61,52.22,135.24,43.18,160.09,0,0-37.16,3.91-63.71,3.91-13.85,0-55.4-4.41-55.4-4.41s-2.89-13.49,1.13-20,69.28-17.07,72.29-20.08-37.65-58.74-37.65-67.78S1058.29,459.54,1058.29,459.54Z"/><path class="cls-45" d="M1040.1,650.93H507.52a10.35,10.35,0,0,0-10.32,10.33v13.48a10.35,10.35,0,0,0,10.32,10.32H764.86V946c-45.28,1.81-83.83,17.35-99.56,38.48H881.62C866,963.27,828.05,947.83,782.76,946V685.06H1040.1a10.35,10.35,0,0,0,10.33-10.32V661.26A10.36,10.36,0,0,0,1040.1,650.93Z"/><path class="cls-45" d="M1821.21,692.91H1465.32a7.93,7.93,0,0,0-7.91,7.91v14a7.93,7.93,0,0,0,7.91,7.91h170.12v228.1c-39.52,1.57-72.67,15-86.42,33.45l188.48.19c-13.64-18.54-46.83-32-86.41-33.63V722.74h170.12a7.93,7.93,0,0,0,7.91-7.91v-14A7.93,7.93,0,0,0,1821.21,692.91Z"/><path class="cls-46" d="M273.08,593.85c-13.65,3.42-101.17,2.28-98.9,13.65s61.39,29.56,94.35,19.32c0,0-36.38,89.8-84.12,85.26S121.89,678,92.32,675.71,41.18,681.39,56,689.34s64.79,2.62,88.66,22.9,43.2,32.81-1.13,41.9c-27,5.54-67.11,5.6-97.91-2.91-6.5-34.41-9.7-70.4-7.33-106.35q.55-8.39,1.53-16.77C45.48,578.76,62.37,530,96.28,486c19-6.13,37.44-10.41,49.48-9.25,0,0-55.71,94.36-37.51,92.09S189,471.08,189,471.08s92.07-17,106.85,37.52S286.72,590.45,273.08,593.85Z"/><path class="cls-47" d="M253.48,525.74c-117,47.35-180.85,87.58-215.23,119.14q.55-8.39,1.53-16.77C116.19,571.06,246.69,528,253.48,525.74Z"/><path class="cls-47" d="M62.86,819.14c-4-12.44-7.61-25.31-10.86-38.5l.82-.89s39.26,14.16,48.58,25.69C101.4,805.44,67.56,813.83,62.86,819.14Z"/><path class="cls-47" d="M135.92,859.61c-12,20.43-27.13,21.3-32.14,18.24-4-2.47-21.15-20-29.16-24.78q-3.77-10-7.36-20.53c-.36-1-.71-2.12-1.07-3.2q-1.27-3.78-2.5-7.63c8.51,3.65,52.09-5,52.09-5S147.89,839.19,135.92,859.61Z"/><path class="cls-47" d="M118.32,852a530.28,530.28,0,0,0-51.06-19.42c-.36-1-.71-2.12-1.07-3.2A474.84,474.84,0,0,1,118.32,852Z"/><path class="cls-48" d="M1577,939.8s21.17,21.16,26.42,26.34,25,2.91,30.37,18.2h-53.68s-13.3-9.71-34-9.24c0,0-3.94-14.62,0-20.28s5.39-15,5.39-15Z"/><path class="cls-48" d="M1546.14,975.1l2.71,9.24h19v-7.82A52.48,52.48,0,0,0,1546.14,975.1Z"/><path class="cls-49" d="M1544.39,783.48s-1,100.33,7.14,156.32H1577l18-105.72Z"/><path class="cls-29" d="M1652.47,939.8H1627c-1.22-1.27-79.34-82.25-91.54-133.13a136.26,136.26,0,0,0-16.08-.27c-2.56.12-5.25.32-7.92.65-11.82,1.48-166.72,7.15-174.85-1s-4.86-54.92-4.86-54.92l15.22-8.07,16.09-8.53s178.64,2.81,197.26,16.85S1622.54,858.89,1652.47,939.8Z"/><path class="cls-50" d="M1652.47,939.8s21.17,21.22,26.42,26.43,24.95,2.91,30.37,18.25h-53.68s-13.3-9.74-34-9.27c0,0-3.94-14.66,0-20.34S1627,939.8,1627,939.8Z"/><path class="cls-50" d="M1621.59,975.1l2.71,9.24h19v-7.82A52.48,52.48,0,0,0,1621.59,975.1Z"/><path class="cls-51" d="M1519.34,806.39c-2.56.12-5.25.32-7.92.65-11.82,1.48-166.72,7.15-174.85-1s-4.86-54.92-4.86-54.92l15.22-8.07,25.59,10.85S1368.73,802.22,1519.34,806.39Z"/><path class="cls-52" d="M1521.29,674.64a14.62,14.62,0,0,0-12.52-10.37s-8.82-.64-15.17,1.22-16.91-1.82-16.91-1.82-38.71-13.46-47.77-19.1c-19.42-12.08-54.53-90.43-66.49-80.87,0,0-15.45,14.58-7,39.66s42,59.6,62.39,65.17c15,4.12,54.34,6.31,59.55,6.59,6.49.83,15.3,4.59,17.66,4.77,2.6.21,8.41-3.66,12.43-3.09C1522.15,678.87,1521.29,674.64,1521.29,674.64Z"/><path class="cls-53" d="M1369.36,564.61c-16,.23-33.82-1.44-49-3.45,2.8-4.69,6.14-18.18,7.09-36.8v-.07l5.65.3,26.74,1.43s0,.39-.08,1.07c-.25,3.61-1,15.41-.91,22.06.05,2.56,1.38,8.08,1.78,8.34C1363.53,560,1366.46,562.33,1369.36,564.61Z"/><path class="cls-3" d="M1321.84,451.64c-.39-1.53-5.3-18-30.93-13.21,0,0,12.84-1.28,16.22,3.74,0,0-10-4.9-16.48-1.18s-7.83,16.78-7,20.79,7.56,16,12.21,16.16a13.74,13.74,0,0,0,5.33-1.18,60.84,60.84,0,0,0-2.07,6.86c-5.53,23.09,9.45,41.13,17.55,37,5.19-2.67,8.84,6.39,8.84,6.39l43.94-55.22S1340.77,435.43,1321.84,451.64Z"/><path class="cls-52" d="M1358.82,549.15c-16.21-1.92-26.56-16.16-31.4-24.8l-.17-.31,5.83.55,26.66,2.5C1359.49,530.69,1358.69,542.5,1358.82,549.15Z"/><path class="cls-53" d="M1361.12,536.71s-37.93-.35-37.35-24-3.91-39.57,20.33-40.34,28.72,8.35,30.44,16.28S1371,536.19,1361.12,536.71Z"/><path class="cls-3" d="M1373.75,475.52c-5.68-7.25-10.15-5.81-12.68-3.74-20.43-11.92-34.22,4.58-34.22,4.58a45.11,45.11,0,0,1-15.44,26.27s6.8,4.44,22.84.76c4.89-1.13,9.33-4.47,13.13-8.57a88.66,88.66,0,0,1-15.7,18.2c19.25-8.31,27.58-34.58,28.41-37.36,2.26,2.14,6.71,6.78,8,11.24,1.74,6.06,2.27,18.46,5.89,18.13C1374,505,1382.26,486.4,1373.75,475.52Z"/><path class="cls-48" d="M1398.48,608.39s24.38,31.51,29.92,32,2.95,21.47,0,26.87-21.93,17-34.05,4.52S1398.48,608.39,1398.48,608.39Z"/><path class="cls-50" d="M1428.4,739.15c-18.1,2.58-49.69,4.8-55.88,14.77s-45.52,3-48.75-3.32,6.74-57.33,1.57-66c-3.89-6.49-17.33-42.26-24.29-62.85a135.83,135.83,0,0,1-4.2-13.83c-1.23-7.54-5.88-34.64,12.79-42.59,0,0,9-3.88,9.79-7.08a18,18,0,0,0,.21-3.27h0c0-4.32-.08-10.23,4.13-8.54,5.5,2.21,11.33,7.63,20.73,7.13s17.53-4.67,18.76-2-2.19,6.32,0,8.1,29.68,18.45,38.17,42.79c0,0,6.9,17.57,6.9,32.28,0,1.14,0,2.29,0,3.46-.19,8.78-1,18.12-.11,26.2q.06.64.15,1.29c1.38,10.25,2.88,19.94,4.41,27.43s3.07,12.64,4.58,14.16C1424.7,714.77,1446.5,736.56,1428.4,739.15Z"/><path class="cls-53" d="M1525.37,675.24a45.05,45.05,0,0,0-3-5.91c-1.23-2.22-10.59-11.82-14.29-12.8s-21.78,4.06-21.78,4.06-71.15.94-82.5-6c-14.77-9.09-50.66-46.69-75.64-65.87-11.9-9.15-21.33-14.11-24.81-9.82,0,0-9.51,9.13,2.46,31.68q1,1.89,2.21,3.91c15.28,25.41,74,74.37,97.55,76S1488.94,672,1488.94,672s6.23-1.7,9.43.76,15.57,2,17.33,3.69C1519,679.63,1526.17,677.7,1525.37,675.24Z"/><path class="cls-48" d="M1372.52,753.92c-6.18,10-45.52,3-48.75-3.32s6.74-57.33,1.57-66c-3.89-6.49-17.33-42.26-24.29-62.85,1.15-2.32,2.8-3.38,5.08-2.75,15.91,4.37,91.32,62.31,106.61,74.15,1.52,7.4,3.07,12.64,4.58,14.16C1417.32,707.33,1370.21,726.22,1372.52,753.92Z"/><path class="cls-48" d="M1408.18,664.45c-23.13-9.84-80.54-65.49-81.37-66.29.66.23,19.18-8,64,32.79,5.2,4.73,12.51,14.29,14.2,18.44C1407.07,654.38,1407.76,660.59,1408.18,664.45Z"/><path class="cls-50" d="M1308.34,577.31a52.78,52.78,0,0,1,22.41,10.26c11.09,8.62,66.44,62.69,75.7,65s29.2,1.2,29,7-4.67,34.4-10.58,39.57-37.19,7.63-50.73-1S1293.32,608.5,1297.51,591,1308.34,577.31,1308.34,577.31Z"/><path class="cls-48" d="M1334.39,565.35c-5.91-1.47-24.75,0-24.75,0s9-3.88,9.79-7.08a18,18,0,0,0,.21-3.27c.95,3.89,3.85,5.73,11.61,6.1S1340.3,566.82,1334.39,565.35Z"/><path class="cls-51" d="M1627,939.8h0c-1.22-1.27-79.34-82.25-91.54-133.13,0,0,19.19-5.33,30.76,9.93S1627,939.8,1627,939.8Z"/><path class="cls-15" d="M2484.07,551.32a14.75,14.75,0,0,0,.74-4.29c.56-18.33,4.73-30.51-14-32.15s-22.63,5.26-24.31,11.33.72,37,8.36,37.82a53,53,0,0,0,6-.17c.16,2,.44,5.5.76,9.35.61,7.34,1.33,15.94,1.54,17.92l20.76-1,11-13.66S2487.17,567.2,2484.07,551.32Z"/><path class="cls-13" d="M2524.45,787.77a173.33,173.33,0,0,1-13.66,19.54c-15,19-31.38,34.61-34.23,49.39a65.75,65.75,0,0,1-2.64,9.47c-1.19,3.38-2.66,6.94-4.36,10.63-6.37,13.85-15.91,29.36-25.43,43.47C2427.67,944.66,2412.2,965,2412.2,965l-28.38-1.21c1.13-2.85,13.51-36.52,30.07-77.67,6.73-16.7,13.88-34.47,20.77-51.61l2.75-6.82,6.21-15.44,27.94-69.4s62.14-23.54,68.6-8.29C2545.48,747.15,2541.14,759.47,2524.45,787.77Z"/><path class="cls-13" d="M2411.31,960.68s-1.45,23.42-6,23.75c-.6.05-23,.05-23,.05l-28.57-.17s.19-6.88,8.54-8.34,22.32-7.32,27.38-18.36C2395,946,2411.31,960.68,2411.31,960.68Z"/><path class="cls-13" d="M2477,892.94s19.74,12.69,17.83,16.81c-.26.54-11.17,20.08-11.17,20.08l-14.07,24.87s-5.92-3.52-3.12-11.52,4.49-23.07-2.68-32.86C2456.28,900,2477,892.94,2477,892.94Z"/><path class="cls-34" d="M2458.4,571.38c.45-.17,28.06-6.77,31-5.64s4.35,6.93,4.35,6.93l-45,7.74S2452.59,573.48,2458.4,571.38Z"/><path class="cls-13" d="M2449.28,524.6s7.27,20.29,11.32,18.26,7.78-3.72,8.8,2.71-3.05,15.22,10.48,12.85,23.59-41.5,18.26-47C2482.76,495.52,2428.14,505.83,2449.28,524.6Z"/><path class="cls-18" d="M2541.61,735.06c-7.43,8.77-70.61,6.48-89.12-.92a13.4,13.4,0,0,1-3.26-1.75c-10.88-8.71,13.68-16.36-13.79-82.73a1,1,0,0,1,0-.1c-17.26-49.13,5.47-63.39,13.44-70.64,0,0,38.58-11.72,59.63-5.2C2535.8,582.18,2549.59,725.62,2541.61,735.06Z"/><path class="cls-34" d="M2475.17,702.48c-1.25,9-8.52,31.33-22.68,31.66a13.4,13.4,0,0,1-3.26-1.75c-10.88-8.71,13.68-16.36-13.79-82.73a1,1,0,0,1,0-.1c4.6-3.15,12-6.73,16.87-1.26C2459.69,656.68,2476.46,693.13,2475.17,702.48Z"/><path class="cls-24" d="M2449.23,732.38s-76.91,47.89-85.62,80.55,103.76,102.31,103.76,102.31,12.34-10.89,14.51-18.87c0,0-50.83-60.91-61.86-74.56-6.77-8.38,100.14-29,113.2-49.34s8.39-37.41,8.39-37.41Z"/><path class="cls-15" d="M2346.69,692.21s-11.79-5.06-15.66-2.66-10.5,11.17-11.3,13.28-1.09,5.16,2.64,4.51,4-.63,4-.63,6.27-5,7.76-5.05,7.86,2.86,10.9-.62S2346.69,692.21,2346.69,692.21Z"/><path class="cls-18" d="M2448.72,580.41s-11.47,6.15-19.64,26.12c-8.44,20.66-19.64,67-22.73,69s-49.41,9.32-63.21,14.69c0,0-5.41,9.71-.29,13.72s67.17,1.81,70.93.83c31.32-8.11,47.78-69.91,51.51-79.4S2448.72,580.41,2448.72,580.41Z"/><path class="cls-13" d="M2527.38,961.29V928.57h33.41a2.38,2.38,0,0,0,2.37-2.37v-8.9a2.38,2.38,0,0,0-2.37-2.37h-33.41V809.48a6.31,6.31,0,0,0-6.29-6.29h-6.75a6.32,6.32,0,0,0-6.3,6.29V914.93h-33.41a2.38,2.38,0,0,0-2.37,2.37v8.9a2.38,2.38,0,0,0,2.37,2.37H2508v32.72c-24.67,1.86-45.77,11.71-51.32,23.19h120.65C2571.83,973,2552.06,963.15,2527.38,961.29Z"/><rect class="cls-18" x="2432.08" y="794.08" width="171.25" height="43.54" rx="5.8"/><polygon class="cls-39" points="754.62 612.28 754.2 621.83 753.33 641.8 752.93 651 727.58 651 727 641.8 725.76 621.83 725.17 612.28 754.62 612.28"/><polygon class="cls-54" points="755.1 605.83 725.08 605.83 723.84 612.28 755.94 612.28 755.1 605.83"/><polygon class="cls-40" points="754.2 621.83 753.33 641.8 727 641.8 725.76 621.83 754.2 621.83"/><path class="cls-40" d="M800.83,615l-.17,3.92-.13,2.89-.8,18.4-.07,1.57-.4,9.2H773.91l-.57-9.2-.1-1.57-1.15-18.4-.18-2.89-.32-5.21.07-.17s5.91-1.07,9.46,1.19,7.41-2.15,10.64-.86,3.44,2.9,6,1.83A12.63,12.63,0,0,1,800.83,615Z"/><polygon class="cls-55" points="800.95 612.28 800.83 615.01 800.66 618.94 800.53 621.83 799.73 640.23 799.66 641.8 799.26 651 773.91 651 773.34 641.8 773.24 640.23 772.09 621.83 771.91 618.94 771.59 613.73 771.5 612.28 800.95 612.28"/><path class="cls-55" d="M801.1,612.28c0-.15,0-.3,0-.46a14.75,14.75,0,0,0-29.5,0c0,.16,0,.31,0,.46Z"/><path class="cls-39" d="M783.8,648.66l-1.28-.16c.07-.8,4.2-55.38,4.84-59a7,7,0,0,1,4.76-5.24h.07l20.64-3.66.22,1.27-20.6,3.65a5.71,5.71,0,0,0-3.82,4.22C788,593.29,783.82,648.47,783.8,648.66Z"/><polygon class="cls-39" points="800.66 618.94 800.53 621.83 799.73 640.23 773.24 640.23 772.09 621.83 771.91 618.94 800.66 618.94"/><path class="cls-54" d="M681.35,637.91c.08-.25,0-4.54,7.24-6.09s5.07-5.17,5.07-5.17,10.53,5.14,8.44,11.26S681.35,637.91,681.35,637.91Z"/><polygon class="cls-40" points="702.27 651 681.02 651 677.38 635.63 705.44 635.63 702.27 651"/><polygon class="cls-29" points="1701.98 647.74 1671.96 647.74 1670.72 654.19 1672.05 654.19 1672.64 663.74 1673.89 683.71 1674.46 692.91 1699.81 692.91 1700.21 683.71 1701.08 663.74 1701.5 654.19 1702.83 654.19 1701.98 647.74"/><path class="cls-29" d="M1640.54,668.56s2.17,3.62-5.07,5.17c-3.87.83-5.64,2.45-6.47,3.81h-4.74l3.64,15.37h21.25l3.17-15.37h-3.11C1648.56,672.48,1640.54,668.56,1640.54,668.56Z"/><path class="cls-48" d="M1583.53,622.88a2.34,2.34,0,0,0-3,1.39l-23.27,64h-68a2.33,2.33,0,0,0,0,4.65H1559a2.33,2.33,0,0,0,2.26-2.07l23.63-65A2.32,2.32,0,0,0,1583.53,622.88Z"/><path class="cls-42" d="M2953.21,845.63s-40.73-22.81-21.72-53.77c0,0,15.21-19,31.5-23.9,0,0-8.69,46.16,0,47.25s6-52.14,6-52.14,42.91-20.64,59.74-19c0,0-26.61,45.08-17.92,44s38.56-46.71,38.56-46.71,44-8.14,51.06,17.93-4.35,39.1-10.87,40.73-48.34,1.09-47.25,6.52,29.33,14.12,45.08,9.23c0,0-17.38,42.91-40.19,40.74s-29.87-16.29-44-17.38-24.44,2.71-17.38,6.52,31,1.24,42.37,10.94,20.64,15.67-.54,20-59.21,1.63-66.81-14.67Z"/><path class="cls-56" d="M3080.31,767.41s-114.06,36.94-127.1,78.22c0,0,.55,18.46-10.86,39.65h0a76.63,76.63,0,0,0-10.62,36.57h6.56c.12-9.71,1.13-20.88,4.46-29.33v0c0-.08.07-.15.1-.23.31-.7.75-1.69,1.3-2.88l0-.06c1.33-2.59,2.23-4.52,2.79-5.92h0l0,0c4.06-8.33,9.91-19.16,13.81-21.44C2960.82,861.92,2935.29,826.07,3080.31,767.41Z"/><path class="cls-42" d="M2912.84,880.94s30.91-17.3,16.49-40.79c0,0-11.54-14.42-23.9-18.13,0,0,6.59,35,0,35.85s-4.54-39.56-4.54-39.56-32.55-15.66-45.32-14.42c0,0,20.19,34.2,13.6,33.38s-29.26-35.44-29.26-35.44-33.37-6.18-38.73,13.6,3.3,29.66,8.24,30.9,36.67.83,35.85,4.94-22.25,10.72-34.2,7c0,0,13.19,32.55,30.49,30.9s22.66-12.36,33.38-13.18,18.54,2.06,13.18,4.94-23.49.95-32.14,8.3-15.65,11.89.41,15.19,44.92,1.23,50.69-11.13Z"/><path class="cls-56" d="M2922.41,921.85h3.64a50.66,50.66,0,0,0-5-10.83c-8.65-16.07-8.24-30.08-8.24-30.08-9.88-31.31-96.41-59.33-96.41-59.33,110,44.5,90.65,71.69,90.65,71.69,3,1.73,7.38,9.93,10.46,16.25,0,0,0,0,0,.05h0c.44,1.07,1.14,2.56,2.17,4.59l0,0,.93,2.06A40.06,40.06,0,0,1,2922.41,921.85Z"/><path class="cls-57" d="M2932.07,981.09a66.58,66.58,0,0,0,66.58-66.58H2865.49A66.58,66.58,0,0,0,2932.07,981.09Z"/><path class="cls-58" d="M2948.45,980.58a66.61,66.61,0,0,1-74.84-66.07h16.54A66.58,66.58,0,0,0,2948.45,980.58Z"/><path class="cls-57" d="M2999.23,984.48h-135a8.22,8.22,0,0,1,8.22-8.22H2991a8.22,8.22,0,0,1,8.22,8.22Z"/><rect class="cls-42" x="2863.3" y="914.51" width="136.86" height="2.04"/></g></g></svg>