<svg xmlns="http://www.w3.org/2000/svg" viewBox="0 0 277.28 113.13"><defs><style>.cls-1{fill:#fff;}</style></defs><g id="Layer_2" data-name="Layer 2"><g id="Ñëîé_1" data-name="Ñëîé 1"><path class="cls-1" d="M255.71,70C247.05,55.91,233,43,214.9,36.79a64.58,64.58,0,0,0-18.76-10.27C179.68,7.92,159.4-.86,135.06.07c-17.83.72-32.44,7.87-44,22.57a81.73,81.73,0,0,0-20.68,1.81C41.19,30.94,27.61,52.13,21.3,70H0v5.88s53.69,10.39,70.2,21c4.46,2.86,13.65,16.24,13.65,16.24H193.42s9.18-13.38,13.64-16.24c16.51-10.63,70.22-21,70.22-21V70Zm-9.1,0h-7.23a93.51,93.51,0,0,0-8.28-15.74A71.57,71.57,0,0,1,246.61,70ZM211.68,44.31A75.12,75.12,0,0,1,231.45,70h-6.71a243.5,243.5,0,0,0-15.28-26.22C210.18,44,211,44.11,211.68,44.31Zm-13.06-2.67A210.21,210.21,0,0,1,216.44,70h-8.05a54.13,54.13,0,0,0-9.22-6.53c-2.06-7.21-6.11-14.88-11.71-22.25A31,31,0,0,1,191,41,67.83,67.83,0,0,1,198.62,41.64Zm-26.17-5.86c.53.52,1.06,1,1.57,1.56A45.44,45.44,0,0,0,159.7,50.77a141.26,141.26,0,0,0-20.9-14,118.36,118.36,0,0,1,27.87-6.1Q169.6,33,172.45,35.78Zm7,7.63a72.84,72.84,0,0,1,10,15.72,70.66,70.66,0,0,0-24.09-3.55l0,0A35.92,35.92,0,0,1,179.48,43.41Zm-67,4.27.5-.24c6.44,2.47,12.15,6.2,16,11.26a45,45,0,0,0-17.48-4.23C111.77,52.1,112.09,49.83,112.48,47.68ZM122,43.25q3.15-1.39,6.35-2.68a134.74,134.74,0,0,1,25.56,15.84,102.87,102.87,0,0,0-15.34,3.45C135.17,52.64,129.19,47.13,122,43.25Zm6.54-11.59q-4.44-1.95-9-3.55c4.21-6.39,9.85-9.8,16.8-10.13,6-.29,13,1.76,20.15,5.72A150.83,150.83,0,0,0,128.56,31.66Zm-10.8,4.52-2.65,1.21c.22-.64.44-1.26.67-1.87C116.44,35.74,117.11,36,117.76,36.18Zm-32.13,8a61.43,61.43,0,0,1,8.46-.38,58.92,58.92,0,0,1,7,.6C92.91,48.7,85.31,53.2,78.55,57.47,80.67,53.07,83,48.58,85.63,44.16ZM59.92,70H51.84C54.38,57.42,64.18,49.71,76,46.14c-3.48,6.53-6.44,13-8.91,18.9C64.45,66.81,62,68.48,59.92,70Zm44.23-18q-.2,1.55-.36,3.12l-1.13.21C93.25,57.27,85,63.11,78,70H74C82.35,64.44,92.75,58,104.15,51.94Zm-1,11.6q-.12,3.13-.14,6.45H90.1A37.8,37.8,0,0,1,103.18,63.54Zm7.66-.8a39.27,39.27,0,0,1,12.93,2.74q-5,2.28-9.14,4.51h-4C110.66,67.49,110.73,65.07,110.84,62.74Zm32,4.42a86.43,86.43,0,0,1,8.93-2.09c-.74,1.74-1.38,3.35-1.94,4.92h-3.67C145.07,69,144,68,142.84,67.16Zm17.35-3.25c.83,0,1.58-.07,2.4-.1,2.21,2.06,4.26,4.13,6.17,6.18H157.48C158.27,68.05,159.15,66,160.19,63.91Zm13.69.18a60.5,60.5,0,0,1,18.8,5c0,.29.1.58.14.86h-13.9Q176.61,67.05,173.88,64.09ZM188.9,33a34.94,34.94,0,0,0-7.35,1.24c-1.11-1.2-2.27-2.38-3.46-3.54,1.31.11,2.61.25,3.89.44A64.33,64.33,0,0,1,188.9,33ZM135.33,8.25c17.54-.61,32.94,2.69,46.22,14.57a73.41,73.41,0,0,0-13.15-.47c-11-8.18-22.47-12.47-32.45-12s-18.24,5.74-23.82,15.21l-.14.25a98.88,98.88,0,0,0-11.62-2.38C110.12,12.51,121.78,8.85,135.33,8.25ZM94.16,31.14a90.53,90.53,0,0,1,14.29,2.3c-.51,1.37-1,2.8-1.43,4.3a66.15,66.15,0,0,0-12.74-1.58c-1.22,0-2.43,0-3.64,0C91.78,34.47,93,32.78,94.16,31.14ZM71.71,32.52A71.88,71.88,0,0,1,85,31q-2,3-3.9,6.15a54.86,54.86,0,0,0-18.84,6.78C52.13,50,45.88,59,44.11,70h-15C35.16,54.82,47.29,38,71.71,32.52Z"/></g></g></svg>