<svg xmlns="http://www.w3.org/2000/svg" viewBox="0 0 211.94 198.28"><defs><style>.cls-1{fill:#fff;}</style></defs><g id="Layer_2" data-name="Layer 2"><g id="Ñëîé_1" data-name="Ñëîé 1"><path class="cls-1" d="M208,163.4l-14.37,3.46a4.76,4.76,0,0,1-5.47-3.87c-10.78-60.21-50.92-106.75-96.93-134.9-2.35-1.44-4.72-2.84-7.12-4.18a4.77,4.77,0,0,1-2-6.17l6.82-15A4.75,4.75,0,0,1,95.48.58C155.23,33.46,199,88.46,211.86,157.84A4.75,4.75,0,0,1,208,163.4ZM151,95.52c15.55,25.5,23.39,45.36,30.17,72.68l-49.35,8.36L111.61,180l-1.77.3-5.39.91L30.1,193.8l-12.64,2.14-5.42.92-3.13.53-5,.84a3.37,3.37,0,0,1-3.61-4.74l11.27-24.3L41,105.81l5.07-10.92L48.33,90,67.24,49.27l9.1-19.6C104.53,44.11,133.55,67.49,151,95.52ZM46.77,142.36A16.81,16.81,0,1,0,64.39,160,16.84,16.84,0,0,0,46.77,142.36Zm9.36-43.11A8,8,0,1,0,64.9,108,8,8,0,0,0,56.13,99.25Zm34.93,19.32A10.39,10.39,0,1,0,102.43,130,10.4,10.4,0,0,0,91.06,118.57Zm19.56-38.9A18.53,18.53,0,1,0,91.15,99.18,18.62,18.62,0,0,0,110.62,79.67Zm7.28,69.14a10.39,10.39,0,1,0,11.37,11.39A10.41,10.41,0,0,0,117.9,148.81Zm21.54-32.74a12.9,12.9,0,1,0,14.12,14.15A12.93,12.93,0,0,0,139.44,116.07Z"/></g></g></svg>