<svg xmlns="http://www.w3.org/2000/svg" viewBox="0 0 204.85 191.87"><defs><style>.cls-1{fill:#4c61ef;}</style></defs><g id="Layer_2" data-name="Layer 2"><g id="Ñëîé_1" data-name="Ñëîé 1"><path class="cls-1" d="M107.14,44.82a73.28,73.28,0,1,0,73.14,73.29A73.22,73.22,0,0,0,107.14,44.82Zm0,123c-26.92,0-49.65-22.74-49.65-49.72s22.73-49.75,49.65-49.75,49.63,22.76,49.63,49.75S134.07,167.83,107.16,167.83Z"/><path class="cls-1" d="M68.23,0C51.56,0,33.87,8.27,33.87,20.72S51.56,41.45,68.23,41.45C82.36,41.45,90,34,93.33,24.23a6.71,6.71,0,0,0,1.36.09l81.19,3.74a5.2,5.2,0,0,0,5.23-5.21V18.27A5.23,5.23,0,0,0,175.88,13L94.69,16.83c-.51,0-1,0-1.45.05C89.77,7.28,82.21,0,68.23,0Z"/><path class="cls-1" d="M25.71,44.33h-.07L24,85.61a2.94,2.94,0,0,1-2.76,3.06,2.9,2.9,0,0,1-2.75-3.06L16.56,44.33H13.88L12,85.61a2.93,2.93,0,0,1-2.79,3.06,2.94,2.94,0,0,1-2.76-3.06L5.12,44.33h0C3.05,44.33,2,46.89,2,50L0,93.9c0,8.64,10.55,13.85,10.55,13.85L7.73,184.54c0,2.86,2.31,7.33,5.14,7.33h4.51c2.86,0,5.14-4.47,5.14-7.33L19.7,107.36s11.16-5.22,11.16-13.46L28.47,50C28.47,46.89,27.26,44.33,25.71,44.33Z"/><path class="cls-1" d="M203.55,44.33c-9.49,0-17.16,14.13-17.16,53.1,0,14.59,5,24.73,7.8,34.73L189.53,187a5.14,5.14,0,0,0,5.34,4.91h4.68a5.12,5.12,0,0,0,5.3-4.91l-1.3-55.74Z"/><ellipse class="cls-1" cx="107.14" cy="118.1" rx="42.57" ry="42.66"/></g></g></svg>