<svg xmlns="http://www.w3.org/2000/svg" viewBox="0 0 194.52 204.38"><defs><style>.cls-1{fill:#fff;}</style></defs><g id="Layer_2" data-name="Layer 2"><g id="Ñëîé_1" data-name="Ñëîé 1"><path class="cls-1" d="M194.43,38l-1.86-6.17c-.26-.85-1-1.38-1.61-1.17L90.22,62.74a53.25,53.25,0,0,1,2.58-8.49c37.27-17.63,78.79-37.32,96.5-45.46a1.42,1.42,0,0,0,.4-2L186.94,1c-.39-.81-1.17-1.22-1.77-.92-16.85,8.36-54.78,28.29-90,46.77A3.44,3.44,0,0,0,88.44,46c-.57,1.71-1.18,3.36-1.77,5l-.14.38-5.24,2.74a3.44,3.44,0,0,0-6.47.13c-.32,1-.66,1.94-1,2.91l-.36,1.05L67.2,61.47a3.44,3.44,0,0,0-6,1q-.43,1.26-.87,2.58l-8.1,4.21a3.42,3.42,0,0,0-5.52,1.48c-.18.55-.37,1.1-.56,1.65C39.27,75.94,33.39,78.93,29,81.13c.37.51.56.77.68.92L23.57,84a19.28,19.28,0,0,1,1.25,2.59c4.73-1.36,11.08-3.15,18.58-5.23-2.76,10.32-3.74,21.25,4.44,27.47,8.68,6.61,7.38,10.18,5,16.66-.4,1.11-.83,2.29-1.22,3.55a5.58,5.58,0,0,0-.9.13c-2.48.56-3.91,2.38-5,3.71-.44.55-1.1,1.4-1.39,1.45,0,0-1.19.18-4.42-2.28-11.5-8.76-20.37-4.27-31.36,6.92H0c.84,23.45,17,43.76,40.81,55.15v3.65a6.61,6.61,0,0,0,6.61,6.62h71.36a6.61,6.61,0,0,0,6.61-6.62v-3.44c24-11.36,40.39-31.77,41.23-55.36h-7.71c-4.89-7.06-9.48-10.94-14.16-12.05-5.5-1.31-9.64,1.47-12.66,3.49a12.07,12.07,0,0,1-3.13,1.75l-.12-.09c-2.06-1.6-5.17-3.65-8.51-2.9-2.48.56-3.91,2.38-5,3.71-.44.55-1.1,1.4-1.39,1.45,0,0-.94.14-3.4-1.54a18.9,18.9,0,0,0-.18-5.67c-.81-4-3-6.74-5.07-9.35a41.89,41.89,0,0,1-3-4.07c-1.18-1.93-.86-7-.56-11.89.64-10.17,1.43-22.83-8.07-30.07a9.49,9.49,0,0,1-3-3.43c39.78-10.92,84.23-23.07,103-28.46A1.41,1.41,0,0,0,194.43,38ZM83.17,65,78,66.64c.56-2,1.26-4.07,2-6.34l4.19-2A26.72,26.72,0,0,0,83.17,65ZM70.26,69.1,65.8,70.52c.44-1.41.9-2.8,1.35-4.15l4.32-2C71,65.93,70.58,67.52,70.26,69.1Zm5.68,19.78c9.27,7.06,8.13,14.19,6.55,24.05-.87,5.38-1.79,11.18-.86,17.32a16.32,16.32,0,0,0-6.45-3.34,12.15,12.15,0,0,0-3.32-.33,32.84,32.84,0,0,1,2-7c2.51-6.94,5.36-14.81-7.35-24.49-4.87-3.71-4.18-11.56-2.13-19.51l5.22-1.44C69.25,79.72,70.72,84.91,75.94,88.88ZM57.36,138.75a7,7,0,0,0,.88.21h-.85ZM78.2,139h-3a23.33,23.33,0,0,1-2.71-5.49,5.82,5.82,0,0,1,1.07.14c1.43.34,3.39,1.4,5.9,4Zm-10.84,0h-7a15.11,15.11,0,0,0,5.87-2.75A28.35,28.35,0,0,0,67.36,139ZM102,139h-9.8c-.44-.69-.84-1.37-1.19-2.05,4.93-3.32,8.34-3.17,12-1C102.73,136.83,102.39,137.85,102,139ZM57.9,73l-5.26,1.68.59-1.78v0l5.41-2.54C58.39,71.26,58.14,72.15,57.9,73Zm-15.35,4.9,2.13-1c0,.12-.07.23-.11.35ZM52,103.34c-5.83-4.43-3.71-14.78-.81-24.15l5.62-1.56C55,86.5,55.35,95.24,62.32,100.55c8.68,6.61,7.39,10.17,5.05,16.65-1.17,3.24-2.57,7.09-2.5,11.7-.85.5-1.63,1-2.35,1.5a12.07,12.07,0,0,1-3.13,1.75l-.12-.09c-.34-.26-.71-.54-1.1-.81.35-1.15.76-2.28,1.17-3.42C61.86,120.88,64.71,113,52,103.34Zm-1.59,34.77c0,.28,0,.56.07.85h-.87C49.9,138.68,50.17,138.39,50.41,138.11Zm-14.58-.59c.7.54,1.39,1,2.05,1.44H18.72C26.37,132.62,30.5,133.47,35.83,137.52Zm100.08-1.39c2.91-1.95,4.85-3.09,7.26-2.52,1.64.39,4,1.74,7.08,5.35H129.91A15.53,15.53,0,0,0,135.91,136.13Zm-15.14,1a9.58,9.58,0,0,1,1.08-1.23,7.24,7.24,0,0,1,2.76,1.6,7,7,0,0,0,3.2,1.46h-8.63A18.42,18.42,0,0,0,120.77,137.13ZM89.56,77.22c6.57,5,5.93,15.18,5.37,24.15-.41,6.52-.76,12.14,1.57,15.93a44.21,44.21,0,0,0,3.48,4.77c1.77,2.21,3.19,4,3.69,6.53-5.26-2.1-10.09-1.28-15,1.67-1.08-5.43-.23-10.74.66-16.25C90.86,104.15,92.65,93,80.1,83.4c-3.46-2.64-4.2-6.3-3.42-11.24l7.35-2A15.71,15.71,0,0,0,89.56,77.22Z"/></g></g></svg>