<svg xmlns="http://www.w3.org/2000/svg" viewBox="0 0 257.99 135.37"><defs><style>.cls-1{fill:#fff;}</style></defs><g id="Layer_2" data-name="Layer 2"><g id="Ñëîé_1" data-name="Ñëîé 1"><path class="cls-1" d="M173.74,122.22c6.55,3.66,10.43,8.22,10.43,13.15H80.29c0-4.65,3.46-9,9.35-12.52C31.76,116.62,0,96.46,0,72.55H258C258,95.71,228.2,115.35,173.74,122.22Zm69.58-61.54c6.9-18.63-13.32-30.34-25.8-25.29-3-6-11.81-11.36-15.2-13.21-3.07-7.34-3.12-11.63-10.6-15.1A30,30,0,0,0,160,11.17c-4.24-5.38-11.7-7-18.93-1.48C129.36-8.94,116.14,8,116,7.68,111.24-.41,103.39-1,97,.88,89.29,3.12,87.66,12.4,86.64,11.24c-5.83-6.62-17-2-18.92,4.83C65.7,23.1,61.2,18,57,18.5,41.39,20.4,43.59,30.83,43.62,31.09c.13,1.2.29,2.27.45,3.23C32,31.67,19.34,38.24,14.19,50.74A29.68,29.68,0,0,0,12,60.68H243.32Z"/></g></g></svg>