<svg xmlns="http://www.w3.org/2000/svg" viewBox="0 0 293.8 212.17"><defs><style>.cls-1{fill:#fff;}</style></defs><g id="Layer_2" data-name="Layer 2"><g id="Ñëîé_1" data-name="Ñëîé 1"><path class="cls-1" d="M50.35,113.33l4.17,9.88a8,8,0,0,0,10.33,4.21l16.31-6.91a7.92,7.92,0,0,0,4.19-10.35l-4.12-9.77,3.52-1.49L93,118.76l.44.65c.32.32,3.16,3,6.22,3a4.94,4.94,0,0,0,1.87-.36c3.66-1.55,3.84-7,3.85-7.65V114L97,93.75l4.62-2,9.55,22.64,1.92-1a29.1,29.1,0,0,0,14.83-32.77l2.55-1.07,8.23,19.79.44.66c.32.31,3.19,3.06,6.26,3.06a4.77,4.77,0,0,0,1.85-.36c3.68-1.53,3.84-7,3.84-7.66v-.41l-8.43-20.24,2.24-1L149,83.23a8,8,0,0,0,10.32,4.2l16.31-6.9a7.91,7.91,0,0,0,4.2-10.35l-4.09-9.71,3.88-1.64,8.24,19.8.44.66c.32.31,3.15,3,6.21,3a5,5,0,0,0,1.88-.37c3.67-1.53,3.82-7,3.83-7.63v-.41l-8.41-20.23,4.26-1.8,9.52,22.58,1.93-1a29.12,29.12,0,0,0,14.84-32.7l18.11-7.65a20.84,20.84,0,0,0,16.63,8.36A20.53,20.53,0,0,0,265,39.9a20.74,20.74,0,1,0-28.41-16.09L218.38,31.5a29.23,29.23,0,0,0-24.5-13.42,28.25,28.25,0,0,0-9.11,1.5l-2.05.69,9.41,22.32-4.23,1.79L179.8,24.9l-.45-.66c-.38-.38-4.64-4.11-8.11-2.71s-3.81,7-3.82,7.64v.42l8.29,19.94-3.92,1.66-4-9.43a8,8,0,0,0-10.33-4.2l-16.31,6.91A7.88,7.88,0,0,0,137,54.81l4,9.41-2.21.93-8.11-19.5-.44-.65c-.32-.32-3.17-3-6.19-3a4.61,4.61,0,0,0-1.84.36c-3.73,1.52-3.88,7-3.88,7.66v.41l8.28,19.92-2.66,1.12A29.25,29.25,0,0,0,99.44,58.06a28.58,28.58,0,0,0-9.12,1.5l-2,.69,9.38,22.26-4.58,1.94L85,65l-.44-.66c-.31-.31-3.17-3.06-6.24-3.06a4.83,4.83,0,0,0-1.87.36c-3.67,1.54-3.82,7-3.82,7.64v.41L80.88,89.6l-3.56,1.5-3.95-9.35A8,8,0,0,0,63,77.54L46.73,84.45A7.91,7.91,0,0,0,42.54,94.8l4.17,9.9L22.43,114.94,0,129.3l26.35-5.89ZM253.22,11.6a9.89,9.89,0,0,1,12.93,12.92,9.78,9.78,0,0,1-5.33,5.37,10.07,10.07,0,0,1-12.93-5.34A9.93,9.93,0,0,1,253.22,11.6Zm39,84.05a20.69,20.69,0,0,0-27.07-11.19,20.92,20.92,0,0,0-12.5,22.23l-18.2,7.68A29.22,29.22,0,0,0,210,101a28.25,28.25,0,0,0-9.11,1.5l-2.05.69,9.41,22.32L204,127.25l-8.1-19.48-.45-.66c-.38-.38-4.64-4.11-8.11-2.7s-3.81,7-3.82,7.63v.42l8.3,19.94-3.91,1.66-4-9.43a8,8,0,0,0-10.33-4.2l-16.31,6.9a7.9,7.9,0,0,0-4.19,10.36l4,9.4-2.2.93-8.12-19.5-.44-.65c-.32-.32-3.17-3.05-6.19-3.05a4.53,4.53,0,0,0-1.83.36c-3.74,1.52-3.89,7-3.89,7.66v.41l8.27,19.92L140,154.3a29.23,29.23,0,0,0-24.46-13.37,28.29,28.29,0,0,0-9.11,1.5l-2,.69,9.38,22.26-4.58,1.94-8.09-19.43-.44-.66c-.31-.31-3.18-3.06-6.24-3.06a4.66,4.66,0,0,0-1.87.37c-3.67,1.52-3.82,7-3.82,7.63v.41L97,172.47,93.39,174l-4-9.35a8,8,0,0,0-10.33-4.21L62.8,167.32a7.92,7.92,0,0,0-4.19,10.35l4.17,9.9L38.5,197.81,16.07,212.17l26.35-5.89,24-10.08,4.17,9.88a8,8,0,0,0,10.33,4.21l16.31-6.91A7.91,7.91,0,0,0,101.42,193l-4.12-9.77,3.52-1.49,8.26,19.86.44.65c.32.31,3.16,3.05,6.22,3.05a4.68,4.68,0,0,0,1.86-.37c3.67-1.54,3.85-7,3.85-7.64v-.42L113,176.62l4.62-2,9.55,22.64,1.92-1a29.1,29.1,0,0,0,14.83-32.77l2.55-1.07,8.23,19.79.44.66c.32.31,3.19,3.06,6.25,3.06a4.78,4.78,0,0,0,1.86-.36c3.68-1.53,3.84-7,3.84-7.66v-.41l-8.43-20.24,2.25-.95L165,166.1a8,8,0,0,0,10.34,4.2l16.3-6.9a7.9,7.9,0,0,0,4.2-10.35l-4.09-9.71,3.87-1.64,8.25,19.81.45.66c.31.3,3.14,3,6.2,3a5,5,0,0,0,1.88-.37c3.67-1.53,3.82-7,3.83-7.63v-.41l-8.42-20.23,4.27-1.8,9.52,22.58,1.93-1a29.11,29.11,0,0,0,14.84-32.7L256.51,116a20.84,20.84,0,0,0,16.63,8.36,20.75,20.75,0,0,0,19.07-28.7Zm-15.32,17.11A10.05,10.05,0,0,1,264,107.42a9.89,9.89,0,1,1,12.92,5.34Z"/></g></g></svg>