<svg xmlns="http://www.w3.org/2000/svg" viewBox="0 0 245.86 141.57"><defs><style>.cls-1{fill:#fff;}</style></defs><g id="Layer_2" data-name="Layer 2"><g id="Ñëîé_1" data-name="Ñëîé 1"><path class="cls-1" d="M112.62,11.62c1-4.5,6.65-3.91,10.45-3.91,7.33,0,15.24-.85,22.52.33,2.83.45,7.18,4.57,5.73,8.15,0,3-8.87,2.39-11.3,2.39H120.18C113.32,18.58,111.17,17.78,112.62,11.62ZM169.71,74v54.4a3.79,3.79,0,0,1-.85,2.26c-1.11,1.52-3.33,3-6.49,4.27-9.6,4-27.61,6.62-48.29,6.62-30.73,0-55.64-5.89-55.64-13.15V74c0-3,4.18-5.68,11.18-7.89,1.44-.44,3-.87,4.62-1.27,10.1-2.45,24.21-4,39.84-4a214.76,214.76,0,0,1,23.61,1.27c1.33.15,2.66.29,3.92.46C158.41,64.87,169.71,69.14,169.71,74Zm-3.93,0c0-3.59-9.08-7.36-24.17-9.51-1.24-.17-2.59-.33-3.92-.46a203.35,203.35,0,0,0-23.61-1.32c-20.77,0-36.94,2.64-45.32,6l-1.09.46c-3.44,1.52-5.29,3.19-5.29,4.81s1.58,3,4.51,4.48c.56.27,1.2.54,1.87.81,8.39,3.39,24.55,6,45.32,6A206.23,206.23,0,0,0,137.69,84c4.53-.53,8.63-1.18,12.2-2C160,79.91,165.78,76.91,165.78,74Zm-37.55-5.1c-7.27-1.18-15.19-.33-22.52-.33-3.8,0-9.39-.59-10.45,3.91-1.45,6.16.7,7,7.56,7h19.85c2.43,0,11.29.58,11.29-2.39C135.41,73.49,131.06,69.38,128.23,68.92ZM204.39,39.2c-7.28-1.18-15.19-.32-22.52-.32-3.8,0-9.4-.59-10.45,3.9-1.45,6.16.7,7,7.56,7h19.84c2.43,0,11.3.57,11.3-2.39C211.57,43.77,207.22,39.66,204.39,39.2Zm41.47,5.1V98.71A3.72,3.72,0,0,1,245,101c-1.12,1.53-3.34,3-6.5,4.28-9.59,4-27.61,6.62-48.29,6.62-5.43,0-10.68-.19-15.64-.53V72.57c0-8.27-16.56-12.23-30.45-14.11-1.26-.16-2.6-.31-3.89-.45h-.09c-1.83-.21-3.69-.38-5.57-.54V44.3c0-2.95,4.19-5.67,11.18-7.88,1.44-.45,3-.88,4.62-1.27,10.11-2.46,24.22-4,39.84-4a212.2,212.2,0,0,1,23.61,1.28c1.33.14,2.67.29,3.93.45C234.57,35.16,245.86,39.42,245.86,44.3Zm-3.92,0c0-3.58-9.08-7.35-24.17-9.51-1.25-.17-2.6-.32-3.93-.46A203.25,203.25,0,0,0,190.23,33c-20.76,0-36.94,2.64-45.32,6l-1.08.45c-3.45,1.52-5.3,3.2-5.3,4.81s1.58,3.05,4.52,4.49c.55.27,1.19.53,1.86.81,8.4,3.38,24.56,6,45.32,6a206.1,206.1,0,0,0,23.61-1.29c4.54-.52,8.64-1.17,12.21-2C236.1,50.2,241.94,47.2,241.94,44.3ZM81.36,23.21q-2.74-.3-5.57-.54V13.14c0-3,4.19-5.68,11.18-7.89,1.44-.44,3-.87,4.62-1.27,10.11-2.45,24.22-4,39.85-4A212.27,212.27,0,0,1,155,1.27c1.33.15,2.67.29,3.93.46,16.8,2.26,28.1,6.53,28.1,11.41V26.46c-14.6.13-28.21,1.56-38.52,4.07-1.55.37-3.12.8-4.84,1.33-9.06,2.86-13.46,6.45-13.46,11v13.9c-4.71-.34-9.55-.53-14.46-.57V37.78c0-8.27-16.55-12.23-30.45-14.1-1.26-.17-2.6-.32-3.89-.46Zm2.89-5.59c.56.27,1.19.54,1.86.81,8.4,3.38,24.56,6,45.33,6a203.63,203.63,0,0,0,23.6-1.3c4.54-.52,8.64-1.17,12.21-1.95C177.31,19,183.14,16,183.14,13.14c0-3.59-9.08-7.36-24.17-9.51-1.25-.17-2.6-.33-3.93-.47a205.44,205.44,0,0,0-23.6-1.31c-20.77,0-36.94,2.64-45.33,6L85,8.33c-3.45,1.52-5.29,3.19-5.29,4.81S81.31,16.19,84.25,17.62ZM69.79,34.13C62.52,33,54.6,33.8,47.27,33.8c-3.79,0-9.39-.59-10.45,3.91-1.44,6.16.71,7,7.56,7H64.23c2.43,0,11.3.58,11.3-2.38C77,38.7,72.63,34.59,69.79,34.13ZM67.92,61.57c-9.06,2.86-13.46,6.46-13.46,11v34.21C24.27,106.63,0,100.8,0,93.63V39.23c0-2.95,4.18-5.68,11.18-7.88,1.44-.45,3-.88,4.62-1.27,10.11-2.46,24.22-4,39.84-4a214.76,214.76,0,0,1,23.61,1.27c1.33.15,2.67.29,3.93.46,16.79,2.26,28.09,6.53,28.09,11.41v17c-14.59.12-28.2,1.56-38.51,4.06C71.21,60.61,69.63,61,67.92,61.57ZM79.25,49.25c4.54-.52,8.64-1.18,12.2-2,10.06-2.18,15.89-5.18,15.89-8.07,0-3.59-9.08-7.36-24.16-9.51-1.25-.17-2.6-.32-3.93-.46a203.22,203.22,0,0,0-23.61-1.32c-20.76,0-36.94,2.64-45.32,6l-1.09.46c-3.44,1.52-5.29,3.19-5.29,4.81s1.58,3.05,4.52,4.48c.55.27,1.19.54,1.86.82,8.4,3.38,24.56,6,45.32,6A206.1,206.1,0,0,0,79.25,49.25Z"/></g></g></svg>