<svg xmlns="http://www.w3.org/2000/svg" viewBox="0 0 225.18 119.43"><defs><style>.cls-1{fill:#fff;}</style></defs><g id="Layer_2" data-name="Layer 2"><g id="Ñëîé_1" data-name="Ñëîé 1"><path class="cls-1" d="M225.18,91.79c0,15.26-13,27.64-29.12,27.64a32.06,32.06,0,0,1-3.69-.23,73.4,73.4,0,0,0,1-11.93c0-42.33-36.15-76.65-80.75-76.65S31.84,64.94,31.84,107.27a73.4,73.4,0,0,0,1,11.93,32.06,32.06,0,0,1-3.69.23C13,119.43,0,107.05,0,91.79A27,27,0,0,1,9.73,71.17,22.15,22.15,0,0,1,11,60.39a23.84,23.84,0,0,1,13-13.31A22.57,22.57,0,0,1,29.8,33.23a25.09,25.09,0,0,1,18-8.33,23.63,23.63,0,0,1,10.72-12,25.66,25.66,0,0,1,18.91-2.26A24.62,24.62,0,0,1,93.82.36,25.5,25.5,0,0,1,112.59,4.5,25.47,25.47,0,0,1,131.35.36a24.58,24.58,0,0,1,16.36,10.29,25.65,25.65,0,0,1,18.91,2.26,23.59,23.59,0,0,1,10.72,12,25.06,25.06,0,0,1,18,8.33,22.57,22.57,0,0,1,5.72,13.85,23.86,23.86,0,0,1,13,13.31,22.14,22.14,0,0,1,1.3,10.78A27,27,0,0,1,225.18,91.79Zm-45.47,27.64a61.84,61.84,0,0,0,1.21-12.16c0-35.82-30.6-64.86-68.33-64.86s-68.33,29-68.33,64.86a62.6,62.6,0,0,0,1.2,12.16Z"/></g></g></svg>