<svg xmlns="http://www.w3.org/2000/svg" xmlns:xlink="http://www.w3.org/1999/xlink" width="2567" height="634.953" viewBox="0 0 2567 634.953">
  <defs>
    <linearGradient id="linear-gradient" x1="0.075" y1="0.192" x2="1.01" y2="0.747" gradientUnits="objectBoundingBox">
      <stop offset="0" stop-color="#784cef"/>
      <stop offset="0.763" stop-color="#4c61ef"/>
      <stop offset="1" stop-color="#277dff"/>
    </linearGradient>
  </defs>
  <g id="Path_245" data-name="Path 245" fill="url(#linear-gradient)">
    <path d="M 667.5452880859375 634.4530639648438 C 639.4087524414062 634.453369140625 610.0918579101562 633.3699340820312 577.919677734375 631.139892578125 C 543.2606201171875 628.738037109375 506.1140747070312 625.068359375 464.3578186035156 619.922119140625 C 341.7487487792969 604.8108520507812 239.0712432861328 597.148681640625 159.1771850585938 597.148681640625 C 127.7790603637695 597.148681640625 99.86624908447266 598.3464965820312 76.21406555175781 600.708984375 C 57.28125 602.5999145507812 41.01718902587891 605.2377319335938 27.87375068664551 608.5486450195312 C 16.15562438964844 611.5005493164062 9.128125190734863 614.4561767578125 5.296562671661377 616.41552734375 C 2.831778526306152 617.6759033203125 1.331132650375366 618.6956176757812 0.5 619.3356323242188 L 0.5 0.499920666217804 L 2566.5 0.499920666217804 L 2566.5 619.8305053710938 C 2562.943115234375 619.260986328125 2543.218505859375 616.2210083007812 2509.55029296875 613.2174072265625 C 2487.730224609375 611.2711791992188 2464.406494140625 609.72021484375 2440.226806640625 608.6080322265625 C 2410.003662109375 607.2177124023438 2378.350341796875 606.5127563476562 2346.14599609375 606.5127563476562 C 2264.164306640625 606.5127563476562 2178.152099609375 611.0239868164062 2090.49853515625 619.9208374023438 C 2012.7255859375 627.81494140625 1941.570922851562 631.6524047851562 1872.968383789062 631.6524047851562 C 1849.637451171875 631.6524047851562 1826.8349609375 631.222412109375 1803.257202148438 630.3377075195312 C 1782.203735351562 629.5477294921875 1760.975341796875 628.4089965820312 1738.358154296875 626.8565063476562 C 1696.275024414062 623.968017578125 1657.015258789062 620.1824340820312 1615.450927734375 616.1746215820312 C 1562.386840820312 611.058349609375 1507.5166015625 605.7673950195312 1446.394653320312 602.5283813476562 C 1399.005615234375 600.01708984375 1353.50244140625 598.1305541992188 1311.1494140625 596.9215087890625 C 1271.502807617188 595.789306640625 1233.36474609375 595.2152099609375 1197.794067382812 595.2152099609375 C 1122.115600585938 595.2152099609375 1054.854370117188 597.755859375 992.1671752929688 602.9821166992188 C 967.6593627929688 605.0252075195312 943.1790771484375 607.529296875 917.3265380859375 610.6370849609375 C 894.5147094726562 613.379638671875 873.5834350585938 616.2271118164062 853.3418579101562 618.9805297851562 C 823.1281127929688 623.0908813476562 794.5900268554688 626.9730224609375 764.7271728515625 629.8099365234375 C 731.3887329101562 632.9771118164062 700.5084228515625 634.452392578125 667.5452880859375 634.4530639648438 Z" stroke="none"/>
    <path d="M 1 0.99993896484375 L 1 618.3524169921875 C 4.00244140625 616.276123046875 11.482421875 612.162109375 27.75146484375 608.0636596679688 C 40.918701171875 604.746826171875 57.207275390625 602.1049194335938 76.164794921875 600.2114868164062 C 99.8330078125 597.847412109375 127.762451171875 596.648681640625 159.17724609375 596.648681640625 C 239.091552734375 596.648681640625 341.789794921875 604.3121337890625 464.41845703125 619.4258422851562 C 506.1640625 624.5708618164062 543.301513671875 628.2393188476562 577.9541015625 630.640869140625 C 610.112548828125 632.86962890625 639.4178466796875 633.9530639648438 667.5450439453125 633.9530639648438 C 700.493408203125 633.9530639648438 731.3597412109375 632.4786987304688 764.68310546875 629.3130493164062 C 794.536865234375 626.4771118164062 823.0712890625 622.59521484375 853.2808837890625 618.4855346679688 C 873.5244140625 615.7315063476562 894.4571533203125 612.8839721679688 917.2724609375 610.140869140625 C 943.130615234375 607.0321044921875 967.6168212890625 604.5274047851562 992.13037109375 602.483642578125 C 1054.830322265625 597.2564697265625 1122.103759765625 594.7152099609375 1197.794067382812 594.7152099609375 C 1233.368408203125 594.7152099609375 1271.511596679688 595.289306640625 1311.163696289062 596.4215087890625 C 1353.52001953125 597.630859375 1399.027221679688 599.5177001953125 1446.4208984375 602.0289916992188 C 1507.554321289062 605.2686767578125 1562.4306640625 610.5599365234375 1615.500244140625 615.6771240234375 C 1657.061279296875 619.6846313476562 1696.31689453125 623.4696044921875 1738.39306640625 626.3577270507812 C 1761.004638671875 627.9096069335938 1782.228515625 629.0480346679688 1803.276245117188 629.8380737304688 C 1826.847412109375 630.722412109375 1849.64404296875 631.1524047851562 1872.968505859375 631.1524047851562 C 1941.553100585938 631.1524047851562 2012.691650390625 627.3158569335938 2090.4482421875 619.42333984375 C 2178.11962890625 610.5245971679688 2264.148681640625 606.0127563476562 2346.14599609375 606.0127563476562 C 2378.358154296875 606.0127563476562 2410.01904296875 606.7177124023438 2440.25 608.1083374023438 C 2464.4365234375 609.2208862304688 2487.767822265625 610.7723999023438 2509.5947265625 612.7196044921875 C 2541.75537109375 615.5883178710938 2561.20654296875 618.4918823242188 2566 619.2449340820312 L 2566 0.99993896484375 L 1 0.99993896484375 M 0 -6.103515625e-05 L 2567 -6.103515625e-05 L 2567 620.4183349609375 C 2567 620.4183349609375 2487.300537109375 607.0128173828125 2346.14599609375 607.0128173828125 C 2275.555908203125 607.0128173828125 2189.61572265625 610.3629760742188 2090.549072265625 620.4183349609375 C 2006.772216796875 628.9217529296875 1936.088256835938 632.1524047851562 1872.968505859375 632.1524047851562 C 1712.197021484375 632.1524047851562 1600.483520507812 611.1947631835938 1446.3681640625 603.0277099609375 C 1348.222290039062 597.82666015625 1266.750854492188 595.71533203125 1197.794067382812 595.71533203125 C 900.49169921875 595.71533203125 835.5657958984375 634.9530029296875 667.5450439453125 634.9530029296875 C 613.924072265625 634.9530029296875 549.822021484375 630.959228515625 464.296142578125 620.4183349609375 C 325.7451171875 603.3422241210938 227.9609375 597.6488037109375 159.177001953125 597.6488037109375 C 21.596435546875 597.6488037109375 0 620.4183349609375 0 620.4183349609375 L 0 -6.103515625e-05 Z" stroke="none" fill="#707070"/>
  </g>
</svg>
